font.ufo
<glyph name="exclam" format="1">
  <advance width="279"/>
  <unicode hex="0021"/>
  <outline>
    <contour>
      <point x="201" y="229" type="line"/>
      <point x="213" y="722" type="line"/>
      <point x="67" y="722" type="line"/>
      <point x="79" y="229" type="line"/>
    </contour>
    <contour>
      <point x="211" y="56" type="curve"/>
      <point x="211" y="100"/>
      <point x="180" y="122"/>
      <point x="139" y="122" type="curve"/>
      <point x="96" y="122"/>
      <point x="69" y="98"/>
      <point x="69" y="56" type="curve"/>
      <point x="211" y="56"/>
      <point x="69" y="56"/>
      <point x="211" y="56" type="curve"/>
      <point x="211" y="11"/>
      <point x="181" y="-8"/>
      <point x="139" y="-8" type="curve"/>
      <point x="96" y="-8"/>
      <point x="69" y="13"/>
      <point x="69" y="56" type="curve"/>
      <point x="211" y="56"/>
      <point x="69" y="56"/>
    </contour>
  </outline>
</glyph>
<glyph name="quotedbl" format="1">
  <advance width="448"/>
  <unicode hex="0022"/>
  <outline>
    <contour>
      <point x="185" y="616" type="line"/>
      <point x="194" y="834" type="line"/>
      <point x="57" y="834" type="line"/>
      <point x="66" y="616" type="line"/>
    </contour>
    <contour>
      <point x="381" y="616" type="line"/>
      <point x="390" y="834" type="line"/>
      <point x="253" y="834" type="line"/>
      <point x="263" y="616" type="line"/>
    </contour>
  </outline>
</glyph>
<glyph name="numbersign" format="1">
  <advance width="651"/>
  <unicode hex="0023"/>
  <outline>
    <contour>
      <point x="43" y="220" type="line"/>
      <point x="518" y="220" type="line"/>
      <point x="548" y="321" type="line"/>
      <point x="73" y="321" type="line"/>
    </contour>
    <contour>
      <point x="102" y="436" type="line"/>
      <point x="580" y="436" type="line"/>
      <point x="609" y="537" type="line"/>
      <point x="130" y="537" type="line"/>
    </contour>
    <contour>
      <point x="417" y="39" type="line"/>
      <point x="610" y="722" type="line"/>
      <point x="479" y="722" type="line"/>
      <point x="285" y="39" type="line"/>
    </contour>
    <contour>
      <point x="172" y="46" type="line"/>
      <point x="364" y="722" type="line"/>
      <point x="233" y="722" type="line"/>
      <point x="46" y="46" type="line"/>
    </contour>
  </outline>
</glyph>
<glyph name="dollar" format="1">
  <advance width="565"/>
  <unicode hex="0024"/>
  <outline>
    <contour>
      <point x="165" y="92" type="curve"/>
      <point x="165" y="212"/>
      <point x="165" y="99"/>
      <point x="165" y="219" type="curve"/>
      <point x="63" y="219"/>
      <point x="165" y="219"/>
      <point x="63" y="219" type="curve"/>
      <point x="63" y="99"/>
      <point x="63" y="212"/>
      <point x="63" y="92" type="curve"/>
      <point x="165" y="92"/>
      <point x="63" y="92"/>
    </contour>
    <contour>
      <point x="380" y="635" type="curve"/>
      <point x="380" y="515"/>
      <point x="380" y="628"/>
      <point x="380" y="508" type="curve"/>
      <point x="482" y="508"/>
      <point x="380" y="508"/>
      <point x="482" y="508" type="curve"/>
      <point x="482" y="628"/>
      <point x="482" y="515"/>
      <point x="482" y="635" type="curve"/>
      <point x="380" y="635"/>
      <point x="482" y="635"/>
    </contour>
    <contour>
      <point x="333" y="-41" type="curve"/>
      <point x="333" y="-11"/>
      <point x="333" y="62"/>
      <point x="333" y="93" type="curve"/>
      <point x="202" y="93"/>
      <point x="333" y="93"/>
      <point x="202" y="93" type="curve"/>
      <point x="202" y="62"/>
      <point x="202" y="-11"/>
      <point x="202" y="-41" type="curve"/>
      <point x="333" y="-41"/>
      <point x="202" y="-41"/>
    </contour>
    <contour>
      <point x="344" y="636" type="curve"/>
      <point x="344" y="667"/>
      <point x="344" y="742"/>
      <point x="344" y="773" type="curve"/>
      <point x="213" y="773"/>
      <point x="344" y="773"/>
      <point x="213" y="773" type="curve"/>
      <point x="213" y="742"/>
      <point x="213" y="667"/>
      <point x="213" y="636" type="curve"/>
      <point x="344" y="636"/>
      <point x="213" y="636"/>
    </contour>
    <contour>
      <point x="63" y="92" type="curve"/>
      <point x="118" y="64"/>
      <point x="185" y="43"/>
      <point x="261" y="43" type="curve"/>
      <point x="408" y="43"/>
      <point x="525" y="99"/>
      <point x="525" y="219" type="curve"/>
      <point x="525" y="322"/>
      <point x="428" y="372"/>
      <point x="319" y="419" type="curve"/>
      <point x="252" y="448"/>
      <point x="191" y="466"/>
      <point x="191" y="522" type="curve"/>
      <point x="191" y="565"/>
      <point x="228" y="587"/>
      <point x="280" y="587" type="curve"/>
      <point x="333" y="587"/>
      <point x="370" y="575"/>
      <point x="417" y="551" type="curve"/>
      <point x="482" y="635"/>
      <point x="417" y="551"/>
      <point x="482" y="635" type="curve"/>
      <point x="417" y="669"/>
      <point x="363" y="687"/>
      <point x="285" y="687" type="curve"/>
      <point x="156" y="687"/>
      <point x="59" y="631"/>
      <point x="59" y="522" type="curve"/>
      <point x="59" y="422"/>
      <point x="137" y="373"/>
      <point x="241" y="328" type="curve"/>
      <point x="315" y="298"/>
      <point x="393" y="277"/>
      <point x="393" y="213" type="curve"/>
      <point x="393" y="162"/>
      <point x="339" y="143"/>
      <point x="274" y="143" type="curve"/>
      <point x="219" y="143"/>
      <point x="173" y="163"/>
      <point x="134" y="181" type="curve"/>
      <point x="63" y="92"/>
      <point x="134" y="182"/>
    </contour>
  </outline>
</glyph>
<glyph name="percent" format="1">
  <advance width="1080"/>
  <unicode hex="0025"/>
  <outline>
    <contour>
      <point x="414" y="-42" type="line"/>
      <point x="795" y="713" type="line"/>
      <point x="675" y="713" type="line"/>
      <point x="294" y="-42" type="line"/>
    </contour>
    <contour>
      <point x="151" y="499" type="curve"/>
      <point x="151" y="569"/>
      <point x="174" y="622"/>
      <point x="238" y="622" type="curve"/>
      <point x="303" y="623"/>
      <point x="327" y="569"/>
      <point x="327" y="497" type="curve"/>
      <point x="327" y="426"/>
      <point x="308" y="369"/>
      <point x="245" y="369" type="curve"/>
      <point x="177" y="369"/>
      <point x="151" y="424"/>
      <point x="151" y="499" type="curve"/>
      <point x="109" y="499"/>
      <point x="80" y="499"/>
      <point x="37" y="499" type="curve"/>
      <point x="37" y="365"/>
      <point x="110" y="276"/>
      <point x="239" y="276" type="curve"/>
      <point x="371" y="276"/>
      <point x="447" y="365"/>
      <point x="447" y="502" type="curve"/>
      <point x="447" y="632"/>
      <point x="372" y="716"/>
      <point x="244" y="715" type="curve"/>
      <point x="113" y="715"/>
      <point x="37" y="631"/>
      <point x="37" y="499" type="curve"/>
      <point x="80" y="499"/>
      <point x="109" y="499"/>
    </contour>
    <contour>
      <point x="747" y="178" type="curve"/>
      <point x="747" y="248"/>
      <point x="771" y="302"/>
      <point x="834" y="302" type="curve"/>
      <point x="900" y="303"/>
      <point x="923" y="248"/>
      <point x="923" y="176" type="curve"/>
      <point x="923" y="106"/>
      <point x="905" y="49"/>
      <point x="842" y="49" type="curve"/>
      <point x="773" y="49"/>
      <point x="747" y="104"/>
      <point x="747" y="178" type="curve"/>
      <point x="705" y="178"/>
      <point x="676" y="178"/>
      <point x="633" y="178" type="curve"/>
      <point x="633" y="44"/>
      <point x="706" y="-44"/>
      <point x="835" y="-44" type="curve"/>
      <point x="968" y="-44"/>
      <point x="1043" y="45"/>
      <point x="1043" y="181" type="curve"/>
      <point x="1043" y="312"/>
      <point x="969" y="395"/>
      <point x="841" y="395" type="curve"/>
      <point x="710" y="395"/>
      <point x="633" y="310"/>
      <point x="633" y="178" type="curve"/>
      <point x="676" y="178"/>
      <point x="705" y="178"/>
    </contour>
  </outline>
</glyph>
<glyph name="quotesingle" format="1">
  <advance width="252"/>
  <unicode hex="0027"/>
  <outline>
    <contour>
      <point x="185" y="616" type="line"/>
      <point x="194" y="834" type="line"/>
      <point x="57" y="834" type="line"/>
      <point x="66" y="616" type="line"/>
    </contour>
  </outline>
</glyph>
<glyph name="parenleft" format="1">
  <advance width="367"/>
  <unicode hex="0028"/>
  <outline>
    <contour>
      <point x="364" y="-207" type="curve"/>
      <point x="221" y="-46"/>
      <point x="170" y="108"/>
      <point x="170" y="326" type="curve"/>
      <point x="170" y="545"/>
      <point x="221" y="698"/>
      <point x="363" y="863" type="curve"/>
      <point x="284" y="928"/>
      <point x="363" y="863"/>
      <point x="284" y="928" type="curve"/>
      <point x="120" y="742"/>
      <point x="42" y="577"/>
      <point x="42" y="326" type="curve"/>
      <point x="42" y="74"/>
      <point x="120" y="-91"/>
      <point x="285" y="-279" type="curve"/>
      <point x="364" y="-207"/>
      <point x="285" y="-279"/>
    </contour>
  </outline>
</glyph>
<glyph name="parenright" format="1">
  <advance width="372"/>
  <unicode hex="0029"/>
  <outline>
    <contour>
      <point x="75" y="-292" type="curve"/>
      <point x="242" y="-97"/>
      <point x="331" y="70"/>
      <point x="331" y="329" type="curve"/>
      <point x="331" y="582"/>
      <point x="249" y="746"/>
      <point x="78" y="931" type="curve"/>
      <point x="1" y="859"/>
      <point x="78" y="931"/>
      <point x="1" y="859" type="curve"/>
      <point x="147" y="697"/>
      <point x="202" y="544"/>
      <point x="202" y="324" type="curve"/>
      <point x="202" y="99"/>
      <point x="139" y="-54"/>
      <point x="-3" y="-227" type="curve"/>
      <point x="75" y="-292"/>
      <point x="-3" y="-227"/>
    </contour>
  </outline>
</glyph>
<glyph name="asterisk" format="1">
  <advance width="551"/>
  <unicode hex="002A"/>
  <outline>
    <contour>
      <point x="317" y="559" type="line"/>
      <point x="324" y="778" type="line"/>
      <point x="227" y="778" type="line"/>
      <point x="233" y="559" type="line"/>
    </contour>
    <contour>
      <point x="294" y="517" type="line"/>
      <point x="502" y="585" type="line"/>
      <point x="468" y="675" type="line"/>
      <point x="265" y="596" type="line"/>
    </contour>
    <contour>
      <point x="246" y="525" type="line"/>
      <point x="380" y="352" type="line"/>
      <point x="455" y="415" type="line"/>
      <point x="311" y="579" type="line"/>
    </contour>
    <contour>
      <point x="241" y="578" type="line"/>
      <point x="98" y="414" type="line"/>
      <point x="171" y="352" type="line"/>
      <point x="305" y="525" type="line"/>
    </contour>
    <contour>
      <point x="286" y="596" type="line"/>
      <point x="83" y="675" type="line"/>
      <point x="50" y="584" type="line"/>
      <point x="257" y="516" type="line"/>
    </contour>
  </outline>
</glyph>
<glyph name="plus" format="1">
  <advance width="633"/>
  <unicode hex="002B"/>
  <outline>
    <contour>
      <point x="41" y="259" type="curve"/>
      <point x="592" y="259" type="line"/>
      <point x="592" y="369"/>
      <point x="592" y="259"/>
      <point x="592" y="369" type="curve"/>
      <point x="41" y="369" type="line"/>
      <point x="41" y="259"/>
      <point x="41" y="369"/>
    </contour>
    <contour>
      <point x="379" y="43" type="curve"/>
      <point x="379" y="582" type="line"/>
      <point x="247" y="582"/>
      <point x="388" y="582"/>
      <point x="256" y="582" type="curve"/>
      <point x="256" y="43" type="line"/>
      <point x="388" y="43"/>
      <point x="247" y="43"/>
    </contour>
  </outline>
</glyph>
<glyph name="hyphen" format="1">
  <advance width="399"/>
  <unicode hex="002D"/>
  <outline>
    <contour>
      <point x="69" y="227" type="curve"/>
      <point x="156" y="227"/>
      <point x="242" y="227"/>
      <point x="329" y="227" type="curve"/>
      <point x="329" y="337"/>
      <point x="329" y="227"/>
      <point x="329" y="337" type="curve"/>
      <point x="242" y="337"/>
      <point x="156" y="337"/>
      <point x="69" y="337" type="curve"/>
      <point x="69" y="227"/>
      <point x="69" y="337"/>
    </contour>
  </outline>
</glyph>
<glyph name="period" format="1">
  <advance width="268"/>
  <unicode hex="002E"/>
  <outline>
    <contour>
      <point x="206" y="56" type="curve"/>
      <point x="206" y="100"/>
      <point x="175" y="122"/>
      <point x="133" y="122" type="curve"/>
      <point x="91" y="122"/>
      <point x="63" y="98"/>
      <point x="63" y="56" type="curve"/>
      <point x="205" y="56"/>
      <point x="64" y="56"/>
      <point x="206" y="56" type="curve"/>
      <point x="206" y="11"/>
      <point x="176" y="-8"/>
      <point x="133" y="-8" type="curve"/>
      <point x="90" y="-8"/>
      <point x="63" y="13"/>
      <point x="63" y="56" type="curve"/>
      <point x="205" y="56"/>
      <point x="64" y="56"/>
    </contour>
  </outline>
</glyph>
<glyph name="slash" format="1">
  <advance width="564"/>
  <unicode hex="002F"/>
  <outline>
    <contour>
      <point x="158" y="-19" type="curve"/>
      <point x="284" y="250"/>
      <point x="412" y="519"/>
      <point x="538" y="789" type="curve"/>
      <point x="407" y="789"/>
      <point x="538" y="789"/>
      <point x="407" y="789" type="curve"/>
      <point x="280" y="519"/>
      <point x="153" y="250"/>
      <point x="27" y="-19" type="curve"/>
      <point x="158" y="-19"/>
      <point x="27" y="-19"/>
    </contour>
  </outline>
</glyph>
<glyph name="one" format="1">
  <advance width="454"/>
  <unicode hex="0031"/>
  <outline>
    <contour>
      <point x="266" y="0" type="curve"/>
      <point x="315" y="0"/>
      <point x="365" y="0"/>
      <point x="415" y="0" type="curve"/>
      <point x="415" y="101"/>
      <point x="415" y="0"/>
      <point x="415" y="101" type="curve"/>
      <point x="266" y="101"/>
      <point x="415" y="101"/>
      <point x="266" y="101" type="curve"/>
      <point x="266" y="0"/>
      <point x="266" y="101"/>
    </contour>
    <contour>
      <point x="266" y="101" type="curve"/>
      <point x="116" y="101"/>
      <point x="266" y="101"/>
      <point x="116" y="101" type="curve"/>
      <point x="116" y="0"/>
      <point x="116" y="101"/>
      <point x="116" y="0" type="curve"/>
      <point x="166" y="0"/>
      <point x="216" y="0"/>
      <point x="266" y="0" type="curve"/>
      <point x="266" y="101"/>
      <point x="266" y="0"/>
    </contour>
    <contour>
      <point x="93" y="481" type="curve"/>
      <point x="295" y="656"/>
      <point x="93" y="481"/>
      <point x="295" y="656" type="curve"/>
      <point x="199" y="722"/>
      <point x="295" y="656"/>
      <point x="199" y="722" type="curve"/>
      <point x="21" y="565"/>
      <point x="199" y="722"/>
      <point x="21" y="565" type="curve"/>
      <point x="93" y="481"/>
      <point x="21" y="565"/>
    </contour>
    <contour>
      <point x="330" y="0" type="curve"/>
      <point x="330" y="241"/>
      <point x="330" y="481"/>
      <point x="330" y="722" type="curve"/>
      <point x="199" y="722"/>
      <point x="330" y="722"/>
      <point x="199" y="722" type="curve"/>
      <point x="199" y="481"/>
      <point x="199" y="241"/>
      <point x="199" y="0" type="curve"/>
      <point x="330" y="0"/>
      <point x="199" y="0"/>
    </contour>
  </outline>
</glyph>
<glyph name="seven" format="1">
  <advance width="529"/>
  <unicode hex="0037"/>
  <outline>
    <contour>
      <point x="160" y="527" type="line"/>
      <point x="160" y="624" type="line"/>
      <point x="57" y="624" type="line"/>
      <point x="57" y="527" type="line"/>
    </contour>
    <contour>
      <point x="57" y="622" type="line"/>
      <point x="508" y="622" type="line"/>
      <point x="508" y="722" type="line"/>
      <point x="57" y="722" type="line"/>
    </contour>
    <contour>
      <point x="432" y="722" type="line"/>
      <point x="61" y="0" type="line"/>
      <point x="199" y="0" type="line"/>
      <point x="508" y="622" type="line"/>
    </contour>
  </outline>
</glyph>
<glyph name="colon" format="1">
  <advance width="281"/>
  <unicode hex="003A"/>
  <outline>
    <contour>
      <point x="212" y="371" type="curve"/>
      <point x="212" y="415"/>
      <point x="182" y="437"/>
      <point x="140" y="437" type="curve"/>
      <point x="97" y="437"/>
      <point x="70" y="414"/>
      <point x="70" y="371" type="curve"/>
      <point x="211" y="371"/>
      <point x="71" y="371"/>
      <point x="212" y="371" type="curve"/>
      <point x="212" y="327"/>
      <point x="182" y="307"/>
      <point x="140" y="307" type="curve"/>
      <point x="97" y="307"/>
      <point x="70" y="328"/>
      <point x="70" y="371" type="curve"/>
      <point x="211" y="371"/>
      <point x="71" y="371"/>
    </contour>
    <contour>
      <point x="212" y="59" type="curve"/>
      <point x="212" y="103"/>
      <point x="181" y="125"/>
      <point x="140" y="125" type="curve"/>
      <point x="97" y="125"/>
      <point x="69" y="101"/>
      <point x="69" y="59" type="curve"/>
      <point x="211" y="59"/>
      <point x="70" y="59"/>
      <point x="212" y="59" type="curve"/>
      <point x="212" y="14"/>
      <point x="182" y="-6"/>
      <point x="139" y="-6" type="curve"/>
      <point x="97" y="-6"/>
      <point x="69" y="16"/>
      <point x="69" y="59" type="curve"/>
      <point x="211" y="59"/>
      <point x="70" y="59"/>
    </contour>
  </outline>
</glyph>
<glyph name="semicolon" format="1">
  <advance width="302"/>
  <unicode hex="003B"/>
  <outline>
    <contour>
      <point x="70" y="-189" type="line"/>
      <point x="169" y="-186"/>
      <point x="236" y="-121"/>
      <point x="236" y="-21" type="curve"/>
      <point x="236" y="58"/>
      <point x="201" y="104"/>
      <point x="151" y="104" type="curve"/>
      <point x="107" y="104"/>
      <point x="76" y="81"/>
      <point x="76" y="39" type="curve"/>
      <point x="76" y="1"/>
      <point x="101" y="-25"/>
      <point x="143" y="-26" type="curve"/>
      <point x="142" y="-58"/>
      <point x="135" y="-106"/>
      <point x="68" y="-119" type="curve"/>
    </contour>
    <contour>
      <point x="221" y="383" type="curve"/>
      <point x="221" y="427"/>
      <point x="190" y="448"/>
      <point x="148" y="448" type="curve"/>
      <point x="106" y="448"/>
      <point x="78" y="425"/>
      <point x="78" y="383" type="curve"/>
      <point x="220" y="383"/>
      <point x="79" y="383"/>
      <point x="221" y="383" type="curve"/>
      <point x="221" y="338"/>
      <point x="191" y="318"/>
      <point x="148" y="318" type="curve"/>
      <point x="105" y="318"/>
      <point x="78" y="340"/>
      <point x="78" y="383" type="curve"/>
      <point x="220" y="383"/>
      <point x="79" y="383"/>
    </contour>
  </outline>
</glyph>
<glyph name="equal" format="1">
  <advance width="709"/>
  <unicode hex="003D"/>
  <outline>
    <contour>
      <point x="74" y="164" type="curve"/>
      <point x="261" y="164"/>
      <point x="448" y="164"/>
      <point x="634" y="164" type="curve"/>
      <point x="634" y="271"/>
      <point x="634" y="164"/>
      <point x="634" y="271" type="curve"/>
      <point x="448" y="271"/>
      <point x="261" y="271"/>
      <point x="74" y="271" type="curve"/>
      <point x="74" y="164"/>
      <point x="74" y="271"/>
    </contour>
    <contour>
      <point x="74" y="386" type="curve"/>
      <point x="261" y="386"/>
      <point x="448" y="386"/>
      <point x="634" y="386" type="curve"/>
      <point x="634" y="493"/>
      <point x="634" y="386"/>
      <point x="634" y="493" type="curve"/>
      <point x="448" y="493"/>
      <point x="261" y="493"/>
      <point x="74" y="493" type="curve"/>
      <point x="74" y="386"/>
      <point x="74" y="493"/>
    </contour>
  </outline>
</glyph>
<glyph name="greater" format="1">
  <advance width="652"/>
  <unicode hex="003E"/>
  <outline>
    <contour>
      <point x="71" y="-19" type="curve"/>
      <point x="252" y="71"/>
      <point x="434" y="161"/>
      <point x="614" y="251" type="curve"/>
      <point x="614" y="361"/>
      <point x="614" y="251"/>
      <point x="614" y="361" type="curve"/>
      <point x="434" y="271"/>
      <point x="252" y="181"/>
      <point x="71" y="91" type="curve"/>
      <point x="71" y="-19"/>
      <point x="71" y="91"/>
    </contour>
    <contour>
      <point x="62" y="515" type="curve"/>
      <point x="246" y="427"/>
      <point x="430" y="339"/>
      <point x="614" y="251" type="curve"/>
      <point x="614" y="361"/>
      <point x="614" y="251"/>
      <point x="614" y="361" type="curve"/>
      <point x="430" y="449"/>
      <point x="246" y="537"/>
      <point x="62" y="625" type="curve"/>
      <point x="62" y="515"/>
      <point x="62" y="625"/>
    </contour>
  </outline>
</glyph>
<glyph name="question" format="1">
  <advance width="523"/>
  <unicode hex="003F"/>
  <outline>
    <contour>
      <point x="180" y="375" type="curve"/>
      <point x="180" y="338"/>
      <point x="180" y="258"/>
      <point x="180" y="221" type="curve"/>
      <point x="303" y="221"/>
      <point x="180" y="221"/>
      <point x="303" y="221" type="curve"/>
      <point x="303" y="258"/>
      <point x="303" y="338"/>
      <point x="303" y="375" type="curve"/>
      <point x="180" y="375"/>
      <point x="303" y="375"/>
    </contour>
    <contour>
      <point x="105" y="581" type="line"/>
      <point x="138" y="617"/>
      <point x="178" y="642"/>
      <point x="231" y="642" type="curve"/>
      <point x="305" y="642"/>
      <point x="351" y="594"/>
      <point x="351" y="518" type="curve"/>
      <point x="351" y="430"/>
      <point x="289" y="375"/>
      <point x="193" y="375" type="curve"/>
      <point x="193" y="338"/>
      <point x="193" y="314"/>
      <point x="193" y="277" type="curve"/>
      <point x="361" y="277"/>
      <point x="475" y="366"/>
      <point x="475" y="518" type="curve"/>
      <point x="475" y="663"/>
      <point x="378" y="747"/>
      <point x="237" y="747" type="curve"/>
      <point x="152" y="747"/>
      <point x="87" y="720"/>
      <point x="36" y="662" type="curve"/>
    </contour>
    <contour>
      <point x="314" y="45" type="curve"/>
      <point x="314" y="89"/>
      <point x="284" y="110"/>
      <point x="241" y="110" type="curve"/>
      <point x="199" y="110"/>
      <point x="172" y="87"/>
      <point x="172" y="45" type="curve"/>
      <point x="314" y="45"/>
      <point x="172" y="45"/>
      <point x="314" y="45" type="curve"/>
      <point x="314" y="0"/>
      <point x="284" y="-20"/>
      <point x="241" y="-20" type="curve"/>
      <point x="199" y="-20"/>
      <point x="172" y="3"/>
      <point x="172" y="45" type="curve"/>
      <point x="314" y="45"/>
      <point x="172" y="45"/>
    </contour>
  </outline>
</glyph>
<glyph name="at" format="1">
  <advance width="820"/>
  <unicode hex="0040"/>
  <outline>
    <contour>
      <point x="543" y="-14" type="curve"/>
      <point x="502" y="-35"/>
      <point x="471" y="-43"/>
      <point x="426" y="-43" type="curve"/>
      <point x="267" y="-43"/>
      <point x="167" y="52"/>
      <point x="167" y="212" type="curve"/>
      <point x="167" y="365"/>
      <point x="264" y="456"/>
      <point x="416" y="456" type="curve"/>
      <point x="561" y="456"/>
      <point x="651" y="363"/>
      <point x="651" y="214" type="curve"/>
      <point x="651" y="162"/>
      <point x="650" y="119"/>
      <point x="622" y="119" type="curve"/>
      <point x="595" y="119"/>
      <point x="590" y="162"/>
      <point x="590" y="217" type="curve"/>
      <point x="590" y="332"/>
      <point x="525" y="408"/>
      <point x="411" y="408" type="curve"/>
      <point x="285" y="408"/>
      <point x="222" y="336"/>
      <point x="222" y="213" type="curve"/>
      <point x="222" y="88"/>
      <point x="279" y="11"/>
      <point x="398" y="11" type="curve"/>
      <point x="506" y="11"/>
      <point x="555" y="85"/>
      <point x="571" y="197" type="curve"/>
      <point x="489" y="218"/>
      <point x="571" y="197"/>
      <point x="489" y="218" type="curve"/>
      <point x="475" y="161"/>
      <point x="468" y="111"/>
      <point x="413" y="111" type="curve"/>
      <point x="363" y="111"/>
      <point x="341" y="155"/>
      <point x="341" y="218" type="curve"/>
      <point x="341" y="270"/>
      <point x="356" y="307"/>
      <point x="403" y="307" type="curve"/>
      <point x="457" y="307"/>
      <point x="471" y="267"/>
      <point x="471" y="211" type="curve"/>
      <point x="471" y="102"/>
      <point x="511" y="23"/>
      <point x="612" y="23" type="curve"/>
      <point x="720" y="23"/>
      <point x="765" y="103"/>
      <point x="765" y="218" type="curve"/>
      <point x="765" y="434"/>
      <point x="634" y="561"/>
      <point x="420" y="561" type="curve"/>
      <point x="190" y="561"/>
      <point x="50" y="433"/>
      <point x="50" y="206" type="curve"/>
      <point x="50" y="-17"/>
      <point x="193" y="-144"/>
      <point x="419" y="-144" type="curve"/>
      <point x="490" y="-144"/>
      <point x="536" y="-131"/>
      <point x="591" y="-99" type="curve"/>
      <point x="543" y="-14"/>
      <point x="591" y="-99"/>
    </contour>
  </outline>
</glyph>
<glyph name="B" format="1">
  <advance width="674"/>
  <unicode hex="0042"/>
  <outline>
    <contour>
      <point x="203" y="722" type="curve"/>
      <point x="156" y="722"/>
      <point x="111" y="722"/>
      <point x="64" y="722" type="curve"/>
      <point x="64" y="622"/>
      <point x="64" y="722"/>
      <point x="64" y="622" type="curve"/>
      <point x="205" y="622"/>
      <point x="62" y="622"/>
      <point x="203" y="622" type="curve"/>
      <point x="203" y="722"/>
      <point x="203" y="622"/>
    </contour>
    <contour>
      <point x="202" y="100" type="curve"/>
      <point x="61" y="100"/>
      <point x="204" y="100"/>
      <point x="63" y="100" type="curve"/>
      <point x="63" y="0"/>
      <point x="63" y="100"/>
      <point x="63" y="0" type="curve"/>
      <point x="110" y="0"/>
      <point x="155" y="0"/>
      <point x="202" y="0" type="curve"/>
      <point x="202" y="100"/>
      <point x="202" y="0"/>
    </contour>
    <contour>
      <point x="194" y="622" type="curve"/>
      <point x="255" y="622"/>
      <point x="303" y="622"/>
      <point x="364" y="622" type="curve"/>
      <point x="422" y="622"/>
      <point x="452" y="590"/>
      <point x="452" y="537" type="curve"/>
      <point x="452" y="483"/>
      <point x="416" y="455"/>
      <point x="360" y="455" type="curve"/>
      <point x="301" y="455"/>
      <point x="254" y="455"/>
      <point x="194" y="455" type="curve"/>
      <point x="194" y="399"/>
      <point x="194" y="409"/>
      <point x="194" y="354" type="curve"/>
      <point x="235" y="354"/>
      <point x="269" y="354"/>
      <point x="311" y="354" type="curve"/>
      <point x="432" y="354"/>
      <point x="582" y="398"/>
      <point x="582" y="532" type="curve"/>
      <point x="582" y="656"/>
      <point x="499" y="722"/>
      <point x="370" y="722" type="curve"/>
      <point x="307" y="722"/>
      <point x="257" y="722"/>
      <point x="194" y="722" type="curve"/>
      <point x="194" y="667"/>
      <point x="194" y="677"/>
    </contour>
    <contour>
      <point x="272" y="0" type="curve"/>
      <point x="272" y="241"/>
      <point x="272" y="481"/>
      <point x="272" y="722" type="curve"/>
      <point x="135" y="722"/>
      <point x="272" y="722"/>
      <point x="135" y="722" type="curve"/>
      <point x="135" y="481"/>
      <point x="135" y="241"/>
      <point x="135" y="0" type="curve"/>
      <point x="272" y="0"/>
      <point x="135" y="0"/>
    </contour>
    <contour>
      <point x="194" y="354" type="curve"/>
      <point x="254" y="354"/>
      <point x="301" y="354"/>
      <point x="360" y="354" type="curve"/>
      <point x="446" y="354"/>
      <point x="494" y="306"/>
      <point x="494" y="224" type="curve"/>
      <point x="494" y="145"/>
      <point x="448" y="100"/>
      <point x="367" y="100" type="curve"/>
      <point x="305" y="100"/>
      <point x="256" y="100"/>
      <point x="194" y="100" type="curve"/>
      <point x="194" y="45"/>
      <point x="194" y="55"/>
      <point x="194" y="0" type="curve"/>
      <point x="258" y="0"/>
      <point x="309" y="0"/>
      <point x="373" y="0" type="curve"/>
      <point x="526" y="0"/>
      <point x="625" y="75"/>
      <point x="625" y="222" type="curve"/>
      <point x="625" y="388"/>
      <point x="468" y="455"/>
      <point x="311" y="455" type="curve"/>
      <point x="269" y="455"/>
      <point x="235" y="455"/>
      <point x="194" y="455" type="curve"/>
      <point x="194" y="399"/>
      <point x="194" y="409"/>
    </contour>
  </outline>
</glyph>
<glyph name="D" format="1">
  <advance width="773"/>
  <unicode hex="0044"/>
  <outline>
    <contour>
      <point x="353" y="786" type="move" name="top"/>
    </contour>
    <contour>
      <point x="205" y="100" type="curve"/>
      <point x="62" y="100"/>
      <point x="207" y="100"/>
      <point x="64" y="100" type="curve"/>
      <point x="64" y="0"/>
      <point x="64" y="100"/>
      <point x="64" y="0" type="curve"/>
      <point x="112" y="0"/>
      <point x="158" y="0"/>
      <point x="205" y="0" type="curve"/>
      <point x="205" y="100"/>
      <point x="205" y="0"/>
    </contour>
    <contour>
      <point x="205" y="722" type="curve"/>
      <point x="158" y="722"/>
      <point x="112" y="722"/>
      <point x="64" y="722" type="curve"/>
      <point x="64" y="622"/>
      <point x="64" y="722"/>
      <point x="64" y="622" type="curve"/>
      <point x="207" y="622"/>
      <point x="62" y="622"/>
      <point x="205" y="622" type="curve"/>
      <point x="205" y="722"/>
      <point x="205" y="622"/>
    </contour>
    <contour>
      <point x="139" y="722" type="curve"/>
      <point x="139" y="481"/>
      <point x="139" y="241"/>
      <point x="139" y="0" type="curve"/>
      <point x="269" y="0"/>
      <point x="139" y="0"/>
      <point x="269" y="0" type="curve"/>
      <point x="269" y="241"/>
      <point x="269" y="481"/>
      <point x="269" y="722" type="curve"/>
      <point x="139" y="722"/>
      <point x="269" y="722"/>
    </contour>
    <contour>
      <point x="205" y="0" type="curve"/>
      <point x="263" y="0"/>
      <point x="319" y="0"/>
      <point x="377" y="0" type="curve"/>
      <point x="604" y="0"/>
      <point x="721" y="125"/>
      <point x="721" y="354" type="curve"/>
      <point x="721" y="590"/>
      <point x="605" y="722"/>
      <point x="373" y="722" type="curve"/>
      <point x="317" y="722"/>
      <point x="262" y="722"/>
      <point x="205" y="722" type="curve"/>
      <point x="205" y="623"/>
      <point x="205" y="721"/>
      <point x="205" y="622" type="curve"/>
      <point x="260" y="622"/>
      <point x="312" y="622"/>
      <point x="367" y="622" type="curve"/>
      <point x="527" y="622"/>
      <point x="590" y="519"/>
      <point x="590" y="351" type="curve"/>
      <point x="590" y="198"/>
      <point x="533" y="100"/>
      <point x="389" y="100" type="curve"/>
      <point x="327" y="100"/>
      <point x="268" y="100"/>
      <point x="205" y="100" type="curve"/>
      <point x="205" y="1"/>
      <point x="205" y="99"/>
    </contour>
  </outline>
</glyph>
<glyph name="E" format="1">
  <advance width="628"/>
  <unicode hex="0045"/>
  <outline>
    <contour>
      <point x="330" y="786" type="move" name="top"/>
    </contour>
    <contour>
      <point x="554" y="6" type="move" name="bottom"/>
    </contour>
    <contour>
      <point x="588" y="50" type="curve"/>
      <point x="588" y="170"/>
      <point x="588" y="49"/>
      <point x="588" y="169" type="curve"/>
      <point x="485" y="169"/>
      <point x="588" y="169"/>
      <point x="485" y="169" type="curve"/>
      <point x="485" y="49"/>
      <point x="485" y="170"/>
      <point x="485" y="50" type="curve"/>
      <point x="588" y="50"/>
      <point x="485" y="50"/>
    </contour>
    <contour>
      <point x="455" y="672" type="curve"/>
      <point x="455" y="552"/>
      <point x="455" y="673"/>
      <point x="455" y="553" type="curve"/>
      <point x="558" y="553"/>
      <point x="455" y="553"/>
      <point x="558" y="553" type="curve"/>
      <point x="558" y="673"/>
      <point x="558" y="552"/>
      <point x="558" y="672" type="curve"/>
      <point x="455" y="672"/>
      <point x="558" y="672"/>
    </contour>
    <contour>
      <point x="205" y="100" type="curve"/>
      <point x="62" y="100"/>
      <point x="207" y="100"/>
      <point x="64" y="100" type="curve"/>
      <point x="64" y="0"/>
      <point x="64" y="100"/>
      <point x="64" y="0" type="curve"/>
      <point x="111" y="0"/>
      <point x="158" y="0"/>
      <point x="205" y="0" type="curve"/>
      <point x="205" y="100"/>
      <point x="205" y="0"/>
    </contour>
    <contour>
      <point x="205" y="722" type="curve"/>
      <point x="158" y="722"/>
      <point x="111" y="722"/>
      <point x="64" y="722" type="curve"/>
      <point x="64" y="622"/>
      <point x="64" y="722"/>
      <point x="64" y="622" type="curve"/>
      <point x="207" y="622"/>
      <point x="62" y="622"/>
      <point x="205" y="622" type="curve"/>
      <point x="205" y="722"/>
      <point x="205" y="622"/>
    </contour>
    <contour>
      <point x="209" y="322" type="curve"/>
      <point x="306" y="322"/>
      <point x="404" y="322"/>
      <point x="501" y="322" type="curve"/>
      <point x="501" y="423"/>
      <point x="501" y="322"/>
      <point x="501" y="423" type="curve"/>
      <point x="404" y="423"/>
      <point x="306" y="423"/>
      <point x="209" y="423" type="curve"/>
      <point x="209" y="322"/>
      <point x="209" y="423"/>
    </contour>
    <contour>
      <point x="195" y="622" type="curve"/>
      <point x="316" y="622"/>
      <point x="436" y="622"/>
      <point x="558" y="622" type="curve"/>
      <point x="558" y="722"/>
      <point x="558" y="622"/>
      <point x="558" y="722" type="curve"/>
      <point x="436" y="722"/>
      <point x="316" y="722"/>
      <point x="195" y="722" type="curve"/>
      <point x="195" y="622"/>
      <point x="195" y="722"/>
    </contour>
    <contour>
      <point x="271" y="0" type="curve"/>
      <point x="271" y="722" type="line"/>
      <point x="139" y="722"/>
      <point x="271" y="722"/>
      <point x="139" y="722" type="curve"/>
      <point x="139" y="481"/>
      <point x="139" y="241"/>
      <point x="139" y="0" type="curve"/>
      <point x="271" y="0"/>
      <point x="139" y="0"/>
    </contour>
    <contour>
      <point x="195" y="0" type="curve"/>
      <point x="326" y="0"/>
      <point x="456" y="0"/>
      <point x="588" y="0" type="curve"/>
      <point x="588" y="100"/>
      <point x="588" y="0"/>
      <point x="588" y="100" type="curve"/>
      <point x="456" y="100"/>
      <point x="326" y="100"/>
      <point x="195" y="100" type="curve"/>
      <point x="195" y="0"/>
      <point x="195" y="100"/>
    </contour>
  </outline>
</glyph>
<glyph name="F" format="1">
  <advance width="590"/>
  <unicode hex="0046"/>
  <outline>
    <contour>
      <point x="204" y="0" type="curve"/>
      <point x="253" y="0"/>
      <point x="204" y="0"/>
      <point x="349" y="0" type="curve"/>
      <point x="349" y="100"/>
      <point x="349" y="0"/>
      <point x="349" y="100" type="curve"/>
      <point x="204" y="100"/>
      <point x="349" y="100"/>
      <point x="204" y="100" type="curve"/>
      <point x="204" y="0"/>
      <point x="204" y="100"/>
    </contour>
    <contour>
      <point x="204" y="722" type="curve"/>
      <point x="157" y="722"/>
      <point x="111" y="722"/>
      <point x="63" y="722" type="curve"/>
      <point x="63" y="622"/>
      <point x="63" y="722"/>
      <point x="63" y="622" type="curve"/>
      <point x="206" y="622"/>
      <point x="61" y="622"/>
      <point x="204" y="622" type="curve"/>
      <point x="204" y="722"/>
      <point x="204" y="622"/>
    </contour>
    <contour>
      <point x="204" y="100" type="curve"/>
      <point x="61" y="100"/>
      <point x="206" y="100"/>
      <point x="63" y="100" type="curve"/>
      <point x="63" y="0"/>
      <point x="63" y="100"/>
      <point x="63" y="0" type="curve"/>
      <point x="111" y="0"/>
      <point x="157" y="0"/>
      <point x="204" y="0" type="curve"/>
      <point x="204" y="100"/>
      <point x="204" y="0"/>
    </contour>
    <contour>
      <point x="458" y="672" type="curve"/>
      <point x="458" y="552"/>
      <point x="458" y="673"/>
      <point x="458" y="553" type="curve"/>
      <point x="561" y="553"/>
      <point x="458" y="553"/>
      <point x="561" y="553" type="curve"/>
      <point x="561" y="673"/>
      <point x="561" y="552"/>
      <point x="561" y="672" type="curve"/>
      <point x="458" y="672"/>
      <point x="561" y="672"/>
    </contour>
    <contour>
      <point x="208" y="322" type="curve"/>
      <point x="304" y="322"/>
      <point x="400" y="322"/>
      <point x="496" y="322" type="curve"/>
      <point x="496" y="423"/>
      <point x="496" y="322"/>
      <point x="496" y="423" type="curve"/>
      <point x="400" y="423"/>
      <point x="304" y="423"/>
      <point x="208" y="423" type="curve"/>
      <point x="208" y="322"/>
      <point x="208" y="423"/>
    </contour>
    <contour>
      <point x="271" y="0" type="curve"/>
      <point x="271" y="722" type="line"/>
      <point x="140" y="722"/>
      <point x="271" y="722"/>
      <point x="140" y="722" type="curve"/>
      <point x="140" y="481"/>
      <point x="140" y="241"/>
      <point x="140" y="0" type="curve"/>
      <point x="271" y="0"/>
      <point x="140" y="0"/>
    </contour>
    <contour>
      <point x="195" y="622" type="curve"/>
      <point x="317" y="622"/>
      <point x="439" y="622"/>
      <point x="561" y="622" type="curve"/>
      <point x="561" y="722"/>
      <point x="561" y="622"/>
      <point x="561" y="722" type="curve"/>
      <point x="439" y="722"/>
      <point x="317" y="722"/>
      <point x="195" y="722" type="curve"/>
      <point x="195" y="622"/>
      <point x="195" y="722"/>
    </contour>
  </outline>
</glyph>
<glyph name="G" format="1">
  <advance width="753"/>
  <unicode hex="0047"/>
  <outline>
    <contour>
      <point x="398" y="786" type="move" name="top"/>
    </contour>
    <contour>
      <point x="447" y="-4" type="move" name="bottom"/>
    </contour>
    <contour>
      <point x="573" y="645" type="curve"/>
      <point x="573" y="512"/>
      <point x="573" y="637"/>
      <point x="573" y="504" type="curve"/>
      <point x="675" y="504"/>
      <point x="573" y="504"/>
      <point x="675" y="504" type="curve"/>
      <point x="675" y="637"/>
      <point x="675" y="512"/>
      <point x="675" y="645" type="curve"/>
      <point x="573" y="645"/>
      <point x="675" y="645"/>
    </contour>
    <contour>
      <point x="655" y="364" type="curve"/>
      <point x="590" y="364"/>
      <point x="524" y="364"/>
      <point x="459" y="364" type="curve"/>
      <point x="459" y="264"/>
      <point x="459" y="364"/>
      <point x="459" y="264" type="curve"/>
      <point x="524" y="264"/>
      <point x="590" y="264"/>
      <point x="655" y="264" type="curve"/>
      <point x="655" y="364"/>
      <point x="655" y="264"/>
    </contour>
    <contour>
      <point x="690" y="79" type="curve"/>
      <point x="690" y="174"/>
      <point x="690" y="269"/>
      <point x="690" y="364" type="curve"/>
      <point x="571" y="364"/>
      <point x="690" y="364"/>
      <point x="571" y="364" type="curve"/>
      <point x="571" y="269"/>
      <point x="571" y="174"/>
      <point x="571" y="79" type="curve"/>
      <point x="690" y="79"/>
      <point x="571" y="79"/>
    </contour>
    <contour>
      <point x="675" y="645" type="curve"/>
      <point x="588" y="702"/>
      <point x="505" y="727"/>
      <point x="401" y="727" type="curve"/>
      <point x="177" y="727"/>
      <point x="52" y="590"/>
      <point x="52" y="361" type="curve"/>
      <point x="52" y="129"/>
      <point x="184" y="-5"/>
      <point x="411" y="-5" type="curve"/>
      <point x="522" y="-5"/>
      <point x="593" y="24"/>
      <point x="690" y="79" type="curve"/>
      <point x="624" y="154"/>
      <point x="690" y="79"/>
      <point x="624" y="154" type="curve"/>
      <point x="553" y="114"/>
      <point x="494" y="101"/>
      <point x="411" y="101" type="curve"/>
      <point x="255" y="101"/>
      <point x="184" y="206"/>
      <point x="184" y="370" type="curve"/>
      <point x="184" y="523"/>
      <point x="255" y="622"/>
      <point x="401" y="622" type="curve"/>
      <point x="480" y="622"/>
      <point x="542" y="602"/>
      <point x="609" y="560" type="curve"/>
      <point x="675" y="645"/>
      <point x="609" y="560"/>
    </contour>
  </outline>
</glyph>
<glyph name="H" format="1">
  <advance width="810"/>
  <unicode hex="0048"/>
  <outline>
    <contour>
      <point x="628" y="622" type="curve"/>
      <point x="779" y="622"/>
      <point x="619" y="622"/>
      <point x="770" y="622" type="curve"/>
      <point x="770" y="722"/>
      <point x="770" y="622"/>
      <point x="770" y="722" type="curve"/>
      <point x="719" y="722"/>
      <point x="678" y="722"/>
      <point x="628" y="722" type="curve"/>
      <point x="628" y="622"/>
      <point x="628" y="722"/>
    </contour>
    <contour>
      <point x="628" y="0" type="curve"/>
      <point x="678" y="0"/>
      <point x="719" y="0"/>
      <point x="770" y="0" type="curve"/>
      <point x="770" y="100"/>
      <point x="770" y="0"/>
      <point x="770" y="100" type="curve"/>
      <point x="619" y="100"/>
      <point x="779" y="100"/>
      <point x="628" y="100" type="curve"/>
      <point x="628" y="0"/>
      <point x="628" y="100"/>
    </contour>
    <contour>
      <point x="628" y="100" type="curve"/>
      <point x="477" y="100"/>
      <point x="637" y="100"/>
      <point x="486" y="100" type="curve"/>
      <point x="486" y="0"/>
      <point x="486" y="100"/>
      <point x="486" y="0" type="curve"/>
      <point x="536" y="0"/>
      <point x="578" y="0"/>
      <point x="628" y="0" type="curve"/>
      <point x="628" y="100"/>
      <point x="628" y="0"/>
    </contour>
    <contour>
      <point x="628" y="722" type="curve"/>
      <point x="578" y="722"/>
      <point x="536" y="722"/>
      <point x="486" y="722" type="curve"/>
      <point x="486" y="622"/>
      <point x="486" y="722"/>
      <point x="486" y="622" type="curve"/>
      <point x="637" y="622"/>
      <point x="477" y="622"/>
      <point x="628" y="622" type="curve"/>
      <point x="628" y="722"/>
      <point x="628" y="622"/>
    </contour>
    <contour>
      <point x="183" y="622" type="curve"/>
      <point x="333" y="622"/>
      <point x="174" y="622"/>
      <point x="325" y="622" type="curve"/>
      <point x="325" y="722"/>
      <point x="325" y="622"/>
      <point x="325" y="722" type="curve"/>
      <point x="275" y="722"/>
      <point x="233" y="722"/>
      <point x="183" y="722" type="curve"/>
      <point x="183" y="622"/>
      <point x="183" y="722"/>
    </contour>
    <contour>
      <point x="183" y="722" type="curve"/>
      <point x="133" y="722"/>
      <point x="91" y="722"/>
      <point x="40" y="722" type="curve"/>
      <point x="40" y="622"/>
      <point x="40" y="722"/>
      <point x="40" y="622" type="curve"/>
      <point x="191" y="622"/>
      <point x="31" y="622"/>
      <point x="183" y="622" type="curve"/>
      <point x="183" y="722"/>
      <point x="183" y="622"/>
    </contour>
    <contour>
      <point x="183" y="0" type="curve"/>
      <point x="233" y="0"/>
      <point x="174" y="0"/>
      <point x="325" y="0" type="curve"/>
      <point x="325" y="100"/>
      <point x="325" y="0"/>
      <point x="325" y="100" type="curve"/>
      <point x="174" y="100"/>
      <point x="333" y="100"/>
      <point x="183" y="100" type="curve"/>
      <point x="183" y="0"/>
      <point x="183" y="100"/>
    </contour>
    <contour>
      <point x="183" y="100" type="curve"/>
      <point x="31" y="100"/>
      <point x="191" y="100"/>
      <point x="40" y="100" type="curve"/>
      <point x="40" y="0"/>
      <point x="40" y="100"/>
      <point x="40" y="0" type="curve"/>
      <point x="91" y="0"/>
      <point x="133" y="0"/>
      <point x="183" y="0" type="curve"/>
      <point x="183" y="100"/>
      <point x="183" y="0"/>
    </contour>
    <contour>
      <point x="249" y="0" type="curve"/>
      <point x="249" y="722" type="line"/>
      <point x="117" y="722"/>
      <point x="249" y="722"/>
      <point x="117" y="722" type="curve"/>
      <point x="117" y="481"/>
      <point x="117" y="241"/>
      <point x="117" y="0" type="curve"/>
      <point x="249" y="0"/>
      <point x="117" y="0"/>
    </contour>
    <contour>
      <point x="625" y="413" type="curve"/>
      <point x="477" y="413"/>
      <point x="330" y="413"/>
      <point x="183" y="413" type="curve"/>
      <point x="183" y="312"/>
      <point x="183" y="413"/>
      <point x="183" y="312" type="curve"/>
      <point x="330" y="312"/>
      <point x="477" y="312"/>
      <point x="625" y="312" type="curve"/>
      <point x="625" y="413"/>
      <point x="625" y="312"/>
    </contour>
    <contour>
      <point x="693" y="42" type="curve"/>
      <point x="693" y="254"/>
      <point x="693" y="468"/>
      <point x="693" y="680" type="curve"/>
      <point x="561" y="680"/>
      <point x="693" y="680"/>
      <point x="561" y="680" type="curve"/>
      <point x="561" y="42" type="line"/>
      <point x="693" y="42"/>
      <point x="561" y="42"/>
    </contour>
  </outline>
</glyph>
<glyph name="J" format="1">
  <advance width="448"/>
  <unicode hex="004A"/>
  <outline>
    <contour>
      <point x="285" y="722" type="curve"/>
      <point x="237" y="722"/>
      <point x="196" y="722"/>
      <point x="147" y="722" type="curve"/>
      <point x="147" y="622"/>
      <point x="147" y="722"/>
      <point x="147" y="622" type="curve"/>
      <point x="294" y="622"/>
      <point x="138" y="622"/>
      <point x="285" y="622" type="curve"/>
      <point x="285" y="722"/>
      <point x="285" y="622"/>
    </contour>
    <contour>
      <point x="285" y="622" type="curve"/>
      <point x="434" y="622"/>
      <point x="277" y="622"/>
      <point x="425" y="622" type="curve"/>
      <point x="425" y="722"/>
      <point x="425" y="622"/>
      <point x="425" y="722" type="curve"/>
      <point x="375" y="722"/>
      <point x="335" y="722"/>
      <point x="285" y="722" type="curve"/>
      <point x="285" y="622"/>
      <point x="285" y="722"/>
    </contour>
    <contour>
      <point x="1" y="44" type="curve"/>
      <point x="31" y="22"/>
      <point x="76" y="-4"/>
      <point x="131" y="-4" type="curve"/>
      <point x="277" y="-4"/>
      <point x="351" y="82"/>
      <point x="351" y="242" type="curve"/>
      <point x="351" y="403"/>
      <point x="351" y="560"/>
      <point x="351" y="722" type="curve"/>
      <point x="221" y="722"/>
      <point x="350" y="722"/>
      <point x="219" y="722" type="curve"/>
      <point x="219" y="560"/>
      <point x="219" y="403"/>
      <point x="219" y="242" type="curve"/>
      <point x="219" y="160"/>
      <point x="203" y="98"/>
      <point x="131" y="98" type="curve"/>
      <point x="102" y="98"/>
      <point x="83" y="110"/>
      <point x="60" y="124" type="curve"/>
      <point x="1" y="45"/>
      <point x="60" y="123"/>
    </contour>
  </outline>
</glyph>
<glyph name="K" format="1">
  <advance width="712"/>
  <unicode hex="004B"/>
  <outline>
    <contour>
      <point x="393" y="-6" type="move" name="bottom"/>
    </contour>
    <contour>
      <point x="547" y="722" type="curve"/>
      <point x="495" y="722"/>
      <point x="421" y="722"/>
      <point x="370" y="722" type="curve"/>
      <point x="370" y="622"/>
      <point x="370" y="722"/>
      <point x="370" y="622" type="curve"/>
      <point x="523" y="622"/>
      <point x="393" y="622"/>
      <point x="547" y="622" type="curve"/>
      <point x="547" y="722"/>
      <point x="547" y="622"/>
    </contour>
    <contour>
      <point x="549" y="0" type="curve"/>
      <point x="612" y="0"/>
      <point x="621" y="0"/>
      <point x="684" y="0" type="curve"/>
      <point x="684" y="100"/>
      <point x="684" y="0"/>
      <point x="684" y="100" type="curve"/>
      <point x="496" y="100"/>
      <point x="737" y="100"/>
      <point x="549" y="100" type="curve"/>
      <point x="549" y="0"/>
      <point x="549" y="100"/>
    </contour>
    <contour>
      <point x="528" y="622" type="curve"/>
      <point x="676" y="622"/>
      <point x="504" y="622"/>
      <point x="653" y="622" type="curve"/>
      <point x="653" y="722"/>
      <point x="653" y="622"/>
      <point x="653" y="722" type="curve"/>
      <point x="603" y="722"/>
      <point x="578" y="722"/>
      <point x="528" y="722" type="curve"/>
      <point x="528" y="622"/>
      <point x="528" y="722"/>
    </contour>
    <contour>
      <point x="180" y="722" type="curve"/>
      <point x="130" y="722"/>
      <point x="90" y="722"/>
      <point x="40" y="722" type="curve"/>
      <point x="40" y="622"/>
      <point x="40" y="722"/>
      <point x="40" y="622" type="curve"/>
      <point x="189" y="622"/>
      <point x="31" y="622"/>
      <point x="180" y="622" type="curve"/>
      <point x="180" y="722"/>
      <point x="180" y="622"/>
    </contour>
    <contour>
      <point x="180" y="622" type="curve"/>
      <point x="326" y="622"/>
      <point x="150" y="622"/>
      <point x="296" y="622" type="curve"/>
      <point x="296" y="722"/>
      <point x="296" y="622"/>
      <point x="296" y="722" type="curve"/>
      <point x="247" y="722"/>
      <point x="229" y="722"/>
      <point x="180" y="722" type="curve"/>
      <point x="180" y="622"/>
      <point x="180" y="722"/>
    </contour>
    <contour>
      <point x="180" y="0" type="curve"/>
      <point x="233" y="0"/>
      <point x="146" y="0"/>
      <point x="307" y="0" type="curve"/>
      <point x="307" y="100"/>
      <point x="307" y="0"/>
      <point x="307" y="100" type="curve"/>
      <point x="146" y="100"/>
      <point x="340" y="100"/>
      <point x="180" y="100" type="curve"/>
      <point x="180" y="0"/>
      <point x="180" y="100"/>
    </contour>
    <contour>
      <point x="180" y="100" type="curve"/>
      <point x="31" y="100"/>
      <point x="189" y="100"/>
      <point x="40" y="100" type="curve"/>
      <point x="40" y="0"/>
      <point x="40" y="100"/>
      <point x="40" y="0" type="curve"/>
      <point x="90" y="0"/>
      <point x="130" y="0"/>
      <point x="180" y="0" type="curve"/>
      <point x="180" y="100"/>
      <point x="180" y="0"/>
    </contour>
    <contour>
      <point x="513" y="722" type="curve"/>
      <point x="222" y="380" type="line"/>
      <point x="371" y="380"/>
      <point x="221" y="380"/>
      <point x="370" y="380" type="curve"/>
      <point x="615" y="670" type="line"/>
      <point x="492" y="670"/>
      <point x="636" y="722"/>
    </contour>
    <contour>
      <point x="246" y="0" type="curve"/>
      <point x="246" y="722" type="line"/>
      <point x="114" y="722"/>
      <point x="246" y="722"/>
      <point x="114" y="722" type="curve"/>
      <point x="114" y="481"/>
      <point x="114" y="241"/>
      <point x="114" y="0" type="curve"/>
      <point x="246" y="0"/>
      <point x="114" y="0"/>
    </contour>
    <contour>
      <point x="647" y="45" type="curve"/>
      <point x="370" y="380" type="line"/>
      <point x="221" y="380"/>
      <point x="371" y="380"/>
      <point x="222" y="380" type="curve"/>
      <point x="532" y="0" type="line"/>
      <point x="668" y="0"/>
      <point x="512" y="45"/>
    </contour>
  </outline>
</glyph>
<glyph name="O" format="1">
  <advance width="747"/>
  <unicode hex="004F"/>
  <outline>
    <contour>
      <point x="375" y="786" type="move" name="top"/>
    </contour>
    <contour>
      <point x="184" y="360" type="curve"/>
      <point x="184" y="508"/>
      <point x="231" y="622"/>
      <point x="370" y="622" type="curve"/>
      <point x="506" y="622"/>
      <point x="563" y="511"/>
      <point x="563" y="363" type="curve"/>
      <point x="563" y="215"/>
      <point x="514" y="100"/>
      <point x="377" y="100" type="curve"/>
      <point x="239" y="100"/>
      <point x="184" y="211"/>
      <point x="184" y="360" type="curve"/>
      <point x="52" y="360"/>
      <point x="184" y="360"/>
      <point x="52" y="360" type="curve"/>
      <point x="52" y="143"/>
      <point x="164" y="-5"/>
      <point x="371" y="-5" type="curve"/>
      <point x="581" y="-5"/>
      <point x="695" y="145"/>
      <point x="695" y="363" type="curve"/>
      <point x="695" y="578"/>
      <point x="584" y="727"/>
      <point x="377" y="727" type="curve"/>
      <point x="167" y="727"/>
      <point x="52" y="577"/>
      <point x="52" y="360" type="curve"/>
      <point x="184" y="360"/>
      <point x="52" y="360"/>
    </contour>
  </outline>
</glyph>
<glyph name="P" format="1">
  <advance width="630"/>
  <unicode hex="0050"/>
  <outline>
    <contour>
      <point x="205" y="722" type="curve"/>
      <point x="157" y="722"/>
      <point x="112" y="722"/>
      <point x="63" y="722" type="curve"/>
      <point x="63" y="622"/>
      <point x="63" y="722"/>
      <point x="63" y="622" type="curve"/>
      <point x="206" y="622"/>
      <point x="61" y="622"/>
      <point x="205" y="622" type="curve"/>
      <point x="205" y="722"/>
      <point x="205" y="622"/>
    </contour>
    <contour>
      <point x="205" y="100" type="curve"/>
      <point x="61" y="100"/>
      <point x="206" y="100"/>
      <point x="63" y="100" type="curve"/>
      <point x="63" y="0"/>
      <point x="63" y="100"/>
      <point x="63" y="0" type="curve"/>
      <point x="112" y="0"/>
      <point x="157" y="0"/>
      <point x="205" y="0" type="curve"/>
      <point x="205" y="100"/>
      <point x="205" y="0"/>
    </contour>
    <contour>
      <point x="205" y="0" type="curve"/>
      <point x="253" y="0"/>
      <point x="203" y="0"/>
      <point x="347" y="0" type="curve"/>
      <point x="347" y="100"/>
      <point x="347" y="0"/>
      <point x="347" y="100" type="curve"/>
      <point x="203" y="100"/>
      <point x="349" y="100"/>
      <point x="205" y="100" type="curve"/>
      <point x="205" y="0"/>
      <point x="205" y="100"/>
    </contour>
    <contour>
      <point x="186" y="299" type="curve"/>
      <point x="240" y="270"/>
      <point x="301" y="253"/>
      <point x="366" y="253" type="curve"/>
      <point x="504" y="256"/>
      <point x="594" y="333"/>
      <point x="594" y="479" type="curve"/>
      <point x="594" y="632"/>
      <point x="485" y="722"/>
      <point x="330" y="722" type="curve"/>
      <point x="289" y="722"/>
      <point x="248" y="722"/>
      <point x="208" y="722" type="curve"/>
      <point x="208" y="622"/>
      <point x="208" y="722"/>
      <point x="208" y="622" type="curve"/>
      <point x="243" y="622"/>
      <point x="277" y="622"/>
      <point x="312" y="622" type="curve"/>
      <point x="403" y="622"/>
      <point x="462" y="569"/>
      <point x="462" y="483" type="curve"/>
      <point x="462" y="403"/>
      <point x="422" y="351"/>
      <point x="350" y="351" type="curve"/>
      <point x="302" y="351"/>
      <point x="269" y="362"/>
      <point x="227" y="384" type="curve"/>
      <point x="187" y="301"/>
      <point x="227" y="384"/>
    </contour>
    <contour>
      <point x="270" y="0" type="curve"/>
      <point x="270" y="241"/>
      <point x="270" y="481"/>
      <point x="270" y="722" type="curve"/>
      <point x="139" y="722"/>
      <point x="270" y="722"/>
      <point x="139" y="722" type="curve"/>
      <point x="139" y="481"/>
      <point x="139" y="241"/>
      <point x="139" y="0" type="curve"/>
      <point x="270" y="0"/>
      <point x="139" y="0"/>
    </contour>
  </outline>
</glyph>
<glyph name="T" format="1">
  <advance width="605"/>
  <unicode hex="0054"/>
  <outline>
    <contour>
      <point x="301" y="786" type="move" name="top"/>
    </contour>
    <contour>
      <point x="353" y="-6" type="move" name="bottom"/>
    </contour>
    <contour>
      <point x="26" y="671" type="curve"/>
      <point x="26" y="551"/>
      <point x="26" y="672"/>
      <point x="26" y="552" type="curve"/>
      <point x="127" y="552"/>
      <point x="26" y="552"/>
      <point x="127" y="552" type="curve"/>
      <point x="127" y="672"/>
      <point x="127" y="551"/>
      <point x="127" y="671" type="curve"/>
      <point x="26" y="671"/>
      <point x="127" y="671"/>
    </contour>
    <contour>
      <point x="477" y="671" type="curve"/>
      <point x="477" y="551"/>
      <point x="477" y="672"/>
      <point x="477" y="552" type="curve"/>
      <point x="580" y="552"/>
      <point x="477" y="552"/>
      <point x="580" y="552" type="curve"/>
      <point x="580" y="672"/>
      <point x="580" y="551"/>
      <point x="580" y="671" type="curve"/>
      <point x="477" y="671"/>
      <point x="580" y="671"/>
    </contour>
    <contour>
      <point x="302" y="0" type="curve"/>
      <point x="349" y="0"/>
      <point x="396" y="0"/>
      <point x="443" y="0" type="curve"/>
      <point x="443" y="100"/>
      <point x="443" y="0"/>
      <point x="443" y="100" type="curve"/>
      <point x="301" y="100"/>
      <point x="444" y="100"/>
      <point x="302" y="100" type="curve"/>
      <point x="302" y="0"/>
      <point x="302" y="100"/>
    </contour>
    <contour>
      <point x="302" y="100" type="curve"/>
      <point x="158" y="100"/>
      <point x="302" y="100"/>
      <point x="159" y="100" type="curve"/>
      <point x="159" y="0"/>
      <point x="159" y="100"/>
      <point x="159" y="0" type="curve"/>
      <point x="207" y="0"/>
      <point x="254" y="0"/>
      <point x="302" y="0" type="curve"/>
      <point x="302" y="100"/>
      <point x="302" y="0"/>
    </contour>
    <contour>
      <point x="368" y="0" type="curve"/>
      <point x="368" y="237"/>
      <point x="368" y="473"/>
      <point x="368" y="710" type="curve"/>
      <point x="237" y="710"/>
      <point x="368" y="710"/>
      <point x="237" y="710" type="curve"/>
      <point x="237" y="473"/>
      <point x="237" y="237"/>
      <point x="237" y="0" type="curve"/>
      <point x="368" y="0"/>
      <point x="237" y="0"/>
    </contour>
    <contour>
      <point x="26" y="616" type="curve"/>
      <point x="210" y="616"/>
      <point x="394" y="616"/>
      <point x="580" y="616" type="curve"/>
      <point x="580" y="726"/>
      <point x="580" y="611"/>
      <point x="580" y="722" type="curve"/>
      <point x="394" y="722"/>
      <point x="210" y="722"/>
      <point x="26" y="722" type="curve"/>
      <point x="26" y="611"/>
      <point x="26" y="726"/>
    </contour>
  </outline>
</glyph>
<glyph name="X" format="1">
  <advance width="686"/>
  <unicode hex="0058"/>
  <outline>
    <contour>
      <point x="159" y="0" type="curve"/>
      <point x="206" y="0"/>
      <point x="158" y="0"/>
      <point x="301" y="0" type="curve"/>
      <point x="301" y="100"/>
      <point x="301" y="0"/>
      <point x="301" y="100" type="curve"/>
      <point x="158" y="100"/>
      <point x="302" y="100"/>
      <point x="159" y="100" type="curve"/>
      <point x="159" y="0"/>
      <point x="159" y="100"/>
    </contour>
    <contour>
      <point x="146" y="100" type="curve"/>
      <point x="14" y="100"/>
      <point x="147" y="100"/>
      <point x="14" y="100" type="curve"/>
      <point x="14" y="0"/>
      <point x="14" y="100"/>
      <point x="14" y="0" type="curve"/>
      <point x="58" y="0"/>
      <point x="102" y="0"/>
      <point x="146" y="0" type="curve"/>
      <point x="146" y="100"/>
      <point x="146" y="0"/>
    </contour>
    <contour>
      <point x="538" y="0" type="curve"/>
      <point x="582" y="0"/>
      <point x="625" y="0"/>
      <point x="669" y="0" type="curve"/>
      <point x="669" y="100"/>
      <point x="669" y="0"/>
      <point x="669" y="100" type="curve"/>
      <point x="537" y="100"/>
      <point x="670" y="100"/>
      <point x="538" y="100" type="curve"/>
      <point x="538" y="0"/>
      <point x="538" y="100"/>
    </contour>
    <contour>
      <point x="525" y="100" type="curve"/>
      <point x="381" y="100"/>
      <point x="526" y="100"/>
      <point x="382" y="100" type="curve"/>
      <point x="382" y="0"/>
      <point x="382" y="100"/>
      <point x="382" y="0" type="curve"/>
      <point x="429" y="0"/>
      <point x="477" y="0"/>
      <point x="525" y="0" type="curve"/>
      <point x="525" y="100"/>
      <point x="525" y="0"/>
    </contour>
    <contour>
      <point x="517" y="622" type="curve"/>
      <point x="650" y="622"/>
      <point x="516" y="622"/>
      <point x="649" y="622" type="curve"/>
      <point x="649" y="722"/>
      <point x="649" y="622"/>
      <point x="649" y="722" type="curve"/>
      <point x="605" y="722"/>
      <point x="561" y="722"/>
      <point x="517" y="722" type="curve"/>
      <point x="517" y="622"/>
      <point x="517" y="722"/>
    </contour>
    <contour>
      <point x="527" y="722" type="curve"/>
      <point x="477" y="722"/>
      <point x="427" y="722"/>
      <point x="377" y="722" type="curve"/>
      <point x="377" y="622"/>
      <point x="377" y="722"/>
      <point x="377" y="622" type="curve"/>
      <point x="528" y="622"/>
      <point x="376" y="622"/>
      <point x="527" y="622" type="curve"/>
      <point x="527" y="722"/>
      <point x="527" y="622"/>
    </contour>
    <contour>
      <point x="171" y="722" type="curve"/>
      <point x="128" y="722"/>
      <point x="84" y="722"/>
      <point x="40" y="722" type="curve"/>
      <point x="40" y="622"/>
      <point x="40" y="722"/>
      <point x="40" y="622" type="curve"/>
      <point x="172" y="622"/>
      <point x="39" y="622"/>
      <point x="171" y="622" type="curve"/>
      <point x="171" y="722"/>
      <point x="171" y="622"/>
    </contour>
    <contour>
      <point x="161" y="622" type="curve"/>
      <point x="312" y="622"/>
      <point x="161" y="622"/>
      <point x="311" y="622" type="curve"/>
      <point x="311" y="722"/>
      <point x="311" y="622"/>
      <point x="311" y="722" type="curve"/>
      <point x="261" y="722"/>
      <point x="212" y="722"/>
      <point x="161" y="722" type="curve"/>
      <point x="161" y="622"/>
      <point x="161" y="722"/>
    </contour>
    <contour>
      <point x="490" y="722" type="curve"/>
      <point x="345" y="484"/>
      <point x="199" y="249"/>
      <point x="54" y="12" type="curve"/>
      <point x="183" y="12"/>
      <point x="54" y="0"/>
      <point x="183" y="0" type="curve"/>
      <point x="328" y="238"/>
      <point x="471" y="475"/>
      <point x="616" y="712" type="curve"/>
      <point x="490" y="712"/>
      <point x="616" y="722"/>
    </contour>
    <contour>
      <point x="75" y="712" type="curve"/>
      <point x="219" y="475"/>
      <point x="361" y="238"/>
      <point x="504" y="0" type="curve"/>
      <point x="633" y="0"/>
      <point x="504" y="8"/>
      <point x="633" y="8" type="curve"/>
      <point x="488" y="246"/>
      <point x="343" y="484"/>
      <point x="198" y="722" type="curve"/>
      <point x="75" y="722"/>
      <point x="198" y="712"/>
    </contour>
  </outline>
</glyph>
<glyph name="Z" format="1">
  <advance width="664"/>
  <unicode hex="005A"/>
  <outline>
    <contour>
      <point x="330" y="786" type="move" name="top"/>
    </contour>
    <contour>
      <point x="65" y="672" type="curve"/>
      <point x="65" y="552"/>
      <point x="65" y="673"/>
      <point x="65" y="553" type="curve"/>
      <point x="168" y="553"/>
      <point x="65" y="553"/>
      <point x="168" y="553" type="curve"/>
      <point x="168" y="673"/>
      <point x="168" y="552"/>
      <point x="168" y="672" type="curve"/>
      <point x="65" y="672"/>
      <point x="168" y="672"/>
    </contour>
    <contour>
      <point x="616" y="50" type="curve"/>
      <point x="616" y="170"/>
      <point x="616" y="49"/>
      <point x="616" y="169" type="curve"/>
      <point x="513" y="169"/>
      <point x="616" y="169"/>
      <point x="513" y="169" type="curve"/>
      <point x="513" y="49"/>
      <point x="513" y="170"/>
      <point x="513" y="50" type="curve"/>
      <point x="616" y="50"/>
      <point x="513" y="50"/>
    </contour>
    <contour>
      <point x="65" y="622" type="curve"/>
      <point x="209" y="622"/>
      <point x="400" y="622"/>
      <point x="544" y="622" type="curve"/>
      <point x="533" y="632"/>
      <point x="515" y="629"/>
      <point x="505" y="639" type="curve"/>
      <point x="496" y="648"/>
      <point x="497" y="663"/>
      <point x="488" y="673" type="curve"/>
      <point x="482" y="664"/>
      <point x="467" y="672"/>
      <point x="461" y="663" type="curve"/>
      <point x="34" y="100" type="line"/>
      <point x="34" y="49"/>
      <point x="34" y="100"/>
      <point x="34" y="49" type="curve"/>
      <point x="34" y="0"/>
      <point x="34" y="49"/>
      <point x="34" y="0" type="curve"/>
      <point x="82" y="0"/>
      <point x="34" y="0"/>
      <point x="82" y="0" type="curve"/>
      <point x="596" y="0"/>
      <point x="444" y="0"/>
      <point x="616" y="0" type="curve"/>
      <point x="616" y="100"/>
      <point x="616" y="0"/>
      <point x="616" y="100" type="curve"/>
      <point x="444" y="100"/>
      <point x="253" y="100"/>
      <point x="82" y="100" type="curve"/>
      <point x="92" y="93"/>
      <point x="106" y="93"/>
      <point x="116" y="85" type="curve"/>
      <point x="125" y="76"/>
      <point x="126" y="60"/>
      <point x="136" y="49" type="curve"/>
      <point x="144" y="59"/>
      <point x="161" y="50"/>
      <point x="168" y="59" type="curve"/>
      <point x="599" y="622" type="line"/>
      <point x="599" y="673"/>
      <point x="599" y="622"/>
      <point x="599" y="673" type="curve"/>
      <point x="599" y="722"/>
      <point x="599" y="673"/>
      <point x="599" y="722" type="curve"/>
      <point x="539" y="722"/>
      <point x="599" y="722"/>
      <point x="539" y="722" type="curve"/>
      <point x="396" y="722"/>
      <point x="208" y="722"/>
      <point x="65" y="722" type="curve"/>
      <point x="65" y="622"/>
      <point x="65" y="722"/>
    </contour>
  </outline>
</glyph>
<glyph name="backslash" format="1">
  <advance width="542"/>
  <unicode hex="005C"/>
  <outline>
    <contour>
      <point x="515" y="-68" type="curve"/>
      <point x="398" y="236"/>
      <point x="282" y="540"/>
      <point x="165" y="844" type="curve"/>
      <point x="28" y="844"/>
      <point x="165" y="844"/>
      <point x="28" y="844" type="curve"/>
      <point x="145" y="540"/>
      <point x="261" y="236"/>
      <point x="378" y="-68" type="curve"/>
      <point x="515" y="-68"/>
      <point x="378" y="-68"/>
    </contour>
  </outline>
</glyph>
<glyph name="asciicircum" format="1">
  <advance width="539"/>
  <unicode hex="005E"/>
  <outline>
    <contour>
      <point x="179" y="455" type="curve"/>
      <point x="231" y="557"/>
      <point x="283" y="659"/>
      <point x="334" y="761" type="curve"/>
      <point x="204" y="761"/>
      <point x="334" y="761"/>
      <point x="204" y="761" type="curve"/>
      <point x="151" y="659"/>
      <point x="99" y="557"/>
      <point x="48" y="455" type="curve"/>
      <point x="179" y="455"/>
      <point x="48" y="455"/>
    </contour>
    <contour>
      <point x="491" y="455" type="curve"/>
      <point x="440" y="555"/>
      <point x="386" y="659"/>
      <point x="334" y="761" type="curve"/>
      <point x="204" y="761"/>
      <point x="334" y="761"/>
      <point x="204" y="761" type="curve"/>
      <point x="254" y="659"/>
      <point x="309" y="555"/>
      <point x="360" y="455" type="curve"/>
      <point x="491" y="455"/>
      <point x="360" y="455"/>
    </contour>
  </outline>
</glyph>
<glyph name="underscore" format="1">
  <advance width="608"/>
  <unicode hex="005F"/>
  <outline>
    <contour>
      <point x="0" y="-186" type="curve"/>
      <point x="202" y="-186"/>
      <point x="406" y="-186"/>
      <point x="608" y="-186" type="curve"/>
      <point x="608" y="-86"/>
      <point x="608" y="-186"/>
      <point x="608" y="-86" type="curve"/>
      <point x="406" y="-86"/>
      <point x="202" y="-86"/>
      <point x="0" y="-86" type="curve"/>
      <point x="0" y="-186"/>
      <point x="0" y="-86"/>
    </contour>
  </outline>
</glyph>
<glyph name="grave" format="1">
  <advance width="362"/>
  <unicode hex="0060"/>
  <outline>
    <contour>
      <point x="254" y="577" type="move" name="_top"/>
    </contour>
    <contour>
      <point x="320" y="577" type="line"/>
      <point x="219" y="743" type="line"/>
      <point x="55" y="743" type="line"/>
      <point x="194" y="577" type="line"/>
    </contour>
  </outline>
</glyph>
<glyph name="b" format="1">
  <advance width="654"/>
  <unicode hex="0062"/>
  <outline>
    <contour>
      <point x="173" y="800" type="curve"/>
      <point x="123" y="800"/>
      <point x="81" y="800"/>
      <point x="31" y="800" type="curve"/>
      <point x="30" y="716"/>
      <point x="31" y="784"/>
      <point x="30" y="700" type="curve"/>
      <point x="151" y="699"/>
      <point x="53" y="700"/>
      <point x="173" y="699" type="curve"/>
      <point x="173" y="784"/>
      <point x="173" y="716"/>
    </contour>
    <contour>
      <point x="204" y="346" type="curve"/>
      <point x="236" y="388"/>
      <point x="286" y="434"/>
      <point x="357" y="434" type="curve"/>
      <point x="444" y="434"/>
      <point x="479" y="359"/>
      <point x="479" y="263" type="curve"/>
      <point x="479" y="170"/>
      <point x="442" y="99"/>
      <point x="358" y="99" type="curve"/>
      <point x="297" y="99"/>
      <point x="250" y="128"/>
      <point x="214" y="171" type="curve"/>
      <point x="157" y="132"/>
      <point x="200" y="161"/>
      <point x="143" y="123" type="curve"/>
      <point x="202" y="48"/>
      <point x="268" y="-5"/>
      <point x="375" y="-5" type="curve"/>
      <point x="523" y="-5"/>
      <point x="610" y="105"/>
      <point x="610" y="266" type="curve"/>
      <point x="610" y="427"/>
      <point x="524" y="538"/>
      <point x="376" y="538" type="curve"/>
      <point x="268" y="538"/>
      <point x="200" y="472"/>
      <point x="148" y="399" type="curve"/>
      <point x="195" y="360"/>
      <point x="157" y="386"/>
    </contour>
    <contour>
      <point x="237" y="0" type="curve"/>
      <point x="237" y="277"/>
      <point x="237" y="523"/>
      <point x="237" y="800" type="curve"/>
      <point x="129" y="800"/>
      <point x="214" y="800"/>
      <point x="105" y="800" type="curve"/>
      <point x="105" y="523"/>
      <point x="105" y="277"/>
      <point x="105" y="0" type="curve"/>
      <point x="214" y="0"/>
      <point x="129" y="0"/>
    </contour>
    <contour>
      <point x="173" y="100" type="curve"/>
      <point x="54" y="100"/>
      <point x="151" y="100"/>
      <point x="31" y="100" type="curve"/>
      <point x="31" y="16"/>
      <point x="31" y="84"/>
      <point x="31" y="0" type="curve"/>
      <point x="81" y="0"/>
      <point x="124" y="0"/>
      <point x="173" y="0" type="curve"/>
      <point x="173" y="84"/>
      <point x="173" y="16"/>
    </contour>
  </outline>
</glyph>
<glyph name="c" format="1">
  <advance width="536"/>
  <unicode hex="0063"/>
  <outline>
    <contour>
      <point x="295" y="618" type="move" name="top"/>
    </contour>
    <contour>
      <point x="326" y="6" type="move" name="bottom"/>
    </contour>
    <contour>
      <point x="382" y="470" type="curve"/>
      <point x="382" y="339"/>
      <point x="382" y="470"/>
      <point x="382" y="340" type="curve"/>
      <point x="485" y="340"/>
      <point x="382" y="340"/>
      <point x="485" y="340" type="curve"/>
      <point x="485" y="470"/>
      <point x="485" y="339"/>
      <point x="485" y="470" type="curve"/>
      <point x="382" y="470"/>
      <point x="485" y="470"/>
    </contour>
    <contour>
      <point x="485" y="470" type="curve"/>
      <point x="437" y="509"/>
      <point x="373" y="538"/>
      <point x="307" y="538" type="curve"/>
      <point x="139" y="538"/>
      <point x="42" y="441"/>
      <point x="42" y="267" type="curve"/>
      <point x="42" y="94"/>
      <point x="136" y="-5"/>
      <point x="304" y="-5" type="curve"/>
      <point x="379" y="-5"/>
      <point x="450" y="24"/>
      <point x="493" y="88" type="curve"/>
      <point x="410" y="155"/>
      <point x="493" y="88"/>
      <point x="410" y="155" type="curve"/>
      <point x="384" y="126"/>
      <point x="350" y="99"/>
      <point x="310" y="99" type="curve"/>
      <point x="215" y="99"/>
      <point x="174" y="164"/>
      <point x="174" y="267" type="curve"/>
      <point x="174" y="369"/>
      <point x="212" y="434"/>
      <point x="305" y="434" type="curve"/>
      <point x="342" y="434"/>
      <point x="379" y="420"/>
      <point x="408" y="400" type="curve"/>
      <point x="485" y="470"/>
      <point x="408" y="400"/>
    </contour>
  </outline>
</glyph>
<glyph name="g" format="1">
  <advance width="556"/>
  <unicode hex="0067"/>
  <outline>
    <contour>
      <point x="284" y="618" type="move" name="top"/>
    </contour>
    <contour>
      <point x="393" y="438" type="curve"/>
      <point x="532" y="503" type="line"/>
      <point x="531" y="504"/>
      <point x="482" y="595"/>
      <point x="480" y="597" type="curve"/>
      <point x="323" y="515" type="line"/>
      <point x="393" y="438"/>
      <point x="323" y="515"/>
    </contour>
    <contour>
      <point x="197" y="339" type="curve"/>
      <point x="197" y="397"/>
      <point x="231" y="438"/>
      <point x="288" y="438" type="curve"/>
      <point x="346" y="438"/>
      <point x="376" y="396"/>
      <point x="376" y="338" type="curve"/>
      <point x="376" y="284"/>
      <point x="345" y="246"/>
      <point x="289" y="246" type="curve"/>
      <point x="234" y="246"/>
      <point x="197" y="281"/>
      <point x="197" y="339" type="curve"/>
      <point x="66" y="334"/>
      <point x="197" y="339"/>
      <point x="66" y="334" type="curve"/>
      <point x="66" y="215"/>
      <point x="156" y="146"/>
      <point x="281" y="146" type="curve"/>
      <point x="410" y="146"/>
      <point x="506" y="217"/>
      <point x="506" y="342" type="curve"/>
      <point x="506" y="464"/>
      <point x="415" y="538"/>
      <point x="288" y="538" type="curve"/>
      <point x="157" y="538"/>
      <point x="66" y="460"/>
      <point x="66" y="334" type="curve"/>
      <point x="197" y="339"/>
      <point x="66" y="334"/>
    </contour>
    <contour>
      <point x="168" y="244" type="curve"/>
      <point x="111" y="214"/>
      <point x="69" y="176"/>
      <point x="69" y="112" type="curve"/>
      <point x="69" y="13"/>
      <point x="163" y="-21"/>
      <point x="272" y="-31" type="curve"/>
      <point x="351" y="-38"/>
      <point x="428" y="-49"/>
      <point x="428" y="-121" type="curve"/>
      <point x="428" y="-184"/>
      <point x="362" y="-205"/>
      <point x="288" y="-205" type="curve"/>
      <point x="219" y="-205"/>
      <point x="162" y="-174"/>
      <point x="162" y="-107" type="curve"/>
      <point x="162" y="-53"/>
      <point x="185" y="-14"/>
      <point x="229" y="4" type="curve"/>
      <point x="163" y="64"/>
      <point x="229" y="4"/>
      <point x="163" y="64" type="curve"/>
      <point x="85" y="32"/>
      <point x="31" y="-22"/>
      <point x="31" y="-112" type="curve"/>
      <point x="31" y="-244"/>
      <point x="142" y="-305"/>
      <point x="283" y="-305" type="curve"/>
      <point x="428" y="-305"/>
      <point x="550" y="-249"/>
      <point x="548" y="-112" type="curve"/>
      <point x="548" y="17"/>
      <point x="429" y="53"/>
      <point x="295" y="64" type="curve"/>
      <point x="246" y="68"/>
      <point x="200" y="81"/>
      <point x="200" y="122" type="curve"/>
      <point x="200" y="149"/>
      <point x="211" y="165"/>
      <point x="234" y="180" type="curve"/>
      <point x="168" y="244"/>
      <point x="234" y="180"/>
    </contour>
  </outline>
</glyph>
<glyph name="i" format="1">
  <advance width="326"/>
  <unicode hex="0069"/>
  <outline>
    <contour>
      <point x="167" y="619" type="move" name="top"/>
    </contour>
    <contour>
      <point x="231" y="6" type="move" name="bottom"/>
    </contour>
    <contour>
      <point x="171" y="100" type="curve"/>
      <point x="21" y="100"/>
      <point x="178" y="100"/>
      <point x="29" y="100" type="curve"/>
      <point x="29" y="0"/>
      <point x="29" y="100"/>
      <point x="29" y="0" type="curve"/>
      <point x="79" y="0"/>
      <point x="121" y="0"/>
      <point x="171" y="0" type="curve"/>
      <point x="171" y="100"/>
      <point x="171" y="0"/>
    </contour>
    <contour>
      <point x="171" y="0" type="curve"/>
      <point x="218" y="0"/>
      <point x="259" y="0"/>
      <point x="307" y="0" type="curve"/>
      <point x="307" y="100"/>
      <point x="307" y="0"/>
      <point x="307" y="100" type="curve"/>
      <point x="165" y="100"/>
      <point x="312" y="100"/>
      <point x="171" y="100" type="curve"/>
      <point x="171" y="0"/>
      <point x="171" y="100"/>
    </contour>
    <contour>
      <point x="171" y="533" type="curve"/>
      <point x="121" y="533"/>
      <point x="79" y="533"/>
      <point x="29" y="533" type="curve"/>
      <point x="29" y="433"/>
      <point x="29" y="533"/>
      <point x="29" y="433" type="curve"/>
      <point x="178" y="433"/>
      <point x="21" y="433"/>
      <point x="171" y="433" type="curve"/>
      <point x="171" y="533"/>
      <point x="171" y="433"/>
    </contour>
    <contour>
      <point x="240" y="0" type="curve"/>
      <point x="240" y="178"/>
      <point x="240" y="355"/>
      <point x="240" y="533" type="curve"/>
      <point x="102" y="533"/>
      <point x="240" y="533"/>
      <point x="102" y="533" type="curve"/>
      <point x="102" y="355"/>
      <point x="102" y="178"/>
      <point x="102" y="0" type="curve"/>
      <point x="240" y="0"/>
      <point x="102" y="0"/>
    </contour>
    <contour>
      <point x="240" y="681" type="curve"/>
      <point x="240" y="725"/>
      <point x="208" y="746"/>
      <point x="167" y="746" type="curve"/>
      <point x="125" y="746"/>
      <point x="97" y="723"/>
      <point x="97" y="681" type="curve"/>
      <point x="239" y="681"/>
      <point x="98" y="681"/>
      <point x="240" y="681" type="curve"/>
      <point x="240" y="636"/>
      <point x="209" y="616"/>
      <point x="167" y="616" type="curve"/>
      <point x="124" y="616"/>
      <point x="97" y="638"/>
      <point x="97" y="681" type="curve"/>
      <point x="239" y="681"/>
      <point x="98" y="681"/>
    </contour>
  </outline>
</glyph>
<glyph name="j" format="1">
  <advance width="293"/>
  <unicode hex="006A"/>
  <outline>
    <contour>
      <point x="150" y="533" type="curve"/>
      <point x="100" y="533"/>
      <point x="50" y="533"/>
      <point x="1" y="533" type="curve"/>
      <point x="1" y="433"/>
      <point x="1" y="533"/>
      <point x="1" y="433" type="curve"/>
      <point x="151" y="433"/>
      <point x="0" y="433"/>
      <point x="150" y="433" type="curve"/>
      <point x="150" y="533"/>
      <point x="150" y="433"/>
    </contour>
    <contour>
      <point x="-15" y="-303" type="curve"/>
      <point x="-6" y="-304"/>
      <point x="5" y="-305"/>
      <point x="17" y="-305" type="curve"/>
      <point x="133" y="-305"/>
      <point x="217" y="-236"/>
      <point x="217" y="-122" type="curve"/>
      <point x="217" y="96"/>
      <point x="217" y="315"/>
      <point x="217" y="534" type="curve"/>
      <point x="85" y="534"/>
      <point x="217" y="534"/>
      <point x="85" y="534" type="curve"/>
      <point x="85" y="315"/>
      <point x="85" y="96"/>
      <point x="85" y="-122" type="curve"/>
      <point x="85" y="-170"/>
      <point x="68" y="-209"/>
      <point x="22" y="-209" type="curve"/>
      <point x="16" y="-209"/>
      <point x="10" y="-209"/>
      <point x="3" y="-208" type="curve"/>
      <point x="-15" y="-302"/>
      <point x="3" y="-208"/>
    </contour>
    <contour>
      <point x="221" y="675" type="curve"/>
      <point x="221" y="719"/>
      <point x="190" y="741"/>
      <point x="149" y="741" type="curve"/>
      <point x="107" y="741"/>
      <point x="78" y="718"/>
      <point x="78" y="675" type="curve"/>
      <point x="220" y="675"/>
      <point x="79" y="675"/>
      <point x="221" y="675" type="curve"/>
      <point x="221" y="631"/>
      <point x="191" y="611"/>
      <point x="148" y="611" type="curve"/>
      <point x="106" y="611"/>
      <point x="78" y="632"/>
      <point x="78" y="675" type="curve"/>
      <point x="220" y="675"/>
      <point x="79" y="675"/>
    </contour>
  </outline>
</glyph>
<glyph name="l" format="1">
  <advance width="336"/>
  <unicode hex="006C"/>
  <outline>
    <contour>
      <point x="170" y="882" type="move" name="top"/>
    </contour>
    <contour>
      <point x="220" y="-3" type="move" name="bottom"/>
    </contour>
    <contour>
      <point x="168" y="100" type="curve"/>
      <point x="18" y="100"/>
      <point x="168" y="100"/>
      <point x="18" y="100" type="curve"/>
      <point x="18" y="0"/>
      <point x="18" y="100"/>
      <point x="18" y="0" type="curve"/>
      <point x="69" y="0"/>
      <point x="118" y="0"/>
      <point x="168" y="0" type="curve"/>
      <point x="168" y="100"/>
      <point x="168" y="-1"/>
    </contour>
    <contour>
      <point x="171" y="800" type="curve"/>
      <point x="121" y="800"/>
      <point x="71" y="800"/>
      <point x="21" y="800" type="curve"/>
      <point x="20" y="700"/>
      <point x="21" y="800"/>
      <point x="20" y="700" type="curve"/>
      <point x="171" y="699"/>
      <point x="20" y="700"/>
      <point x="171" y="699" type="curve"/>
      <point x="171" y="799"/>
      <point x="171" y="700"/>
    </contour>
    <contour>
      <point x="168" y="0" type="curve"/>
      <point x="218" y="0"/>
      <point x="268" y="0"/>
      <point x="319" y="0" type="curve"/>
      <point x="319" y="100"/>
      <point x="319" y="0"/>
      <point x="319" y="100" type="curve"/>
      <point x="168" y="100"/>
      <point x="319" y="100"/>
      <point x="168" y="100" type="curve"/>
      <point x="168" y="-1"/>
      <point x="168" y="100"/>
    </contour>
    <contour>
      <point x="234" y="0" type="curve"/>
      <point x="234" y="267"/>
      <point x="234" y="533"/>
      <point x="234" y="800" type="curve"/>
      <point x="102" y="800"/>
      <point x="234" y="800"/>
      <point x="102" y="800" type="curve"/>
      <point x="102" y="533"/>
      <point x="102" y="267"/>
      <point x="102" y="0" type="curve"/>
      <point x="234" y="0"/>
      <point x="102" y="0"/>
    </contour>
  </outline>
</glyph>
<glyph name="m" format="1">
  <advance width="955"/>
  <unicode hex="006D"/>
  <outline>
    <contour>
      <point x="488" y="0" type="curve"/>
      <point x="613" y="0"/>
      <point x="488" y="0"/>
      <point x="613" y="0" type="curve"/>
      <point x="613" y="100"/>
      <point x="613" y="0"/>
      <point x="613" y="100" type="curve"/>
      <point x="488" y="100"/>
      <point x="613" y="100"/>
      <point x="488" y="100" type="curve"/>
      <point x="488" y="0"/>
      <point x="488" y="100"/>
    </contour>
    <contour>
      <point x="786" y="0" type="curve"/>
      <point x="831" y="0"/>
      <point x="875" y="0"/>
      <point x="921" y="0" type="curve"/>
      <point x="921" y="100"/>
      <point x="921" y="0"/>
      <point x="921" y="100" type="curve"/>
      <point x="785" y="100"/>
      <point x="922" y="100"/>
      <point x="786" y="100" type="curve"/>
      <point x="786" y="0"/>
      <point x="786" y="100"/>
    </contour>
    <contour>
      <point x="192" y="100" type="curve"/>
      <point x="50" y="100"/>
      <point x="193" y="100"/>
      <point x="51" y="100" type="curve"/>
      <point x="50" y="0"/>
      <point x="51" y="100"/>
      <point x="50" y="0" type="curve"/>
      <point x="97" y="0"/>
      <point x="145" y="0"/>
      <point x="192" y="0" type="curve"/>
      <point x="192" y="100"/>
      <point x="192" y="0"/>
    </contour>
    <contour>
      <point x="192" y="0" type="curve"/>
      <point x="234" y="0"/>
      <point x="191" y="0"/>
      <point x="315" y="0" type="curve"/>
      <point x="315" y="100"/>
      <point x="315" y="0"/>
      <point x="315" y="100" type="curve"/>
      <point x="191" y="100"/>
      <point x="317" y="100"/>
      <point x="192" y="100" type="curve"/>
      <point x="192" y="0"/>
      <point x="192" y="100"/>
    </contour>
    <contour>
      <point x="192" y="533" type="curve"/>
      <point x="145" y="533"/>
      <point x="97" y="533"/>
      <point x="51" y="533" type="curve"/>
      <point x="50" y="433"/>
      <point x="51" y="533"/>
      <point x="50" y="433" type="curve"/>
      <point x="193" y="433"/>
      <point x="49" y="433"/>
      <point x="192" y="433" type="curve"/>
      <point x="192" y="533"/>
      <point x="192" y="433"/>
    </contour>
    <contour>
      <point x="525" y="278" type="curve"/>
      <point x="551" y="358"/>
      <point x="579" y="434"/>
      <point x="646" y="434" type="curve"/>
      <point x="714" y="434"/>
      <point x="719" y="386"/>
      <point x="719" y="311" type="curve"/>
      <point x="719" y="208"/>
      <point x="719" y="104"/>
      <point x="719" y="0" type="curve"/>
      <point x="850" y="0"/>
      <point x="719" y="0"/>
      <point x="850" y="0" type="curve"/>
      <point x="850" y="107"/>
      <point x="850" y="214"/>
      <point x="850" y="321" type="curve"/>
      <point x="850" y="458"/>
      <point x="821" y="538"/>
      <point x="688" y="538" type="curve"/>
      <point x="583" y="538"/>
      <point x="519" y="454"/>
      <point x="481" y="335" type="curve"/>
      <point x="527" y="280"/>
      <point x="477" y="333"/>
    </contour>
    <contour>
      <point x="228" y="280" type="curve"/>
      <point x="253" y="359"/>
      <point x="281" y="434"/>
      <point x="349" y="434" type="curve"/>
      <point x="417" y="434"/>
      <point x="423" y="386"/>
      <point x="423" y="311" type="curve"/>
      <point x="423" y="208"/>
      <point x="423" y="104"/>
      <point x="423" y="0" type="curve"/>
      <point x="554" y="0"/>
      <point x="423" y="0"/>
      <point x="554" y="0" type="curve"/>
      <point x="554" y="107"/>
      <point x="554" y="214"/>
      <point x="554" y="321" type="curve"/>
      <point x="554" y="458"/>
      <point x="525" y="538"/>
      <point x="392" y="538" type="curve"/>
      <point x="286" y="538"/>
      <point x="229" y="458"/>
      <point x="185" y="336" type="curve"/>
      <point x="231" y="282"/>
      <point x="181" y="335"/>
    </contour>
    <contour>
      <point x="257" y="0" type="curve"/>
      <point x="257" y="178"/>
      <point x="257" y="355"/>
      <point x="257" y="533" type="curve"/>
      <point x="127" y="533"/>
      <point x="257" y="533"/>
      <point x="127" y="533" type="curve"/>
      <point x="127" y="355"/>
      <point x="127" y="178"/>
      <point x="127" y="0" type="curve"/>
      <point x="257" y="0"/>
      <point x="127" y="0"/>
    </contour>
  </outline>
</glyph>
<glyph name="n" format="1">
  <advance width="648"/>
  <unicode hex="006E"/>
  <outline>
    <contour>
      <point x="338" y="618" type="move" name="top"/>
    </contour>
    <contour>
      <point x="375" y="5" type="move" name="bottom"/>
    </contour>
    <contour>
      <point x="208" y="269" type="curve"/>
      <point x="228" y="358"/>
      <point x="273" y="434"/>
      <point x="345" y="434" type="curve"/>
      <point x="412" y="434"/>
      <point x="436" y="383"/>
      <point x="436" y="311" type="curve"/>
      <point x="436" y="205"/>
      <point x="436" y="106"/>
      <point x="436" y="0" type="curve"/>
      <point x="544" y="0"/>
      <point x="459" y="0"/>
      <point x="567" y="0" type="curve"/>
      <point x="567" y="110"/>
      <point x="567" y="213"/>
      <point x="567" y="321" type="curve"/>
      <point x="567" y="453"/>
      <point x="517" y="538"/>
      <point x="387" y="538" type="curve"/>
      <point x="276" y="538"/>
      <point x="195" y="458"/>
      <point x="162" y="323" type="curve"/>
      <point x="197" y="278"/>
      <point x="174" y="315"/>
    </contour>
    <contour>
      <point x="501" y="0" type="curve"/>
      <point x="551" y="0"/>
      <point x="593" y="0"/>
      <point x="643" y="0" type="curve"/>
      <point x="643" y="100"/>
      <point x="643" y="0"/>
      <point x="643" y="100" type="curve"/>
      <point x="494" y="100"/>
      <point x="651" y="100"/>
      <point x="501" y="100" type="curve"/>
      <point x="501" y="0"/>
      <point x="501" y="100"/>
    </contour>
    <contour>
      <point x="170" y="100" type="curve"/>
      <point x="20" y="100"/>
      <point x="178" y="100"/>
      <point x="28" y="100" type="curve"/>
      <point x="28" y="0"/>
      <point x="28" y="100"/>
      <point x="28" y="0" type="curve"/>
      <point x="77" y="0"/>
      <point x="120" y="0"/>
      <point x="170" y="0" type="curve"/>
      <point x="170" y="100"/>
      <point x="170" y="0"/>
    </contour>
    <contour>
      <point x="170" y="0" type="curve"/>
      <point x="216" y="0"/>
      <point x="161" y="0"/>
      <point x="301" y="0" type="curve"/>
      <point x="301" y="100"/>
      <point x="301" y="0"/>
      <point x="301" y="100" type="curve"/>
      <point x="161" y="100"/>
      <point x="309" y="100"/>
      <point x="170" y="100" type="curve"/>
      <point x="170" y="0"/>
      <point x="170" y="100"/>
    </contour>
    <contour>
      <point x="236" y="0" type="curve"/>
      <point x="236" y="178"/>
      <point x="236" y="355"/>
      <point x="236" y="533" type="curve"/>
      <point x="104" y="533"/>
      <point x="236" y="533"/>
      <point x="104" y="533" type="curve"/>
      <point x="104" y="355"/>
      <point x="104" y="178"/>
      <point x="104" y="0" type="curve"/>
      <point x="236" y="0"/>
      <point x="104" y="0"/>
    </contour>
    <contour>
      <point x="170" y="533" type="curve"/>
      <point x="120" y="533"/>
      <point x="77" y="533"/>
      <point x="28" y="533" type="curve"/>
      <point x="28" y="433"/>
      <point x="28" y="533"/>
      <point x="28" y="433" type="curve"/>
      <point x="178" y="433"/>
      <point x="20" y="433"/>
      <point x="170" y="433" type="curve"/>
      <point x="170" y="533"/>
      <point x="170" y="433"/>
    </contour>
  </outline>
</glyph>
<glyph name="p" format="1">
  <advance width="632"/>
  <unicode hex="0070"/>
  <outline>
    <contour>
      <point x="148" y="-199" type="curve"/>
      <point x="-2" y="-199"/>
      <point x="156" y="-199"/>
      <point x="6" y="-199" type="curve"/>
      <point x="6" y="-300"/>
      <point x="6" y="-199"/>
      <point x="6" y="-300" type="curve"/>
      <point x="56" y="-300"/>
      <point x="98" y="-300"/>
      <point x="148" y="-300" type="curve"/>
      <point x="148" y="-199"/>
      <point x="148" y="-300"/>
    </contour>
    <contour>
      <point x="148" y="-300" type="curve"/>
      <point x="196" y="-300"/>
      <point x="235" y="-300"/>
      <point x="282" y="-300" type="curve"/>
      <point x="282" y="-199"/>
      <point x="282" y="-300"/>
      <point x="282" y="-199" type="curve"/>
      <point x="140" y="-199"/>
      <point x="290" y="-199"/>
      <point x="148" y="-199" type="curve"/>
      <point x="148" y="-300"/>
      <point x="148" y="-199"/>
    </contour>
    <contour>
      <point x="149" y="533" type="curve"/>
      <point x="100" y="533"/>
      <point x="57" y="533"/>
      <point x="8" y="533" type="curve"/>
      <point x="7" y="433"/>
      <point x="8" y="533"/>
      <point x="7" y="433" type="curve"/>
      <point x="157" y="433"/>
      <point x="-1" y="433"/>
      <point x="149" y="433" type="curve"/>
      <point x="149" y="533"/>
      <point x="149" y="433"/>
    </contour>
    <contour>
      <point x="182" y="308" type="curve"/>
      <point x="212" y="376"/>
      <point x="264" y="437"/>
      <point x="335" y="437" type="curve"/>
      <point x="429" y="437"/>
      <point x="459" y="360"/>
      <point x="459" y="264" type="curve"/>
      <point x="460" y="169"/>
      <point x="428" y="95"/>
      <point x="335" y="95" type="curve"/>
      <point x="274" y="95"/>
      <point x="226" y="122"/>
      <point x="185" y="165" type="curve"/>
      <point x="144" y="120"/>
      <point x="175" y="152"/>
      <point x="134" y="107" type="curve"/>
      <point x="193" y="36"/>
      <point x="263" y="-5"/>
      <point x="359" y="-5" type="curve"/>
      <point x="516" y="-5"/>
      <point x="590" y="112"/>
      <point x="589" y="269" type="curve"/>
      <point x="589" y="421"/>
      <point x="519" y="539"/>
      <point x="363" y="539" type="curve"/>
      <point x="262" y="539"/>
      <point x="189" y="471"/>
      <point x="141" y="387" type="curve"/>
      <point x="173" y="319"/>
      <point x="150" y="375"/>
    </contour>
    <contour>
      <point x="215" y="-300" type="curve"/>
      <point x="215" y="-22"/>
      <point x="215" y="255"/>
      <point x="215" y="533" type="curve"/>
      <point x="83" y="533"/>
      <point x="215" y="533"/>
      <point x="83" y="533" type="curve"/>
      <point x="83" y="255"/>
      <point x="83" y="-22"/>
      <point x="83" y="-300" type="curve"/>
      <point x="215" y="-300"/>
      <point x="83" y="-300"/>
    </contour>
  </outline>
</glyph>
<glyph name="q" format="1">
  <advance width="656"/>
  <unicode hex="0071"/>
  <outline>
    <contour>
      <point x="488" y="433" type="curve"/>
      <point x="601" y="433"/>
      <point x="506" y="433"/>
      <point x="621" y="433" type="curve"/>
      <point x="621" y="516"/>
      <point x="621" y="450"/>
      <point x="621" y="533" type="curve"/>
      <point x="572" y="533"/>
      <point x="536" y="533"/>
      <point x="488" y="533" type="curve"/>
      <point x="488" y="450"/>
      <point x="488" y="516"/>
    </contour>
    <contour>
      <point x="486" y="-199" type="curve"/>
      <point x="365" y="-199"/>
      <point x="466" y="-199"/>
      <point x="345" y="-199" type="curve"/>
      <point x="345" y="-283"/>
      <point x="345" y="-216"/>
      <point x="345" y="-300" type="curve"/>
      <point x="396" y="-300"/>
      <point x="435" y="-300"/>
      <point x="486" y="-300" type="curve"/>
      <point x="486" y="-216"/>
      <point x="486" y="-283"/>
    </contour>
    <contour>
      <point x="486" y="-300" type="curve"/>
      <point x="535" y="-300"/>
      <point x="572" y="-300"/>
      <point x="620" y="-300" type="curve"/>
      <point x="620" y="-216"/>
      <point x="620" y="-283"/>
      <point x="620" y="-199" type="curve"/>
      <point x="505" y="-199"/>
      <point x="602" y="-199"/>
      <point x="486" y="-199" type="curve"/>
      <point x="486" y="-283"/>
      <point x="486" y="-216"/>
    </contour>
    <contour>
      <point x="497" y="396" type="curve"/>
      <point x="444" y="482"/>
      <point x="370" y="538"/>
      <point x="274" y="538" type="curve"/>
      <point x="116" y="538"/>
      <point x="43" y="421"/>
      <point x="43" y="264" type="curve"/>
      <point x="43" y="108"/>
      <point x="122" y="-5"/>
      <point x="279" y="-5" type="curve"/>
      <point x="374" y="-5"/>
      <point x="446" y="54"/>
      <point x="503" y="132" type="curve"/>
      <point x="466" y="179"/>
      <point x="489" y="142"/>
      <point x="452" y="188" type="curve"/>
      <point x="416" y="132"/>
      <point x="364" y="95"/>
      <point x="300" y="95" type="curve"/>
      <point x="209" y="95"/>
      <point x="175" y="172"/>
      <point x="175" y="269" type="curve"/>
      <point x="175" y="362"/>
      <point x="210" y="435"/>
      <point x="298" y="435" type="curve"/>
      <point x="361" y="435"/>
      <point x="410" y="404"/>
      <point x="457" y="335" type="curve"/>
      <point x="483" y="386"/>
      <point x="470" y="346"/>
    </contour>
    <contour>
      <point x="555" y="-300" type="curve"/>
      <point x="555" y="-15"/>
      <point x="555" y="248"/>
      <point x="555" y="533" type="curve"/>
      <point x="442" y="533"/>
      <point x="530" y="533"/>
      <point x="418" y="533" type="curve"/>
      <point x="418" y="248"/>
      <point x="418" y="-15"/>
      <point x="418" y="-300" type="curve"/>
      <point x="530" y="-300"/>
      <point x="442" y="-300"/>
    </contour>
  </outline>
</glyph>
<glyph name="s" format="1">
  <advance width="501"/>
  <unicode hex="0073"/>
  <outline>
    <contour>
      <point x="249" y="618" type="move" name="top"/>
    </contour>
    <contour>
      <point x="286" y="-3" type="move" name="bottom"/>
    </contour>
    <contour>
      <point x="53" y="47" type="curve"/>
      <point x="119" y="15"/>
      <point x="178" y="-5"/>
      <point x="248" y="-5" type="curve"/>
      <point x="372" y="-5"/>
      <point x="459" y="45"/>
      <point x="459" y="159" type="curve"/>
      <point x="458" y="262"/>
      <point x="373" y="290"/>
      <point x="267" y="323" type="curve" smooth="yes"/>
      <point x="219" y="337"/>
      <point x="179" y="354"/>
      <point x="179" y="392" type="curve"/>
      <point x="179" y="418"/>
      <point x="205" y="434"/>
      <point x="243" y="434" type="curve"/>
      <point x="282" y="434"/>
      <point x="327" y="419"/>
      <point x="353" y="403" type="curve"/>
      <point x="413" y="492"/>
      <point x="354" y="404"/>
      <point x="414" y="493" type="curve"/>
      <point x="374" y="517"/>
      <point x="305" y="538"/>
      <point x="246" y="538" type="curve"/>
      <point x="135" y="538"/>
      <point x="59" y="492"/>
      <point x="59" y="391" type="curve"/>
      <point x="59" y="296"/>
      <point x="127" y="256"/>
      <point x="226" y="226" type="curve" smooth="yes"/>
      <point x="281" y="209"/>
      <point x="333" y="196"/>
      <point x="333" y="152" type="curve"/>
      <point x="333" y="120"/>
      <point x="301" y="100"/>
      <point x="259" y="100" type="curve"/>
      <point x="207" y="100"/>
      <point x="168" y="115"/>
      <point x="119" y="138" type="curve"/>
      <point x="53" y="47"/>
      <point x="119" y="138"/>
    </contour>
    <contour>
      <point x="311" y="493" type="curve"/>
      <point x="311" y="365"/>
      <point x="311" y="489"/>
      <point x="311" y="362" type="curve"/>
      <point x="414" y="362"/>
      <point x="311" y="362"/>
      <point x="414" y="362" type="curve"/>
      <point x="414" y="489"/>
      <point x="414" y="365"/>
      <point x="414" y="493" type="curve"/>
      <point x="312" y="493"/>
      <point x="413" y="493"/>
    </contour>
    <contour>
      <point x="155" y="47" type="curve"/>
      <point x="155" y="177"/>
      <point x="155" y="52"/>
      <point x="155" y="183" type="curve"/>
      <point x="53" y="183"/>
      <point x="155" y="183"/>
      <point x="53" y="183" type="curve"/>
      <point x="53" y="52"/>
      <point x="53" y="177"/>
      <point x="53" y="47" type="curve"/>
      <point x="155" y="47"/>
      <point x="53" y="47"/>
    </contour>
  </outline>
</glyph>
<glyph name="t" format="1">
  <advance width="379"/>
  <unicode hex="0074"/>
  <outline>
    <contour>
      <point x="285" y="-1" type="move" name="bottom"/>
    </contour>
    <contour>
      <point x="14" y="432" type="curve"/>
      <point x="352" y="432" type="line"/>
      <point x="352" y="533"/>
      <point x="352" y="432"/>
      <point x="352" y="533" type="curve"/>
      <point x="14" y="533" type="line"/>
      <point x="14" y="432"/>
      <point x="14" y="533"/>
    </contour>
    <contour>
      <point x="319" y="116" type="curve"/>
      <point x="300" y="105"/>
      <point x="286" y="100"/>
      <point x="265" y="100" type="curve"/>
      <point x="226" y="100"/>
      <point x="216" y="129"/>
      <point x="216" y="172" type="curve"/>
      <point x="216" y="683" type="line"/>
      <point x="124" y="626"/>
      <point x="178" y="661"/>
      <point x="86" y="603" type="curve"/>
      <point x="86" y="167" type="line"/>
      <point x="86" y="55"/>
      <point x="142" y="-6"/>
      <point x="247" y="-6" type="curve"/>
      <point x="295" y="-6"/>
      <point x="328" y="9"/>
      <point x="367" y="29" type="curve"/>
      <point x="319" y="116"/>
      <point x="367" y="29"/>
    </contour>
  </outline>
</glyph>
<glyph name="v" format="1">
  <advance width="628"/>
  <unicode hex="0076"/>
  <outline>
    <contour>
      <point x="134" y="533" type="curve"/>
      <point x="94" y="533"/>
      <point x="57" y="533"/>
      <point x="18" y="533" type="curve"/>
      <point x="18" y="433"/>
      <point x="18" y="533"/>
      <point x="18" y="433" type="curve"/>
      <point x="135" y="433"/>
      <point x="17" y="433"/>
      <point x="134" y="433" type="curve"/>
      <point x="134" y="533"/>
      <point x="134" y="433"/>
    </contour>
    <contour>
      <point x="134" y="433" type="curve"/>
      <point x="274" y="433"/>
      <point x="133" y="433"/>
      <point x="273" y="433" type="curve"/>
      <point x="273" y="533"/>
      <point x="273" y="433"/>
      <point x="273" y="533" type="curve"/>
      <point x="226" y="533"/>
      <point x="181" y="533"/>
      <point x="134" y="533" type="curve"/>
      <point x="134" y="433"/>
      <point x="134" y="533"/>
    </contour>
    <contour>
      <point x="502" y="533" type="curve"/>
      <point x="456" y="533"/>
      <point x="409" y="533"/>
      <point x="363" y="533" type="curve"/>
      <point x="363" y="433"/>
      <point x="363" y="533"/>
      <point x="363" y="433" type="curve"/>
      <point x="503" y="433"/>
      <point x="362" y="433"/>
      <point x="502" y="433" type="curve"/>
      <point x="502" y="533"/>
      <point x="502" y="433"/>
    </contour>
    <contour>
      <point x="502" y="433" type="curve"/>
      <point x="621" y="433"/>
      <point x="502" y="433"/>
      <point x="620" y="433" type="curve"/>
      <point x="620" y="533"/>
      <point x="620" y="433"/>
      <point x="620" y="533" type="curve"/>
      <point x="580" y="533"/>
      <point x="542" y="533"/>
      <point x="502" y="533" type="curve"/>
      <point x="502" y="433"/>
      <point x="502" y="533"/>
    </contour>
    <contour>
      <point x="53" y="533" type="curve"/>
      <point x="116" y="355"/>
      <point x="178" y="178"/>
      <point x="239" y="0" type="curve"/>
      <point x="364" y="0"/>
      <point x="239" y="0"/>
      <point x="364" y="0" type="curve"/>
      <point x="303" y="177"/>
      <point x="248" y="356"/>
      <point x="187" y="533" type="curve"/>
      <point x="53" y="533"/>
      <point x="187" y="533"/>
    </contour>
    <contour>
      <point x="451" y="533" type="curve"/>
      <point x="262" y="0" type="line"/>
      <point x="388" y="0"/>
      <point x="262" y="0"/>
      <point x="388" y="0" type="curve"/>
      <point x="453" y="178"/>
      <point x="518" y="355"/>
      <point x="583" y="533" type="curve"/>
      <point x="451" y="533"/>
      <point x="583" y="533"/>
    </contour>
  </outline>
</glyph>
<glyph name="w" format="1">
  <advance width="911"/>
  <unicode hex="0077"/>
  <outline>
    <contour>
      <point x="772" y="433" type="curve"/>
      <point x="899" y="433"/>
      <point x="771" y="433"/>
      <point x="899" y="433" type="curve"/>
      <point x="899" y="533"/>
      <point x="899" y="433"/>
      <point x="899" y="533" type="curve"/>
      <point x="856" y="533"/>
      <point x="814" y="533"/>
      <point x="772" y="533" type="curve"/>
      <point x="772" y="433"/>
      <point x="772" y="533"/>
    </contour>
    <contour>
      <point x="772" y="533" type="curve"/>
      <point x="728" y="533"/>
      <point x="686" y="533"/>
      <point x="643" y="533" type="curve"/>
      <point x="643" y="433"/>
      <point x="643" y="533"/>
      <point x="643" y="433" type="curve"/>
      <point x="774" y="433"/>
      <point x="640" y="433"/>
      <point x="772" y="433" type="curve"/>
      <point x="772" y="533"/>
      <point x="772" y="433"/>
    </contour>
    <contour>
      <point x="143" y="533" type="curve"/>
      <point x="100" y="533"/>
      <point x="58" y="533"/>
      <point x="15" y="533" type="curve"/>
      <point x="15" y="433"/>
      <point x="15" y="533"/>
      <point x="15" y="433" type="curve"/>
      <point x="144" y="433"/>
      <point x="14" y="433"/>
      <point x="143" y="433" type="curve"/>
      <point x="143" y="533"/>
      <point x="143" y="433"/>
    </contour>
    <contour>
      <point x="143" y="433" type="curve"/>
      <point x="270" y="433"/>
      <point x="141" y="433"/>
      <point x="268" y="433" type="curve"/>
      <point x="268" y="533"/>
      <point x="268" y="433"/>
      <point x="268" y="533" type="curve"/>
      <point x="226" y="533"/>
      <point x="184" y="533"/>
      <point x="143" y="533" type="curve"/>
      <point x="143" y="433"/>
      <point x="143" y="533"/>
    </contour>
    <contour>
      <point x="338" y="0" type="curve"/>
      <point x="399" y="178"/>
      <point x="460" y="355"/>
      <point x="520" y="533" type="curve"/>
      <point x="400" y="533"/>
      <point x="520" y="533"/>
      <point x="400" y="533" type="curve"/>
      <point x="341" y="355"/>
      <point x="281" y="178"/>
      <point x="221" y="0" type="curve"/>
      <point x="338" y="0"/>
      <point x="221" y="0"/>
    </contour>
    <contour>
      <point x="737" y="533" type="curve"/>
      <point x="681" y="355"/>
      <point x="625" y="178"/>
      <point x="570" y="0" type="curve"/>
      <point x="686" y="0"/>
      <point x="570" y="0"/>
      <point x="686" y="0" type="curve"/>
      <point x="743" y="178"/>
      <point x="800" y="355"/>
      <point x="856" y="533" type="curve"/>
      <point x="737" y="533"/>
      <point x="856" y="533"/>
    </contour>
    <contour>
      <point x="406" y="533" type="curve"/>
      <point x="460" y="355"/>
      <point x="514" y="178"/>
      <point x="569" y="0" type="curve"/>
      <point x="686" y="0"/>
      <point x="569" y="0"/>
      <point x="686" y="0" type="curve"/>
      <point x="632" y="178"/>
      <point x="577" y="355"/>
      <point x="524" y="533" type="curve"/>
      <point x="406" y="533"/>
      <point x="524" y="533"/>
    </contour>
    <contour>
      <point x="58" y="533" type="curve"/>
      <point x="112" y="355"/>
      <point x="167" y="178"/>
      <point x="221" y="0" type="curve"/>
      <point x="337" y="0"/>
      <point x="221" y="0"/>
      <point x="337" y="0" type="curve"/>
      <point x="284" y="178"/>
      <point x="231" y="355"/>
      <point x="177" y="533" type="curve"/>
      <point x="58" y="533"/>
      <point x="177" y="533"/>
    </contour>
  </outline>
</glyph>
<glyph name="braceleft" format="1">
  <advance width="291"/>
  <unicode hex="007B"/>
  <outline>
    <contour>
      <point x="243" y="-10" type="curve"/>
      <point x="205" y="-10"/>
      <point x="199" y="22"/>
      <point x="199" y="62" type="curve"/>
      <point x="199" y="114"/>
      <point x="199" y="165"/>
      <point x="199" y="217" type="curve"/>
      <point x="199" y="323"/>
      <point x="139" y="393"/>
      <point x="37" y="393" type="curve"/>
      <point x="37" y="288"/>
      <point x="37" y="393"/>
      <point x="37" y="288" type="curve"/>
      <point x="69" y="288"/>
      <point x="80" y="262"/>
      <point x="80" y="227" type="curve"/>
      <point x="80" y="174"/>
      <point x="80" y="120"/>
      <point x="80" y="67" type="curve"/>
      <point x="80" y="-40"/>
      <point x="139" y="-110"/>
      <point x="243" y="-110" type="curve"/>
      <point x="243" y="-10"/>
      <point x="243" y="-110"/>
    </contour>
    <contour>
      <point x="243" y="791" type="curve"/>
      <point x="139" y="791"/>
      <point x="80" y="724"/>
      <point x="80" y="618" type="curve"/>
      <point x="80" y="562"/>
      <point x="80" y="507"/>
      <point x="80" y="452" type="curve"/>
      <point x="80" y="417"/>
      <point x="68" y="393"/>
      <point x="37" y="393" type="curve"/>
      <point x="37" y="288"/>
      <point x="37" y="393"/>
      <point x="37" y="288" type="curve"/>
      <point x="140" y="288"/>
      <point x="199" y="359"/>
      <point x="199" y="467" type="curve"/>
      <point x="199" y="517"/>
      <point x="199" y="567"/>
      <point x="199" y="618" type="curve"/>
      <point x="199" y="659"/>
      <point x="204" y="690"/>
      <point x="243" y="690" type="curve"/>
      <point x="243" y="791"/>
      <point x="243" y="690"/>
    </contour>
  </outline>
</glyph>
<glyph name="braceright" format="1">
  <advance width="292"/>
  <unicode hex="007D"/>
  <outline>
    <contour>
      <point x="49" y="-110" type="curve"/>
      <point x="152" y="-110"/>
      <point x="212" y="-40"/>
      <point x="212" y="67" type="curve"/>
      <point x="212" y="120"/>
      <point x="212" y="174"/>
      <point x="212" y="227" type="curve"/>
      <point x="212" y="262"/>
      <point x="221" y="288"/>
      <point x="255" y="288" type="curve"/>
      <point x="255" y="393"/>
      <point x="255" y="288"/>
      <point x="255" y="393" type="curve"/>
      <point x="152" y="393"/>
      <point x="93" y="322"/>
      <point x="93" y="217" type="curve"/>
      <point x="93" y="165"/>
      <point x="93" y="114"/>
      <point x="93" y="62" type="curve"/>
      <point x="93" y="22"/>
      <point x="85" y="-10"/>
      <point x="49" y="-10" type="curve"/>
      <point x="49" y="-110"/>
      <point x="49" y="-10"/>
    </contour>
    <contour>
      <point x="49" y="690" type="curve"/>
      <point x="86" y="690"/>
      <point x="93" y="659"/>
      <point x="93" y="618" type="curve"/>
      <point x="93" y="567"/>
      <point x="93" y="517"/>
      <point x="93" y="467" type="curve"/>
      <point x="93" y="358"/>
      <point x="151" y="288"/>
      <point x="255" y="288" type="curve"/>
      <point x="255" y="393"/>
      <point x="255" y="288"/>
      <point x="255" y="393" type="curve"/>
      <point x="222" y="393"/>
      <point x="212" y="417"/>
      <point x="212" y="452" type="curve"/>
      <point x="212" y="507"/>
      <point x="212" y="562"/>
      <point x="212" y="618" type="curve"/>
      <point x="212" y="724"/>
      <point x="152" y="791"/>
      <point x="49" y="791" type="curve"/>
      <point x="49" y="690"/>
      <point x="49" y="791"/>
    </contour>
  </outline>
</glyph>
<glyph name="asciitilde" format="1">
  <advance width="659"/>
  <unicode hex="007E"/>
  <outline>
    <contour>
      <point x="495" y="375" type="curve"/>
      <point x="481" y="336"/>
      <point x="467" y="300"/>
      <point x="436" y="300" type="curve"/>
      <point x="407" y="300"/>
      <point x="391" y="308"/>
      <point x="369" y="326" type="curve"/>
      <point x="323" y="366"/>
      <point x="290" y="388"/>
      <point x="228" y="388" type="curve"/>
      <point x="133" y="388"/>
      <point x="87" y="335"/>
      <point x="61" y="241" type="curve"/>
      <point x="103" y="227"/>
      <point x="122" y="219"/>
      <point x="163" y="204" type="curve"/>
      <point x="175" y="247"/>
      <point x="191" y="282"/>
      <point x="225" y="282" type="curve"/>
      <point x="252" y="282"/>
      <point x="266" y="274"/>
      <point x="287" y="257" type="curve"/>
      <point x="336" y="216"/>
      <point x="370" y="196"/>
      <point x="434" y="195" type="curve"/>
      <point x="527" y="195"/>
      <point x="566" y="250"/>
      <point x="597" y="339" type="curve"/>
      <point x="555" y="354"/>
      <point x="537" y="361"/>
    </contour>
  </outline>
</glyph>
<glyph name="exclamdown" format="1">
  <advance width="269"/>
  <unicode hex="00A1"/>
  <outline>
    <contour>
      <point x="74" y="302" type="line"/>
      <point x="62" y="-191" type="line"/>
      <point x="207" y="-192" type="line"/>
      <point x="197" y="301" type="line"/>
    </contour>
    <contour>
      <point x="65" y="475" type="curve"/>
      <point x="65" y="431"/>
      <point x="95" y="409"/>
      <point x="137" y="408" type="curve"/>
      <point x="179" y="408"/>
      <point x="207" y="432"/>
      <point x="207" y="474" type="curve"/>
      <point x="66" y="475"/>
      <point x="206" y="474"/>
      <point x="65" y="475" type="curve"/>
      <point x="65" y="519"/>
      <point x="95" y="539"/>
      <point x="138" y="538" type="curve"/>
      <point x="181" y="538"/>
      <point x="208" y="517"/>
      <point x="207" y="474" type="curve"/>
      <point x="66" y="475"/>
      <point x="206" y="474"/>
    </contour>
  </outline>
</glyph>
<glyph name="cent" format="1">
  <advance width="637"/>
  <unicode hex="00A2"/>
  <outline>
    <contour>
      <point x="404" y="-53" type="curve"/>
      <point x="404" y="-13"/>
      <point x="404" y="27"/>
      <point x="404" y="67" type="curve"/>
      <point x="272" y="67"/>
      <point x="404" y="67"/>
      <point x="272" y="67" type="curve"/>
      <point x="272" y="27"/>
      <point x="272" y="-13"/>
      <point x="272" y="-53" type="curve"/>
      <point x="404" y="-53"/>
      <point x="272" y="-53"/>
    </contour>
    <contour>
      <point x="292" y="778" type="curve"/>
      <point x="292" y="742"/>
      <point x="292" y="706"/>
      <point x="292" y="670" type="curve"/>
      <point x="423" y="670"/>
      <point x="292" y="670"/>
      <point x="423" y="670" type="curve"/>
      <point x="423" y="706"/>
      <point x="423" y="742"/>
      <point x="423" y="778" type="curve"/>
      <point x="292" y="778"/>
      <point x="423" y="778"/>
    </contour>
    <contour>
      <point x="583" y="612" type="curve"/>
      <point x="511" y="666"/>
      <point x="452" y="686"/>
      <point x="366" y="686" type="curve"/>
      <point x="169" y="686"/>
      <point x="49" y="562"/>
      <point x="49" y="363" type="curve"/>
      <point x="49" y="174"/>
      <point x="149" y="46"/>
      <point x="332" y="46" type="curve"/>
      <point x="434" y="46"/>
      <point x="505" y="72"/>
      <point x="582" y="144" type="curve"/>
      <point x="506" y="222"/>
      <point x="582" y="144"/>
      <point x="506" y="222" type="curve"/>
      <point x="450" y="179"/>
      <point x="409" y="152"/>
      <point x="344" y="152" type="curve"/>
      <point x="232" y="152"/>
      <point x="180" y="244"/>
      <point x="180" y="369" type="curve"/>
      <point x="180" y="493"/>
      <point x="242" y="580"/>
      <point x="354" y="580" type="curve"/>
      <point x="416" y="580"/>
      <point x="459" y="563"/>
      <point x="515" y="527" type="curve"/>
      <point x="583" y="612"/>
      <point x="515" y="527"/>
    </contour>
    <contour>
      <point x="481" y="612" type="curve"/>
      <point x="481" y="490"/>
      <point x="481" y="591"/>
      <point x="481" y="469" type="curve"/>
      <point x="583" y="469"/>
      <point x="481" y="469"/>
      <point x="583" y="469" type="curve"/>
      <point x="583" y="591"/>
      <point x="583" y="490"/>
      <point x="583" y="612" type="curve"/>
      <point x="481" y="612"/>
      <point x="583" y="612"/>
    </contour>
  </outline>
</glyph>
<glyph name="sterling" format="1">
  <advance width="484"/>
  <unicode hex="00A3"/>
  <outline>
    <contour>
      <point x="414" y="101" type="curve"/>
      <point x="294" y="101"/>
      <point x="168" y="101"/>
      <point x="49" y="101" type="curve"/>
      <point x="49" y="0"/>
      <point x="49" y="101"/>
      <point x="49" y="0" type="curve"/>
      <point x="168" y="0"/>
      <point x="293" y="0"/>
      <point x="414" y="0" type="curve"/>
      <point x="414" y="101"/>
      <point x="414" y="0"/>
    </contour>
    <contour>
      <point x="367" y="425" type="curve"/>
      <point x="271" y="425"/>
      <point x="168" y="425"/>
      <point x="73" y="425" type="curve"/>
      <point x="73" y="325"/>
      <point x="73" y="425"/>
      <point x="73" y="325" type="curve"/>
      <point x="168" y="325"/>
      <point x="271" y="325"/>
      <point x="367" y="325" type="curve"/>
      <point x="367" y="425"/>
      <point x="367" y="325"/>
    </contour>
    <contour>
      <point x="444" y="662" type="curve"/>
      <point x="399" y="707"/>
      <point x="358" y="721"/>
      <point x="300" y="721" type="curve"/>
      <point x="133" y="721"/>
      <point x="80" y="559"/>
      <point x="120" y="364" type="curve"/>
      <point x="148" y="227"/>
      <point x="137" y="101"/>
      <point x="49" y="101" type="curve"/>
      <point x="49" y="0"/>
      <point x="49" y="101"/>
      <point x="49" y="0" type="curve"/>
      <point x="231" y="0"/>
      <point x="282" y="176"/>
      <point x="240" y="385" type="curve"/>
      <point x="215" y="509"/>
      <point x="220" y="625"/>
      <point x="294" y="625" type="curve"/>
      <point x="330" y="625"/>
      <point x="351" y="610"/>
      <point x="379" y="589" type="curve"/>
      <point x="444" y="662"/>
      <point x="379" y="589"/>
    </contour>
  </outline>
</glyph>
<glyph name="currency" format="1">
  <advance width="655"/>
  <unicode hex="00A4"/>
  <outline>
    <contour>
      <point x="257" y="316" type="curve"/>
      <point x="257" y="366"/>
      <point x="277" y="407"/>
      <point x="325" y="407" type="curve"/>
      <point x="376" y="407"/>
      <point x="396" y="370"/>
      <point x="396" y="316" type="curve"/>
      <point x="396" y="264"/>
      <point x="378" y="219"/>
      <point x="330" y="219" type="curve"/>
      <point x="277" y="219"/>
      <point x="257" y="261"/>
      <point x="257" y="316" type="curve"/>
      <point x="126" y="316"/>
      <point x="262" y="316"/>
      <point x="131" y="316" type="curve"/>
      <point x="131" y="194"/>
      <point x="207" y="119"/>
      <point x="329" y="119" type="curve"/>
      <point x="450" y="119"/>
      <point x="524" y="198"/>
      <point x="524" y="319" type="curve"/>
      <point x="524" y="435"/>
      <point x="452" y="507"/>
      <point x="336" y="507" type="curve"/>
      <point x="212" y="507"/>
      <point x="131" y="436"/>
      <point x="131" y="316" type="curve"/>
      <point x="262" y="316"/>
      <point x="126" y="316"/>
    </contour>
    <contour>
      <point x="437" y="337" type="line"/>
      <point x="598" y="485" type="line"/>
      <point x="501" y="581" type="line"/>
      <point x="354" y="421" type="line"/>
    </contour>
    <contour>
      <point x="358" y="213" type="line"/>
      <point x="506" y="53" type="line"/>
      <point x="602" y="149" type="line"/>
      <point x="441" y="297" type="line"/>
    </contour>
    <contour>
      <point x="214" y="297" type="line"/>
      <point x="53" y="149" type="line"/>
      <point x="149" y="53" type="line"/>
      <point x="298" y="213" type="line"/>
    </contour>
    <contour>
      <point x="303" y="422" type="line"/>
      <point x="155" y="583" type="line"/>
      <point x="59" y="487" type="line"/>
      <point x="220" y="338" type="line"/>
    </contour>
  </outline>
</glyph>
<glyph name="yen" format="1">
  <advance width="690"/>
  <unicode hex="00A5"/>
  <outline>
    <contour>
      <point x="538" y="421" type="curve"/>
      <point x="475" y="421"/>
      <point x="412" y="421"/>
      <point x="350" y="421" type="curve"/>
      <point x="350" y="311"/>
      <point x="350" y="421"/>
      <point x="350" y="311" type="curve"/>
      <point x="412" y="311"/>
      <point x="475" y="311"/>
      <point x="538" y="311" type="curve"/>
      <point x="538" y="421"/>
      <point x="538" y="311"/>
    </contour>
    <contour>
      <point x="324" y="421" type="curve"/>
      <point x="262" y="421"/>
      <point x="200" y="421"/>
      <point x="139" y="421" type="curve"/>
      <point x="139" y="311"/>
      <point x="139" y="421"/>
      <point x="139" y="311" type="curve"/>
      <point x="200" y="311"/>
      <point x="262" y="311"/>
      <point x="324" y="311" type="curve"/>
      <point x="324" y="421"/>
      <point x="324" y="311"/>
    </contour>
    <contour>
      <point x="538" y="275" type="curve"/>
      <point x="405" y="275"/>
      <point x="272" y="275"/>
      <point x="139" y="275" type="curve"/>
      <point x="139" y="165"/>
      <point x="139" y="275"/>
      <point x="139" y="165" type="curve"/>
      <point x="272" y="165"/>
      <point x="405" y="165"/>
      <point x="538" y="165" type="curve"/>
      <point x="538" y="275"/>
      <point x="538" y="165"/>
    </contour>
    <contour>
      <point x="336" y="100" type="curve"/>
      <point x="192" y="100"/>
      <point x="337" y="100"/>
      <point x="193" y="100" type="curve"/>
      <point x="193" y="0"/>
      <point x="193" y="100"/>
      <point x="193" y="0" type="curve"/>
      <point x="241" y="0"/>
      <point x="288" y="0"/>
      <point x="336" y="0" type="curve"/>
      <point x="336" y="100"/>
      <point x="336" y="0"/>
    </contour>
    <contour>
      <point x="336" y="0" type="curve"/>
      <point x="385" y="0"/>
      <point x="432" y="0"/>
      <point x="480" y="0" type="curve"/>
      <point x="480" y="100"/>
      <point x="480" y="0"/>
      <point x="480" y="100" type="curve"/>
      <point x="335" y="100"/>
      <point x="481" y="100"/>
      <point x="336" y="100" type="curve"/>
      <point x="336" y="0"/>
      <point x="336" y="100"/>
    </contour>
    <contour>
      <point x="521" y="722" type="curve"/>
      <point x="474" y="722"/>
      <point x="429" y="722"/>
      <point x="384" y="722" type="curve"/>
      <point x="384" y="622"/>
      <point x="384" y="722"/>
      <point x="384" y="622" type="curve"/>
      <point x="521" y="622"/>
      <point x="383" y="622"/>
      <point x="521" y="622" type="curve"/>
      <point x="521" y="722"/>
      <point x="521" y="622"/>
    </contour>
    <contour>
      <point x="152" y="722" type="curve"/>
      <point x="113" y="722"/>
      <point x="75" y="722"/>
      <point x="37" y="722" type="curve"/>
      <point x="36" y="622"/>
      <point x="37" y="722"/>
      <point x="36" y="622" type="curve"/>
      <point x="153" y="622"/>
      <point x="35" y="622"/>
      <point x="152" y="622" type="curve"/>
      <point x="152" y="722"/>
      <point x="152" y="622"/>
    </contour>
    <contour>
      <point x="164" y="622" type="curve"/>
      <point x="301" y="622"/>
      <point x="163" y="622"/>
      <point x="301" y="622" type="curve"/>
      <point x="301" y="722"/>
      <point x="301" y="622"/>
      <point x="301" y="722" type="curve"/>
      <point x="255" y="722"/>
      <point x="210" y="722"/>
      <point x="164" y="722" type="curve"/>
      <point x="164" y="622"/>
      <point x="164" y="722"/>
    </contour>
    <contour>
      <point x="533" y="622" type="curve"/>
      <point x="653" y="622"/>
      <point x="532" y="622"/>
      <point x="652" y="622" type="curve"/>
      <point x="652" y="722"/>
      <point x="652" y="622"/>
      <point x="652" y="722" type="curve"/>
      <point x="613" y="722"/>
      <point x="573" y="722"/>
      <point x="533" y="722" type="curve"/>
      <point x="533" y="622"/>
      <point x="533" y="722"/>
    </contour>
    <contour>
      <point x="68" y="712" type="curve"/>
      <point x="135" y="588"/>
      <point x="201" y="464"/>
      <point x="267" y="337" type="curve"/>
      <point x="399" y="337"/>
      <point x="253" y="337"/>
      <point x="386" y="337" type="curve"/>
      <point x="322" y="468"/>
      <point x="260" y="592"/>
      <point x="194" y="722" type="curve"/>
      <point x="68" y="722"/>
      <point x="194" y="712"/>
    </contour>
    <contour>
      <point x="491" y="722" type="curve"/>
      <point x="419" y="590"/>
      <point x="354" y="468"/>
      <point x="282" y="337" type="curve"/>
      <point x="414" y="337"/>
      <point x="274" y="337"/>
      <point x="406" y="337" type="curve"/>
      <point x="478" y="464"/>
      <point x="546" y="588"/>
      <point x="617" y="713" type="curve"/>
      <point x="491" y="713"/>
      <point x="617" y="722"/>
    </contour>
    <contour>
      <point x="408" y="0" type="curve"/>
      <point x="408" y="115"/>
      <point x="408" y="225"/>
      <point x="408" y="340" type="curve"/>
      <point x="265" y="340"/>
      <point x="408" y="340"/>
      <point x="265" y="340" type="curve"/>
      <point x="265" y="225"/>
      <point x="265" y="115"/>
      <point x="265" y="0" type="curve"/>
      <point x="408" y="0"/>
      <point x="265" y="0"/>
    </contour>
  </outline>
</glyph>
<glyph name="section" format="1">
  <advance width="527"/>
  <unicode hex="00A7"/>
  <outline>
    <contour>
      <point x="420" y="700" type="curve"/>
      <point x="367" y="734"/>
      <point x="328" y="749"/>
      <point x="268" y="749" type="curve"/>
      <point x="158" y="749"/>
      <point x="83" y="696"/>
      <point x="83" y="597" type="curve"/>
      <point x="83" y="511"/>
      <point x="137" y="463"/>
      <point x="221" y="433" type="curve"/>
      <point x="279" y="412"/>
      <point x="345" y="407"/>
      <point x="345" y="359" type="curve"/>
      <point x="345" y="309"/>
      <point x="309" y="286"/>
      <point x="257" y="276" type="curve"/>
      <point x="335" y="195"/>
      <point x="257" y="276"/>
      <point x="335" y="195" type="curve"/>
      <point x="424" y="217"/>
      <point x="476" y="272"/>
      <point x="476" y="361" type="curve"/>
      <point x="475" y="463"/>
      <point x="389" y="495"/>
      <point x="287" y="528" type="curve"/>
      <point x="247" y="542"/>
      <point x="209" y="558"/>
      <point x="209" y="597" type="curve"/>
      <point x="209" y="628"/>
      <point x="231" y="648"/>
      <point x="265" y="648" type="curve"/>
      <point x="305" y="648"/>
      <point x="327" y="638"/>
      <point x="362" y="619" type="curve"/>
      <point x="420" y="700"/>
      <point x="362" y="619"/>
    </contour>
    <contour>
      <point x="192" y="526" type="curve"/>
      <point x="108" y="499"/>
      <point x="53" y="452"/>
      <point x="53" y="366" type="curve"/>
      <point x="53" y="269"/>
      <point x="125" y="228"/>
      <point x="221" y="197" type="curve"/>
      <point x="269" y="180"/>
      <point x="322" y="171"/>
      <point x="322" y="128" type="curve"/>
      <point x="322" y="94"/>
      <point x="298" y="74"/>
      <point x="264" y="74" type="curve"/>
      <point x="220" y="74"/>
      <point x="194" y="87"/>
      <point x="154" y="113" type="curve"/>
      <point x="86" y="38"/>
      <point x="154" y="113"/>
      <point x="86" y="38" type="curve"/>
      <point x="142" y="-8"/>
      <point x="192" y="-27"/>
      <point x="261" y="-27" type="curve"/>
      <point x="371" y="-27"/>
      <point x="450" y="24"/>
      <point x="450" y="130" type="curve"/>
      <point x="449" y="218"/>
      <point x="391" y="264"/>
      <point x="305" y="292" type="curve"/>
      <point x="247" y="312"/>
      <point x="184" y="319"/>
      <point x="184" y="369" type="curve"/>
      <point x="184" y="413"/>
      <point x="213" y="437"/>
      <point x="258" y="451" type="curve"/>
      <point x="192" y="526"/>
      <point x="258" y="451"/>
    </contour>
    <contour>
      <point x="188" y="38" type="curve"/>
      <point x="188" y="158"/>
      <point x="188" y="38"/>
      <point x="188" y="158" type="curve"/>
      <point x="86" y="158"/>
      <point x="188" y="158"/>
      <point x="86" y="158" type="curve"/>
      <point x="86" y="38"/>
      <point x="86" y="158"/>
      <point x="86" y="38" type="curve"/>
      <point x="188" y="38"/>
      <point x="86" y="38"/>
    </contour>
    <contour>
      <point x="420" y="581" type="curve"/>
      <point x="420" y="701"/>
      <point x="420" y="580"/>
      <point x="420" y="700" type="curve"/>
      <point x="318" y="700"/>
      <point x="420" y="700"/>
      <point x="318" y="700" type="curve"/>
      <point x="318" y="580"/>
      <point x="318" y="701"/>
      <point x="318" y="581" type="curve"/>
      <point x="420" y="581"/>
      <point x="318" y="581"/>
    </contour>
  </outline>
</glyph>
<glyph name="dieresis" format="1">
  <advance width="396"/>
  <unicode hex="00A8"/>
  <outline>
    <contour>
      <point x="197" y="586" type="move" name="_top"/>
    </contour>
    <contour>
      <point x="170" y="646" type="curve"/>
      <point x="170" y="690"/>
      <point x="140" y="712"/>
      <point x="98" y="712" type="curve"/>
      <point x="56" y="712"/>
      <point x="28" y="689"/>
      <point x="28" y="646" type="curve"/>
      <point x="169" y="646"/>
      <point x="29" y="646"/>
      <point x="170" y="646" type="curve"/>
      <point x="170" y="602"/>
      <point x="141" y="582"/>
      <point x="98" y="582" type="curve"/>
      <point x="56" y="582"/>
      <point x="28" y="603"/>
      <point x="28" y="646" type="curve"/>
      <point x="169" y="646"/>
      <point x="29" y="646"/>
    </contour>
    <contour>
      <point x="367" y="646" type="curve"/>
      <point x="367" y="690"/>
      <point x="337" y="712"/>
      <point x="295" y="712" type="curve"/>
      <point x="253" y="712"/>
      <point x="224" y="689"/>
      <point x="224" y="646" type="curve"/>
      <point x="366" y="646"/>
      <point x="225" y="646"/>
      <point x="367" y="646" type="curve"/>
      <point x="367" y="602"/>
      <point x="337" y="582"/>
      <point x="294" y="582" type="curve"/>
      <point x="253" y="582"/>
      <point x="224" y="603"/>
      <point x="224" y="646" type="curve"/>
      <point x="366" y="646"/>
      <point x="225" y="646"/>
    </contour>
  </outline>
</glyph>
<glyph name="copyright" format="1">
  <advance width="755"/>
  <unicode hex="00A9"/>
  <outline>
    <contour>
      <point x="159" y="323" type="curve"/>
      <point x="159" y="465"/>
      <point x="244" y="564"/>
      <point x="381" y="564" type="curve"/>
      <point x="516" y="564"/>
      <point x="597" y="462"/>
      <point x="597" y="321" type="curve"/>
      <point x="597" y="185"/>
      <point x="519" y="86"/>
      <point x="388" y="86" type="curve"/>
      <point x="251" y="86"/>
      <point x="159" y="182"/>
      <point x="159" y="323" type="curve"/>
      <point x="53" y="323"/>
      <point x="161" y="323"/>
      <point x="55" y="323" type="curve"/>
      <point x="55" y="131"/>
      <point x="189" y="5"/>
      <point x="384" y="5" type="curve"/>
      <point x="573" y="5"/>
      <point x="700" y="134"/>
      <point x="700" y="325" type="curve"/>
      <point x="700" y="516"/>
      <point x="571" y="645"/>
      <point x="381" y="645" type="curve"/>
      <point x="188" y="645"/>
      <point x="55" y="517"/>
      <point x="55" y="323" type="curve"/>
      <point x="161" y="323"/>
      <point x="53" y="323"/>
    </contour>
    <contour>
      <point x="428" y="420" type="curve"/>
      <point x="428" y="408"/>
      <point x="428" y="388"/>
      <point x="428" y="372" type="curve"/>
      <point x="524" y="372"/>
      <point x="428" y="372"/>
      <point x="525" y="372" type="curve"/>
      <point x="525" y="403"/>
      <point x="525" y="439"/>
      <point x="525" y="464" type="curve"/>
      <point x="428" y="422"/>
      <point x="524" y="462"/>
    </contour>
    <contour>
      <point x="525" y="464" type="curve"/>
      <point x="486" y="498"/>
      <point x="441" y="512"/>
      <point x="387" y="512" type="curve"/>
      <point x="270" y="512"/>
      <point x="203" y="439"/>
      <point x="203" y="322" type="curve"/>
      <point x="203" y="210"/>
      <point x="262" y="139"/>
      <point x="372" y="139" type="curve"/>
      <point x="433" y="139"/>
      <point x="477" y="149"/>
      <point x="523" y="200" type="curve"/>
      <point x="462" y="251"/>
      <point x="523" y="200"/>
      <point x="462" y="251" type="curve"/>
      <point x="431" y="230"/>
      <point x="411" y="220"/>
      <point x="377" y="220" type="curve"/>
      <point x="322" y="220"/>
      <point x="303" y="266"/>
      <point x="303" y="326" type="curve"/>
      <point x="303" y="387"/>
      <point x="326" y="431"/>
      <point x="383" y="431" type="curve"/>
      <point x="401" y="431"/>
      <point x="416" y="427"/>
      <point x="428" y="420" type="curve"/>
      <point x="524" y="462"/>
      <point x="428" y="422"/>
    </contour>
  </outline>
</glyph>
<glyph name="ordfeminine" format="1">
  <advance width="434"/>
  <unicode hex="00AA"/>
  <outline>
    <contour>
      <point x="69" y="724" type="curve"/>
      <point x="69" y="657"/>
      <point x="69" y="718"/>
      <point x="69" y="651" type="curve"/>
      <point x="136" y="651"/>
      <point x="70" y="651"/>
      <point x="137" y="651" type="curve"/>
      <point x="137" y="718"/>
      <point x="137" y="657"/>
      <point x="137" y="724" type="curve"/>
      <point x="70" y="724"/>
      <point x="136" y="724"/>
    </contour>
    <contour>
      <point x="342" y="426" type="curve"/>
      <point x="342" y="507"/>
      <point x="342" y="585"/>
      <point x="342" y="666" type="curve"/>
      <point x="342" y="745"/>
      <point x="283" y="774"/>
      <point x="203" y="774" type="curve"/>
      <point x="143" y="774"/>
      <point x="101" y="753"/>
      <point x="69" y="724" type="curve"/>
      <point x="101" y="669"/>
      <point x="71" y="722"/>
      <point x="103" y="667" type="curve"/>
      <point x="124" y="686"/>
      <point x="151" y="705"/>
      <point x="191" y="705" type="curve"/>
      <point x="228" y="705"/>
      <point x="254" y="691"/>
      <point x="254" y="654" type="curve"/>
      <point x="254" y="576"/>
      <point x="254" y="503"/>
      <point x="254" y="426" type="curve"/>
      <point x="339" y="426"/>
      <point x="256" y="426"/>
    </contour>
    <contour>
      <point x="299" y="426" type="curve"/>
      <point x="326" y="426"/>
      <point x="353" y="426"/>
      <point x="381" y="426" type="curve"/>
      <point x="381" y="490"/>
      <point x="381" y="427"/>
      <point x="381" y="492" type="curve"/>
      <point x="304" y="492"/>
      <point x="377" y="492"/>
      <point x="299" y="492" type="curve"/>
      <point x="299" y="427"/>
      <point x="299" y="490"/>
    </contour>
    <contour>
      <point x="295" y="649" type="curve"/>
      <point x="250" y="644"/>
      <point x="223" y="642"/>
      <point x="179" y="636" type="curve"/>
      <point x="104" y="626"/>
      <point x="50" y="601"/>
      <point x="50" y="530" type="curve"/>
      <point x="50" y="458"/>
      <point x="94" y="422"/>
      <point x="167" y="422" type="curve"/>
      <point x="241" y="422"/>
      <point x="272" y="471"/>
      <point x="319" y="523" type="curve"/>
      <point x="277" y="558"/>
      <point x="317" y="523"/>
      <point x="276" y="559" type="curve"/>
      <point x="251" y="519"/>
      <point x="230" y="488"/>
      <point x="186" y="488" type="curve"/>
      <point x="153" y="488"/>
      <point x="134" y="503"/>
      <point x="134" y="533" type="curve"/>
      <point x="134" y="559"/>
      <point x="155" y="573"/>
      <point x="179" y="577" type="curve"/>
      <point x="227" y="583"/>
      <point x="251" y="586"/>
      <point x="299" y="593" type="curve"/>
      <point x="296" y="648"/>
      <point x="299" y="594"/>
    </contour>
  </outline>
</glyph>
<glyph name="guillemotleft" format="1">
  <advance width="526"/>
  <unicode hex="00AB"/>
  <outline>
    <contour>
      <point x="241" y="475" type="curve"/>
      <point x="197" y="445"/>
      <point x="93" y="377"/>
      <point x="49" y="347" type="curve"/>
      <point x="49" y="237"/>
      <point x="49" y="335"/>
      <point x="49" y="224" type="curve"/>
      <point x="93" y="254"/>
      <point x="197" y="329"/>
      <point x="241" y="359" type="curve"/>
      <point x="241" y="469"/>
      <point x="241" y="365"/>
    </contour>
    <contour>
      <point x="241" y="214" type="curve"/>
      <point x="197" y="245"/>
      <point x="93" y="317"/>
      <point x="49" y="347" type="curve"/>
      <point x="49" y="237"/>
      <point x="49" y="335"/>
      <point x="49" y="224" type="curve"/>
      <point x="93" y="194"/>
      <point x="197" y="128"/>
      <point x="241" y="98" type="curve"/>
      <point x="241" y="208"/>
      <point x="241" y="105"/>
    </contour>
    <contour>
      <point x="453" y="475" type="curve"/>
      <point x="410" y="445"/>
      <point x="306" y="377"/>
      <point x="262" y="347" type="curve"/>
      <point x="262" y="237"/>
      <point x="262" y="335"/>
      <point x="262" y="224" type="curve"/>
      <point x="306" y="254"/>
      <point x="410" y="329"/>
      <point x="453" y="359" type="curve"/>
      <point x="453" y="469"/>
      <point x="453" y="365"/>
    </contour>
    <contour>
      <point x="453" y="214" type="curve"/>
      <point x="410" y="245"/>
      <point x="306" y="317"/>
      <point x="262" y="347" type="curve"/>
      <point x="262" y="237"/>
      <point x="262" y="335"/>
      <point x="262" y="224" type="curve"/>
      <point x="306" y="194"/>
      <point x="410" y="128"/>
      <point x="453" y="98" type="curve"/>
      <point x="453" y="208"/>
      <point x="453" y="105"/>
    </contour>
  </outline>
</glyph>
<glyph name="logicalnot" format="1">
  <advance width="603"/>
  <unicode hex="00AC"/>
  <outline>
    <contour>
      <point x="77" y="259" type="curve"/>
      <point x="533" y="259" type="line"/>
      <point x="533" y="369"/>
      <point x="533" y="259"/>
      <point x="533" y="369" type="curve"/>
      <point x="77" y="369" type="line"/>
      <point x="77" y="259"/>
      <point x="77" y="369"/>
    </contour>
    <contour>
      <point x="533" y="140" type="curve"/>
      <point x="533" y="369" type="line"/>
      <point x="401" y="369"/>
      <point x="535" y="369"/>
      <point x="404" y="369" type="curve"/>
      <point x="404" y="140" type="line"/>
      <point x="535" y="140"/>
      <point x="401" y="140"/>
    </contour>
  </outline>
</glyph>
<glyph name="registered" format="1">
  <advance width="769"/>
  <unicode hex="00AE"/>
  <outline>
    <contour>
      <point x="146" y="322" type="curve"/>
      <point x="146" y="476"/>
      <point x="236" y="571"/>
      <point x="388" y="571" type="curve"/>
      <point x="537" y="571"/>
      <point x="623" y="473"/>
      <point x="623" y="321" type="curve"/>
      <point x="623" y="171"/>
      <point x="540" y="75"/>
      <point x="395" y="75" type="curve"/>
      <point x="241" y="75"/>
      <point x="146" y="168"/>
      <point x="146" y="322" type="curve"/>
      <point x="110" y="322"/>
      <point x="91" y="322"/>
      <point x="55" y="322" type="curve"/>
      <point x="55" y="122"/>
      <point x="186" y="4"/>
      <point x="391" y="4" type="curve"/>
      <point x="590" y="4"/>
      <point x="713" y="125"/>
      <point x="713" y="324" type="curve"/>
      <point x="713" y="523"/>
      <point x="588" y="644"/>
      <point x="388" y="644" type="curve"/>
      <point x="184" y="644"/>
      <point x="55" y="523"/>
      <point x="55" y="322" type="curve"/>
      <point x="91" y="322"/>
      <point x="110" y="322"/>
    </contour>
    <contour>
      <point x="458" y="142" type="curve"/>
      <point x="494" y="142"/>
      <point x="507" y="142"/>
      <point x="542" y="142" type="curve"/>
      <point x="542" y="222"/>
      <point x="542" y="142"/>
      <point x="542" y="222" type="curve"/>
      <point x="532" y="222"/>
      <point x="530" y="222"/>
      <point x="520" y="222" type="curve"/>
      <point x="468" y="215"/>
      <point x="483" y="239"/>
    </contour>
    <contour>
      <point x="372" y="507" type="curve"/>
      <point x="327" y="507"/>
      <point x="286" y="507"/>
      <point x="242" y="507" type="curve"/>
      <point x="242" y="426"/>
      <point x="242" y="507"/>
      <point x="242" y="426" type="curve"/>
      <point x="250" y="426"/>
      <point x="257" y="426"/>
      <point x="266" y="426" type="curve"/>
      <point x="372" y="507"/>
      <point x="266" y="426"/>
    </contour>
    <contour>
      <point x="372" y="222" type="curve"/>
      <point x="327" y="222"/>
      <point x="286" y="222"/>
      <point x="242" y="222" type="curve"/>
      <point x="242" y="142"/>
      <point x="242" y="222"/>
      <point x="242" y="142" type="curve"/>
      <point x="250" y="142"/>
      <point x="257" y="142"/>
      <point x="266" y="142" type="curve"/>
      <point x="372" y="222"/>
      <point x="266" y="142"/>
    </contour>
    <contour>
      <point x="266" y="142" type="curve"/>
      <point x="308" y="142"/>
      <point x="346" y="142"/>
      <point x="388" y="142" type="curve"/>
      <point x="388" y="222"/>
      <point x="388" y="142"/>
      <point x="388" y="222" type="curve"/>
      <point x="382" y="222"/>
      <point x="379" y="222"/>
      <point x="372" y="222" type="curve"/>
      <point x="266" y="142"/>
      <point x="372" y="222"/>
    </contour>
    <contour>
      <point x="358" y="319" type="curve"/>
      <point x="372" y="298"/>
      <point x="445" y="162"/>
      <point x="458" y="142" type="curve"/>
      <point x="525" y="186"/>
      <point x="492" y="162"/>
      <point x="520" y="222" type="curve"/>
      <point x="464" y="313" type="line"/>
      <point x="334" y="313"/>
      <point x="487" y="319"/>
    </contour>
    <contour>
      <point x="365" y="222" type="curve"/>
      <point x="365" y="317"/>
      <point x="365" y="413"/>
      <point x="365" y="507" type="curve"/>
      <point x="259" y="426"/>
      <point x="372" y="507"/>
      <point x="266" y="426" type="curve"/>
      <point x="266" y="331"/>
      <point x="266" y="236"/>
      <point x="266" y="142" type="curve"/>
      <point x="372" y="222"/>
      <point x="259" y="142"/>
    </contour>
    <contour>
      <point x="322" y="272" type="curve"/>
      <point x="338" y="272"/>
      <point x="355" y="272"/>
      <point x="371" y="272" type="curve"/>
      <point x="460" y="272"/>
      <point x="522" y="305"/>
      <point x="522" y="392" type="curve"/>
      <point x="522" y="466"/>
      <point x="469" y="507"/>
      <point x="392" y="507" type="curve"/>
      <point x="386" y="507"/>
      <point x="378" y="507"/>
      <point x="372" y="507" type="curve"/>
      <point x="266" y="426"/>
      <point x="372" y="507"/>
      <point x="266" y="426" type="curve"/>
      <point x="302" y="426"/>
      <point x="337" y="426"/>
      <point x="373" y="426" type="curve"/>
      <point x="403" y="426"/>
      <point x="425" y="416"/>
      <point x="425" y="388" type="curve"/>
      <point x="425" y="363"/>
      <point x="410" y="353"/>
      <point x="386" y="353" type="curve"/>
      <point x="364" y="353"/>
      <point x="342" y="353"/>
      <point x="322" y="353" type="curve"/>
      <point x="322" y="272"/>
      <point x="322" y="353"/>
    </contour>
  </outline>
</glyph>
<glyph name="macron" format="1">
  <advance width="283"/>
  <unicode hex="00AF"/>
  <outline>
    <contour>
      <point x="134" y="577" type="move" name="_top"/>
    </contour>
    <contour>
      <point x="234" y="677" type="curve"/>
      <point x="167" y="677"/>
      <point x="99" y="677"/>
      <point x="32" y="677" type="curve"/>
      <point x="32" y="577"/>
      <point x="32" y="677"/>
      <point x="32" y="577" type="curve"/>
      <point x="99" y="577"/>
      <point x="167" y="577"/>
      <point x="234" y="577" type="curve"/>
      <point x="234" y="677"/>
      <point x="234" y="577"/>
    </contour>
  </outline>
</glyph>
<glyph name="degree" format="1">
  <advance width="480"/>
  <unicode hex="00B0"/>
  <outline>
    <contour>
      <point x="424" y="567" type="curve"/>
      <point x="424" y="681"/>
      <point x="353" y="751"/>
      <point x="239" y="751" type="curve"/>
      <point x="126" y="751"/>
      <point x="56" y="681"/>
      <point x="56" y="568" type="curve"/>
      <point x="119" y="568"/>
      <point x="102" y="568"/>
      <point x="165" y="568" type="curve"/>
      <point x="165" y="620"/>
      <point x="188" y="658"/>
      <point x="238" y="658" type="curve"/>
      <point x="287" y="658"/>
      <point x="312" y="621"/>
      <point x="312" y="567" type="curve"/>
      <point x="312" y="513"/>
      <point x="290" y="474"/>
      <point x="240" y="474" type="curve"/>
      <point x="189" y="474"/>
      <point x="165" y="513"/>
      <point x="165" y="568" type="curve"/>
      <point x="102" y="568"/>
      <point x="119" y="568"/>
      <point x="56" y="568" type="curve"/>
      <point x="56" y="453"/>
      <point x="124" y="380"/>
      <point x="239" y="380" type="curve"/>
      <point x="355" y="380"/>
      <point x="424" y="452"/>
    </contour>
  </outline>
</glyph>
<glyph name="plusminus" format="1">
  <advance width="668"/>
  <unicode hex="00B1"/>
  <outline>
    <contour>
      <point x="59" y="43" type="line"/>
      <point x="610" y="43" type="line"/>
      <point x="610" y="153" type="line"/>
      <point x="59" y="153" type="line"/>
    </contour>
    <contour>
      <point x="59" y="259" type="curve"/>
      <point x="610" y="259" type="line"/>
      <point x="610" y="369"/>
      <point x="610" y="259"/>
      <point x="610" y="369" type="curve"/>
      <point x="59" y="369" type="line"/>
      <point x="59" y="259"/>
      <point x="59" y="369"/>
    </contour>
    <contour>
      <point x="397" y="43" type="curve"/>
      <point x="397" y="582" type="line"/>
      <point x="265" y="582"/>
      <point x="406" y="582"/>
      <point x="274" y="582" type="curve"/>
      <point x="274" y="43" type="line"/>
      <point x="406" y="43"/>
      <point x="265" y="43"/>
    </contour>
  </outline>
</glyph>
<glyph name="twosuperior" format="1">
  <advance width="461"/>
  <unicode hex="00B2"/>
  <outline>
    <contour>
      <point x="236" y="785" type="move" name="_top"/>
    </contour>
    <contour>
      <point x="232" y="350" type="move" name="_bottom"/>
    </contour>
    <contour>
      <point x="408" y="350" type="curve"/>
      <point x="408" y="396"/>
      <point x="408" y="439"/>
      <point x="408" y="485" type="curve"/>
      <point x="313" y="485"/>
      <point x="421" y="485"/>
      <point x="325" y="485" type="curve"/>
      <point x="325" y="468"/>
      <point x="325" y="453"/>
      <point x="325" y="435" type="curve"/>
      <point x="424" y="353"/>
      <point x="309" y="432"/>
    </contour>
    <contour>
      <point x="64" y="350" type="curve"/>
      <point x="187" y="350"/>
      <point x="310" y="350"/>
      <point x="408" y="350" type="curve"/>
      <point x="309" y="432"/>
      <point x="424" y="353"/>
      <point x="325" y="435" type="curve"/>
      <point x="242" y="435"/>
      <point x="146" y="435"/>
      <point x="64" y="435" type="curve"/>
      <point x="64" y="350"/>
      <point x="64" y="435"/>
    </contour>
    <contour>
      <point x="157" y="645" type="curve"/>
      <point x="174" y="676"/>
      <point x="192" y="699"/>
      <point x="226" y="699" type="curve"/>
      <point x="261" y="699"/>
      <point x="280" y="677"/>
      <point x="280" y="643" type="curve"/>
      <point x="280" y="607"/>
      <point x="256" y="589"/>
      <point x="230" y="565" type="curve"/>
      <point x="174" y="522"/>
      <point x="119" y="479"/>
      <point x="64" y="435" type="curve"/>
      <point x="65" y="351"/>
      <point x="65" y="435"/>
      <point x="66" y="351" type="curve"/>
      <point x="147" y="403"/>
      <point x="236" y="449"/>
      <point x="297" y="498" type="curve"/>
      <point x="349" y="544"/>
      <point x="390" y="579"/>
      <point x="390" y="648" type="curve"/>
      <point x="390" y="736"/>
      <point x="326" y="784"/>
      <point x="234" y="784" type="curve"/>
      <point x="161" y="784"/>
      <point x="107" y="758"/>
      <point x="78" y="681" type="curve"/>
      <point x="157" y="645"/>
      <point x="78" y="681"/>
    </contour>
  </outline>
</glyph>
<glyph name="threesuperior" format="1">
  <advance width="416"/>
  <unicode hex="00B3"/>
  <outline>
    <contour>
      <point x="202" y="781" type="move" name="_top"/>
    </contour>
    <contour>
      <point x="197" y="342" type="move" name="_bottom"/>
    </contour>
    <contour>
      <point x="114" y="664" type="curve"/>
      <point x="134" y="683"/>
      <point x="156" y="696"/>
      <point x="180" y="696" type="curve"/>
      <point x="212" y="696"/>
      <point x="234" y="680"/>
      <point x="234" y="650" type="curve"/>
      <point x="234" y="614"/>
      <point x="189" y="604"/>
      <point x="143" y="602" type="curve"/>
      <point x="143" y="529"/>
      <point x="143" y="602"/>
      <point x="143" y="529" type="curve"/>
      <point x="254" y="532"/>
      <point x="346" y="560"/>
      <point x="346" y="657" type="curve"/>
      <point x="346" y="743"/>
      <point x="281" y="781"/>
      <point x="191" y="781" type="curve"/>
      <point x="137" y="781"/>
      <point x="88" y="759"/>
      <point x="54" y="722" type="curve"/>
      <point x="114" y="664"/>
      <point x="54" y="722"/>
    </contour>
    <contour>
      <point x="53" y="379" type="curve"/>
      <point x="91" y="356"/>
      <point x="128" y="342"/>
      <point x="172" y="342" type="curve"/>
      <point x="282" y="340"/>
      <point x="362" y="378"/>
      <point x="360" y="477" type="curve"/>
      <point x="360" y="577"/>
      <point x="258" y="589"/>
      <point x="143" y="592" type="curve"/>
      <point x="143" y="529"/>
      <point x="143" y="592"/>
      <point x="143" y="529" type="curve"/>
      <point x="199" y="526"/>
      <point x="247" y="513"/>
      <point x="247" y="474" type="curve"/>
      <point x="247" y="441"/>
      <point x="220" y="425"/>
      <point x="183" y="426" type="curve"/>
      <point x="157" y="426"/>
      <point x="132" y="431"/>
      <point x="105" y="445" type="curve"/>
      <point x="53" y="379"/>
      <point x="105" y="445"/>
    </contour>
  </outline>
</glyph>
<glyph name="acute" format="1">
  <advance width="466"/>
  <unicode hex="00B4"/>
  <outline>
    <contour>
      <point x="118" y="591" type="move" name="_top"/>
    </contour>
    <contour>
      <point x="175" y="590" type="line"/>
      <point x="312" y="756" type="line"/>
      <point x="148" y="756" type="line"/>
      <point x="48" y="590" type="line"/>
    </contour>
  </outline>
</glyph>
<glyph name="paragraph" format="1">
  <advance width="784"/>
  <unicode hex="00B6"/>
  <outline>
    <contour>
      <point x="426" y="622" type="curve"/>
      <point x="578" y="622"/>
      <point x="426" y="622"/>
      <point x="578" y="622" type="curve"/>
      <point x="578" y="722"/>
      <point x="578" y="622"/>
      <point x="578" y="722" type="curve"/>
      <point x="527" y="722"/>
      <point x="476" y="722"/>
      <point x="426" y="722" type="curve"/>
      <point x="426" y="622"/>
      <point x="426" y="722"/>
    </contour>
    <contour>
      <point x="426" y="0" type="curve"/>
      <point x="476" y="0"/>
      <point x="527" y="0"/>
      <point x="578" y="0" type="curve"/>
      <point x="578" y="100"/>
      <point x="578" y="0"/>
      <point x="578" y="100" type="curve"/>
      <point x="426" y="100"/>
      <point x="578" y="100"/>
      <point x="426" y="100" type="curve"/>
      <point x="426" y="0"/>
      <point x="426" y="100"/>
    </contour>
    <contour>
      <point x="426" y="100" type="curve"/>
      <point x="276" y="100"/>
      <point x="426" y="100"/>
      <point x="276" y="100" type="curve"/>
      <point x="276" y="0"/>
      <point x="276" y="100"/>
      <point x="276" y="0" type="curve"/>
      <point x="426" y="0"/>
      <point x="376" y="0"/>
      <point x="426" y="0" type="curve"/>
      <point x="426" y="100"/>
      <point x="426" y="0"/>
    </contour>
    <contour>
      <point x="404" y="384" type="curve"/>
      <point x="361" y="362"/>
      <point x="329" y="351"/>
      <point x="281" y="351" type="curve"/>
      <point x="209" y="351"/>
      <point x="169" y="400"/>
      <point x="169" y="476" type="curve"/>
      <point x="169" y="567"/>
      <point x="228" y="622"/>
      <point x="319" y="622" type="curve"/>
      <point x="355" y="622"/>
      <point x="389" y="622"/>
      <point x="423" y="622" type="curve"/>
      <point x="423" y="722"/>
      <point x="423" y="622"/>
      <point x="423" y="722" type="curve"/>
      <point x="383" y="722"/>
      <point x="342" y="722"/>
      <point x="302" y="722" type="curve"/>
      <point x="146" y="722"/>
      <point x="37" y="633"/>
      <point x="37" y="481" type="curve"/>
      <point x="37" y="334"/>
      <point x="142" y="256"/>
      <point x="293" y="253" type="curve"/>
      <point x="349" y="253"/>
      <point x="396" y="274"/>
      <point x="446" y="299" type="curve"/>
      <point x="404" y="384"/>
      <point x="445" y="301"/>
    </contour>
    <contour>
      <point x="493" y="0" type="curve"/>
      <point x="493" y="241"/>
      <point x="493" y="481"/>
      <point x="493" y="722" type="curve"/>
      <point x="361" y="722"/>
      <point x="493" y="722"/>
      <point x="361" y="722" type="curve"/>
      <point x="361" y="481"/>
      <point x="361" y="241"/>
      <point x="361" y="0" type="curve"/>
      <point x="493" y="0"/>
      <point x="361" y="0"/>
    </contour>
    <contour>
      <point x="703" y="0" type="curve"/>
      <point x="703" y="241"/>
      <point x="703" y="481"/>
      <point x="703" y="722" type="curve"/>
      <point x="571" y="722"/>
      <point x="703" y="722"/>
      <point x="571" y="722" type="curve"/>
      <point x="571" y="481"/>
      <point x="571" y="241"/>
      <point x="571" y="0" type="curve"/>
      <point x="703" y="0"/>
      <point x="571" y="0"/>
    </contour>
  </outline>
</glyph>
<glyph name="periodcentered" format="1">
  <advance width="259"/>
  <unicode hex="00B7"/>
  <outline>
    <contour>
      <point x="200" y="440" type="curve"/>
      <point x="200" y="484"/>
      <point x="171" y="506"/>
      <point x="128" y="506" type="curve"/>
      <point x="86" y="506"/>
      <point x="57" y="482"/>
      <point x="57" y="440" type="curve"/>
      <point x="199" y="440"/>
      <point x="58" y="440"/>
      <point x="200" y="440" type="curve"/>
      <point x="200" y="395"/>
      <point x="171" y="375"/>
      <point x="127" y="375" type="curve"/>
      <point x="86" y="375"/>
      <point x="57" y="397"/>
      <point x="57" y="440" type="curve"/>
      <point x="199" y="440"/>
      <point x="58" y="440"/>
    </contour>
  </outline>
</glyph>
<glyph name="cedilla" format="1">
  <advance width="375"/>
  <unicode hex="00B8"/>
  <outline>
    <contour>
      <point x="231" y="80" type="move" name="_bottom"/>
    </contour>
    <contour>
      <point x="142" y="151" type="curve"/>
      <point x="130" y="129"/>
      <point x="84" y="39"/>
      <point x="72" y="17" type="curve"/>
      <point x="162" y="-64"/>
      <point x="72" y="17"/>
      <point x="162" y="-64" type="curve"/>
      <point x="176" y="-37"/>
      <point x="230" y="54"/>
      <point x="243" y="80" type="curve"/>
      <point x="142" y="151"/>
      <point x="243" y="80"/>
    </contour>
    <contour>
      <point x="162" y="-64" type="curve"/>
      <point x="168" y="-59"/>
      <point x="172" y="-56"/>
      <point x="179" y="-56" type="curve"/>
      <point x="189" y="-56"/>
      <point x="196" y="-61"/>
      <point x="196" y="-73" type="curve"/>
      <point x="196" y="-88"/>
      <point x="181" y="-94"/>
      <point x="164" y="-94" type="curve"/>
      <point x="144" y="-94"/>
      <point x="127" y="-89"/>
      <point x="105" y="-78" type="curve"/>
      <point x="60" y="-151"/>
      <point x="105" y="-78"/>
      <point x="60" y="-151" type="curve"/>
      <point x="91" y="-171"/>
      <point x="121" y="-179"/>
      <point x="158" y="-179" type="curve"/>
      <point x="234" y="-179"/>
      <point x="289" y="-144"/>
      <point x="289" y="-70" type="curve"/>
      <point x="289" y="-1"/>
      <point x="242" y="40"/>
      <point x="171" y="40" type="curve"/>
      <point x="134" y="40"/>
      <point x="107" y="34"/>
      <point x="72" y="17" type="curve"/>
      <point x="162" y="-64"/>
      <point x="72" y="17"/>
    </contour>
  </outline>
</glyph>
<glyph name="onesuperior" format="1">
  <advance width="367"/>
  <unicode hex="00B9"/>
  <outline>
    <contour>
      <point x="194" y="774" type="move" name="_top"/>
    </contour>
    <contour>
      <point x="205" y="349" type="move" name="_bottom"/>
    </contour>
    <contour>
      <point x="148" y="350" type="curve"/>
      <point x="199" y="350"/>
      <point x="260" y="350"/>
      <point x="311" y="350" type="curve"/>
      <point x="311" y="436"/>
      <point x="311" y="347"/>
      <point x="311" y="434" type="curve"/>
      <point x="298" y="434"/>
      <point x="274" y="434"/>
      <point x="260" y="434" type="curve"/>
      <point x="148" y="347"/>
      <point x="260" y="436"/>
    </contour>
    <contour>
      <point x="260" y="434" type="curve"/>
      <point x="208" y="434"/>
      <point x="146" y="434"/>
      <point x="94" y="434" type="curve"/>
      <point x="94" y="347"/>
      <point x="94" y="436"/>
      <point x="94" y="350" type="curve"/>
      <point x="109" y="350"/>
      <point x="133" y="350"/>
      <point x="148" y="350" type="curve"/>
      <point x="260" y="436"/>
      <point x="148" y="347"/>
    </contour>
    <contour>
      <point x="100" y="617" type="line"/>
      <point x="260" y="773" type="line"/>
      <point x="148" y="774" type="line"/>
      <point x="42" y="680" type="line"/>
    </contour>
    <contour>
      <point x="260" y="434" type="curve"/>
      <point x="260" y="774" type="line"/>
      <point x="148" y="774" type="line"/>
      <point x="148" y="350" type="line"/>
      <point x="260" y="436"/>
      <point x="148" y="347"/>
    </contour>
  </outline>
</glyph>
<glyph name="ordmasculine" format="1">
  <advance width="424"/>
  <unicode hex="00BA"/>
  <outline>
    <contour>
      <point x="128" y="598" type="curve"/>
      <point x="128" y="656"/>
      <point x="150" y="705"/>
      <point x="209" y="705" type="curve"/>
      <point x="268" y="705"/>
      <point x="292" y="658"/>
      <point x="292" y="597" type="curve"/>
      <point x="292" y="534"/>
      <point x="270" y="489"/>
      <point x="215" y="489" type="curve"/>
      <point x="152" y="489"/>
      <point x="128" y="534"/>
      <point x="128" y="598" type="curve"/>
      <point x="100" y="598"/>
      <point x="74" y="598"/>
      <point x="45" y="598" type="curve"/>
      <point x="45" y="489"/>
      <point x="105" y="420"/>
      <point x="212" y="420" type="curve"/>
      <point x="317" y="420"/>
      <point x="380" y="487"/>
      <point x="380" y="597" type="curve"/>
      <point x="380" y="705"/>
      <point x="319" y="773"/>
      <point x="213" y="773" type="curve"/>
      <point x="105" y="773"/>
      <point x="45" y="705"/>
      <point x="45" y="598" type="curve"/>
      <point x="74" y="598"/>
      <point x="100" y="598"/>
    </contour>
  </outline>
</glyph>
<glyph name="guillemotright" format="1">
  <advance width="526"/>
  <unicode hex="00BB"/>
  <outline>
    <contour>
      <point x="285" y="475" type="curve"/>
      <point x="330" y="445"/>
      <point x="432" y="377"/>
      <point x="478" y="347" type="curve"/>
      <point x="478" y="237"/>
      <point x="478" y="335"/>
      <point x="478" y="224" type="curve"/>
      <point x="432" y="254"/>
      <point x="330" y="329"/>
      <point x="285" y="359" type="curve"/>
      <point x="285" y="469"/>
      <point x="285" y="365"/>
    </contour>
    <contour>
      <point x="285" y="214" type="curve"/>
      <point x="330" y="245"/>
      <point x="432" y="317"/>
      <point x="478" y="347" type="curve"/>
      <point x="478" y="237"/>
      <point x="478" y="335"/>
      <point x="478" y="224" type="curve"/>
      <point x="432" y="194"/>
      <point x="330" y="128"/>
      <point x="285" y="98" type="curve"/>
      <point x="285" y="208"/>
      <point x="285" y="105"/>
    </contour>
    <contour>
      <point x="73" y="475" type="curve"/>
      <point x="117" y="445"/>
      <point x="220" y="377"/>
      <point x="264" y="347" type="curve"/>
      <point x="264" y="237"/>
      <point x="264" y="335"/>
      <point x="264" y="224" type="curve"/>
      <point x="220" y="254"/>
      <point x="117" y="329"/>
      <point x="73" y="359" type="curve"/>
      <point x="73" y="469"/>
      <point x="73" y="365"/>
    </contour>
    <contour>
      <point x="73" y="214" type="curve"/>
      <point x="117" y="245"/>
      <point x="220" y="317"/>
      <point x="264" y="347" type="curve"/>
      <point x="264" y="237"/>
      <point x="264" y="335"/>
      <point x="264" y="224" type="curve"/>
      <point x="220" y="194"/>
      <point x="117" y="128"/>
      <point x="73" y="98" type="curve"/>
      <point x="73" y="208"/>
      <point x="73" y="105"/>
    </contour>
  </outline>
</glyph>
<glyph name="onequarter" format="1">
  <advance width="939"/>
  <unicode hex="00BC"/>
  <outline>
    <contour>
      <point x="339" y="-42" type="line"/>
      <point x="720" y="713" type="line"/>
      <point x="600" y="713" type="line"/>
      <point x="219" y="-42" type="line"/>
    </contour>
    <contour>
      <point x="139" y="288" type="curve"/>
      <point x="190" y="288"/>
      <point x="251" y="288"/>
      <point x="303" y="288" type="curve"/>
      <point x="303" y="374"/>
      <point x="303" y="286"/>
      <point x="303" y="372" type="curve"/>
      <point x="289" y="372"/>
      <point x="265" y="372"/>
      <point x="252" y="372" type="curve"/>
      <point x="139" y="286"/>
      <point x="252" y="374"/>
    </contour>
    <contour>
      <point x="252" y="372" type="curve"/>
      <point x="200" y="372"/>
      <point x="138" y="372"/>
      <point x="86" y="372" type="curve"/>
      <point x="86" y="286"/>
      <point x="86" y="374"/>
      <point x="86" y="288" type="curve"/>
      <point x="100" y="288"/>
      <point x="124" y="288"/>
      <point x="139" y="288" type="curve"/>
      <point x="252" y="374"/>
      <point x="139" y="286"/>
    </contour>
    <contour>
      <point x="92" y="554" type="line"/>
      <point x="252" y="711" type="line"/>
      <point x="139" y="713" type="line"/>
      <point x="34" y="618" type="line"/>
    </contour>
    <contour>
      <point x="252" y="372" type="curve"/>
      <point x="252" y="713" type="line"/>
      <point x="139" y="713" type="line"/>
      <point x="139" y="288" type="line"/>
      <point x="252" y="374"/>
      <point x="139" y="286"/>
    </contour>
    <contour>
      <point x="899" y="162" type="line"/>
      <point x="545" y="162" type="line"/>
      <point x="545" y="77" type="line"/>
      <point x="899" y="77" type="line"/>
    </contour>
    <contour>
      <point x="581" y="84" type="line"/>
      <point x="803" y="384" type="line"/>
      <point x="720" y="399" type="line"/>
      <point x="545" y="162" type="line"/>
    </contour>
    <contour>
      <point x="832" y="-39" type="line"/>
      <point x="832" y="399" type="line"/>
      <point x="720" y="399" type="line"/>
      <point x="720" y="-39" type="line"/>
    </contour>
    <contour>
      <point x="776" y="38" type="line"/>
      <point x="670" y="38" type="line"/>
      <point x="670" y="-40" type="line"/>
      <point x="776" y="-40" type="line"/>
    </contour>
    <contour>
      <point x="776" y="-40" type="line"/>
      <point x="881" y="-40" type="line"/>
      <point x="881" y="38" type="line"/>
      <point x="776" y="38" type="line"/>
    </contour>
  </outline>
</glyph>
<glyph name="onehalf" format="1">
  <advance width="1010"/>
  <unicode hex="00BD"/>
  <outline>
    <contour>
      <point x="367" y="-42" type="line"/>
      <point x="748" y="713" type="line"/>
      <point x="628" y="713" type="line"/>
      <point x="247" y="-42" type="line"/>
    </contour>
    <contour>
      <point x="138" y="288" type="curve"/>
      <point x="190" y="288"/>
      <point x="251" y="288"/>
      <point x="302" y="288" type="curve"/>
      <point x="302" y="374"/>
      <point x="302" y="286"/>
      <point x="302" y="372" type="curve"/>
      <point x="288" y="372"/>
      <point x="265" y="372"/>
      <point x="252" y="372" type="curve"/>
      <point x="138" y="286"/>
      <point x="252" y="374"/>
    </contour>
    <contour>
      <point x="252" y="372" type="curve"/>
      <point x="200" y="372"/>
      <point x="138" y="372"/>
      <point x="85" y="372" type="curve"/>
      <point x="85" y="286"/>
      <point x="85" y="374"/>
      <point x="85" y="288" type="curve"/>
      <point x="100" y="288"/>
      <point x="124" y="288"/>
      <point x="138" y="288" type="curve"/>
      <point x="252" y="374"/>
      <point x="138" y="286"/>
    </contour>
    <contour>
      <point x="92" y="554" type="line"/>
      <point x="251" y="711" type="line"/>
      <point x="138" y="713" type="line"/>
      <point x="33" y="618" type="line"/>
    </contour>
    <contour>
      <point x="252" y="372" type="curve"/>
      <point x="252" y="713" type="line"/>
      <point x="138" y="713" type="line"/>
      <point x="138" y="288" type="line"/>
      <point x="252" y="374"/>
      <point x="138" y="286"/>
    </contour>
    <contour>
      <point x="976" y="-40" type="curve"/>
      <point x="976" y="5"/>
      <point x="976" y="49"/>
      <point x="976" y="95" type="curve"/>
      <point x="880" y="95"/>
      <point x="988" y="95"/>
      <point x="893" y="95" type="curve"/>
      <point x="893" y="79"/>
      <point x="893" y="63"/>
      <point x="893" y="46" type="curve"/>
      <point x="991" y="-37"/>
      <point x="877" y="43"/>
    </contour>
    <contour>
      <point x="631" y="-40" type="curve"/>
      <point x="755" y="-40"/>
      <point x="877" y="-40"/>
      <point x="976" y="-40" type="curve"/>
      <point x="877" y="43"/>
      <point x="991" y="-37"/>
      <point x="893" y="46" type="curve"/>
      <point x="810" y="46"/>
      <point x="714" y="46"/>
      <point x="631" y="46" type="curve"/>
      <point x="631" y="-40"/>
      <point x="631" y="46"/>
    </contour>
    <contour>
      <point x="725" y="254" type="curve"/>
      <point x="742" y="285"/>
      <point x="759" y="309"/>
      <point x="794" y="309" type="curve"/>
      <point x="828" y="309"/>
      <point x="847" y="287"/>
      <point x="847" y="253" type="curve"/>
      <point x="847" y="217"/>
      <point x="823" y="200"/>
      <point x="798" y="175" type="curve"/>
      <point x="742" y="132"/>
      <point x="686" y="88"/>
      <point x="631" y="46" type="curve"/>
      <point x="632" y="-39"/>
      <point x="632" y="46"/>
      <point x="633" y="-39" type="curve"/>
      <point x="715" y="13"/>
      <point x="803" y="59"/>
      <point x="864" y="107" type="curve"/>
      <point x="916" y="154"/>
      <point x="957" y="189"/>
      <point x="957" y="258" type="curve"/>
      <point x="957" y="346"/>
      <point x="893" y="395"/>
      <point x="802" y="395" type="curve"/>
      <point x="729" y="395"/>
      <point x="674" y="368"/>
      <point x="646" y="291" type="curve"/>
      <point x="725" y="254"/>
      <point x="646" y="291"/>
    </contour>
  </outline>
</glyph>
<glyph name="threequarters" format="1">
  <advance width="962"/>
  <unicode hex="00BE"/>
  <outline>
    <contour>
      <point x="372" y="-42" type="line"/>
      <point x="752" y="713" type="line"/>
      <point x="632" y="713" type="line"/>
      <point x="251" y="-42" type="line"/>
    </contour>
    <contour>
      <point x="101" y="594" type="curve"/>
      <point x="122" y="614"/>
      <point x="143" y="626"/>
      <point x="166" y="626" type="curve"/>
      <point x="199" y="626"/>
      <point x="220" y="611"/>
      <point x="220" y="580" type="curve"/>
      <point x="220" y="544"/>
      <point x="176" y="534"/>
      <point x="130" y="532" type="curve"/>
      <point x="130" y="459"/>
      <point x="130" y="532"/>
      <point x="130" y="459" type="curve"/>
      <point x="241" y="462"/>
      <point x="334" y="491"/>
      <point x="334" y="587" type="curve"/>
      <point x="334" y="673"/>
      <point x="269" y="711"/>
      <point x="178" y="711" type="curve"/>
      <point x="124" y="711"/>
      <point x="75" y="689"/>
      <point x="41" y="652" type="curve"/>
      <point x="101" y="594"/>
      <point x="41" y="652"/>
    </contour>
    <contour>
      <point x="40" y="310" type="curve"/>
      <point x="77" y="286"/>
      <point x="115" y="272"/>
      <point x="158" y="272" type="curve"/>
      <point x="269" y="271"/>
      <point x="349" y="308"/>
      <point x="347" y="407" type="curve"/>
      <point x="347" y="507"/>
      <point x="244" y="519"/>
      <point x="130" y="523" type="curve"/>
      <point x="130" y="459"/>
      <point x="130" y="523"/>
      <point x="130" y="459" type="curve"/>
      <point x="186" y="456"/>
      <point x="234" y="444"/>
      <point x="234" y="404" type="curve"/>
      <point x="234" y="371"/>
      <point x="207" y="355"/>
      <point x="169" y="356" type="curve"/>
      <point x="143" y="356"/>
      <point x="119" y="362"/>
      <point x="92" y="375" type="curve"/>
      <point x="40" y="310"/>
      <point x="92" y="375"/>
    </contour>
    <contour>
      <point x="927" y="162" type="line"/>
      <point x="573" y="162" type="line"/>
      <point x="573" y="77" type="line"/>
      <point x="927" y="77" type="line"/>
    </contour>
    <contour>
      <point x="609" y="84" type="line"/>
      <point x="830" y="384" type="line"/>
      <point x="747" y="399" type="line"/>
      <point x="573" y="162" type="line"/>
    </contour>
    <contour>
      <point x="859" y="-39" type="line"/>
      <point x="859" y="399" type="line"/>
      <point x="747" y="399" type="line"/>
      <point x="747" y="-39" type="line"/>
    </contour>
    <contour>
      <point x="803" y="38" type="line"/>
      <point x="697" y="38" type="line"/>
      <point x="697" y="-40" type="line"/>
      <point x="803" y="-40" type="line"/>
    </contour>
    <contour>
      <point x="803" y="-40" type="line"/>
      <point x="908" y="-40" type="line"/>
      <point x="908" y="38" type="line"/>
      <point x="803" y="38" type="line"/>
    </contour>
  </outline>
</glyph>
<glyph name="questiondown" format="1">
  <advance width="522"/>
  <unicode hex="00BF"/>
  <outline>
    <contour>
      <point x="342" y="355" type="curve"/>
      <point x="342" y="392"/>
      <point x="342" y="472"/>
      <point x="342" y="509" type="curve"/>
      <point x="220" y="509"/>
      <point x="342" y="509"/>
      <point x="220" y="509" type="curve"/>
      <point x="220" y="472"/>
      <point x="220" y="392"/>
      <point x="220" y="355" type="curve"/>
      <point x="342" y="355"/>
      <point x="220" y="355"/>
    </contour>
    <contour>
      <point x="417" y="148" type="line"/>
      <point x="384" y="112"/>
      <point x="345" y="88"/>
      <point x="291" y="88" type="curve"/>
      <point x="217" y="88"/>
      <point x="172" y="136"/>
      <point x="172" y="212" type="curve"/>
      <point x="172" y="300"/>
      <point x="233" y="355"/>
      <point x="329" y="355" type="curve"/>
      <point x="329" y="392"/>
      <point x="330" y="415"/>
      <point x="330" y="453" type="curve"/>
      <point x="161" y="453"/>
      <point x="47" y="363"/>
      <point x="47" y="212" type="curve"/>
      <point x="47" y="67"/>
      <point x="144" y="-18"/>
      <point x="285" y="-18" type="curve"/>
      <point x="370" y="-18"/>
      <point x="435" y="10"/>
      <point x="486" y="68" type="curve"/>
    </contour>
    <contour>
      <point x="208" y="684" type="curve"/>
      <point x="208" y="640"/>
      <point x="239" y="618"/>
      <point x="281" y="618" type="curve"/>
      <point x="323" y="618"/>
      <point x="351" y="643"/>
      <point x="351" y="684" type="curve"/>
      <point x="208" y="684"/>
      <point x="351" y="684"/>
      <point x="208" y="684" type="curve"/>
      <point x="208" y="730"/>
      <point x="239" y="749"/>
      <point x="281" y="749" type="curve"/>
      <point x="324" y="749"/>
      <point x="351" y="727"/>
      <point x="351" y="684" type="curve"/>
      <point x="208" y="684"/>
      <point x="351" y="684"/>
    </contour>
  </outline>
</glyph>
<glyph name="Atilde" format="1">
  <advance width="753"/>
  <unicode hex="00C3"/>
  <outline>
    <contour>
      <point x="123" y="100" type="curve"/>
      <point x="-15" y="100"/>
      <point x="132" y="100"/>
      <point x="-6" y="100" type="curve"/>
      <point x="-6" y="0"/>
      <point x="-6" y="100"/>
      <point x="-6" y="0" type="curve"/>
      <point x="39" y="0"/>
      <point x="78" y="0"/>
      <point x="123" y="0" type="curve"/>
      <point x="123" y="100"/>
      <point x="123" y="0"/>
    </contour>
    <contour>
      <point x="123" y="0" type="curve"/>
      <point x="180" y="0"/>
      <point x="121" y="0"/>
      <point x="294" y="0" type="curve"/>
      <point x="294" y="100"/>
      <point x="294" y="0"/>
      <point x="294" y="100" type="curve"/>
      <point x="121" y="100"/>
      <point x="296" y="100"/>
      <point x="123" y="100" type="curve"/>
      <point x="123" y="0"/>
      <point x="123" y="100"/>
    </contour>
    <contour>
      <point x="611" y="0" type="curve"/>
      <point x="656" y="0"/>
      <point x="693" y="0"/>
      <point x="739" y="0" type="curve"/>
      <point x="739" y="100"/>
      <point x="739" y="0"/>
      <point x="739" y="100" type="curve"/>
      <point x="603" y="100"/>
      <point x="747" y="100"/>
      <point x="611" y="100" type="curve"/>
      <point x="611" y="0"/>
      <point x="611" y="100"/>
    </contour>
    <contour>
      <point x="611" y="100" type="curve"/>
      <point x="437" y="100"/>
      <point x="613" y="100"/>
      <point x="439" y="100" type="curve"/>
      <point x="439" y="0"/>
      <point x="439" y="100"/>
      <point x="439" y="0" type="curve"/>
      <point x="498" y="0"/>
      <point x="553" y="0"/>
      <point x="611" y="0" type="curve"/>
      <point x="611" y="100"/>
      <point x="611" y="0"/>
    </contour>
    <contour>
      <point x="513" y="297" type="curve"/>
      <point x="422" y="297"/>
      <point x="331" y="297"/>
      <point x="240" y="297" type="curve"/>
      <point x="186" y="192"/>
      <point x="240" y="297"/>
      <point x="186" y="192" type="curve"/>
      <point x="308" y="192"/>
      <point x="432" y="192"/>
      <point x="555" y="192" type="curve"/>
      <point x="513" y="297"/>
      <point x="555" y="192"/>
    </contour>
    <contour>
      <point x="690" y="0" type="curve"/>
      <point x="609" y="241"/>
      <point x="522" y="481"/>
      <point x="441" y="722" type="curve"/>
      <point x="322" y="722"/>
      <point x="441" y="722"/>
      <point x="322" y="722" type="curve"/>
      <point x="401" y="482"/>
      <point x="474" y="240"/>
      <point x="552" y="0" type="curve"/>
      <point x="690" y="0"/>
      <point x="552" y="0"/>
    </contour>
    <contour>
      <point x="184" y="0" type="curve"/>
      <point x="272" y="240"/>
      <point x="351" y="482"/>
      <point x="440" y="722" type="curve"/>
      <point x="320" y="722"/>
      <point x="440" y="722"/>
      <point x="320" y="722" type="curve"/>
      <point x="231" y="480"/>
      <point x="130" y="242"/>
      <point x="41" y="0" type="curve"/>
      <point x="184" y="0"/>
      <point x="41" y="0"/>
    </contour>
    <contour>
      <point x="499" y="966" type="curve"/>
      <point x="484" y="928"/>
      <point x="470" y="909"/>
      <point x="448" y="909" type="curve"/>
      <point x="419" y="909"/>
      <point x="405" y="918"/>
      <point x="383" y="937" type="curve"/>
      <point x="353" y="961"/>
      <point x="333" y="973"/>
      <point x="297" y="973" type="curve"/>
      <point x="224" y="973"/>
      <point x="186" y="911"/>
      <point x="162" y="840" type="curve"/>
      <point x="259" y="788"/>
      <point x="162" y="841"/>
      <point x="259" y="788" type="curve"/>
      <point x="277" y="831"/>
      <point x="294" y="847"/>
      <point x="319" y="847" type="curve"/>
      <point x="344" y="847"/>
      <point x="356" y="837"/>
      <point x="374" y="822" type="curve"/>
      <point x="408" y="793"/>
      <point x="429" y="782"/>
      <point x="470" y="782" type="curve"/>
      <point x="545" y="782"/>
      <point x="576" y="842"/>
      <point x="602" y="915" type="curve"/>
      <point x="499" y="965"/>
      <point x="602" y="915"/>
    </contour>
  </outline>
</glyph>
<glyph name="Adieresis" format="1">
  <advance width="753"/>
  <unicode hex="00C4"/>
  <outline>
    <contour>
      <point x="123" y="100" type="curve"/>
      <point x="-15" y="100"/>
      <point x="132" y="100"/>
      <point x="-6" y="100" type="curve"/>
      <point x="-6" y="0"/>
      <point x="-6" y="100"/>
      <point x="-6" y="0" type="curve"/>
      <point x="39" y="0"/>
      <point x="78" y="0"/>
      <point x="123" y="0" type="curve"/>
      <point x="123" y="100"/>
      <point x="123" y="0"/>
    </contour>
    <contour>
      <point x="123" y="0" type="curve"/>
      <point x="180" y="0"/>
      <point x="121" y="0"/>
      <point x="294" y="0" type="curve"/>
      <point x="294" y="100"/>
      <point x="294" y="0"/>
      <point x="294" y="100" type="curve"/>
      <point x="121" y="100"/>
      <point x="296" y="100"/>
      <point x="123" y="100" type="curve"/>
      <point x="123" y="0"/>
      <point x="123" y="100"/>
    </contour>
    <contour>
      <point x="611" y="0" type="curve"/>
      <point x="656" y="0"/>
      <point x="693" y="0"/>
      <point x="739" y="0" type="curve"/>
      <point x="739" y="100"/>
      <point x="739" y="0"/>
      <point x="739" y="100" type="curve"/>
      <point x="603" y="100"/>
      <point x="747" y="100"/>
      <point x="611" y="100" type="curve"/>
      <point x="611" y="0"/>
      <point x="611" y="100"/>
    </contour>
    <contour>
      <point x="611" y="100" type="curve"/>
      <point x="437" y="100"/>
      <point x="613" y="100"/>
      <point x="439" y="100" type="curve"/>
      <point x="439" y="0"/>
      <point x="439" y="100"/>
      <point x="439" y="0" type="curve"/>
      <point x="498" y="0"/>
      <point x="553" y="0"/>
      <point x="611" y="0" type="curve"/>
      <point x="611" y="100"/>
      <point x="611" y="0"/>
    </contour>
    <contour>
      <point x="513" y="297" type="curve"/>
      <point x="422" y="297"/>
      <point x="331" y="297"/>
      <point x="240" y="297" type="curve"/>
      <point x="186" y="192"/>
      <point x="240" y="297"/>
      <point x="186" y="192" type="curve"/>
      <point x="308" y="192"/>
      <point x="432" y="192"/>
      <point x="555" y="192" type="curve"/>
      <point x="513" y="297"/>
      <point x="555" y="192"/>
    </contour>
    <contour>
      <point x="690" y="0" type="curve"/>
      <point x="609" y="241"/>
      <point x="522" y="481"/>
      <point x="441" y="722" type="curve"/>
      <point x="322" y="722"/>
      <point x="441" y="722"/>
      <point x="322" y="722" type="curve"/>
      <point x="401" y="482"/>
      <point x="474" y="240"/>
      <point x="552" y="0" type="curve"/>
      <point x="690" y="0"/>
      <point x="552" y="0"/>
    </contour>
    <contour>
      <point x="184" y="0" type="curve"/>
      <point x="272" y="240"/>
      <point x="351" y="482"/>
      <point x="440" y="722" type="curve"/>
      <point x="320" y="722"/>
      <point x="440" y="722"/>
      <point x="320" y="722" type="curve"/>
      <point x="231" y="480"/>
      <point x="130" y="242"/>
      <point x="41" y="0" type="curve"/>
      <point x="184" y="0"/>
      <point x="41" y="0"/>
    </contour>
    <contour>
      <point x="352" y="846" type="curve"/>
      <point x="352" y="890"/>
      <point x="321" y="912"/>
      <point x="279" y="912" type="curve"/>
      <point x="238" y="912"/>
      <point x="209" y="888"/>
      <point x="209" y="846" type="curve"/>
      <point x="351" y="846"/>
      <point x="210" y="846"/>
      <point x="352" y="846" type="curve"/>
      <point x="352" y="801"/>
      <point x="321" y="781"/>
      <point x="279" y="781" type="curve"/>
      <point x="237" y="781"/>
      <point x="209" y="803"/>
      <point x="209" y="846" type="curve"/>
      <point x="351" y="846"/>
      <point x="210" y="846"/>
    </contour>
    <contour>
      <point x="549" y="846" type="curve"/>
      <point x="549" y="890"/>
      <point x="517" y="912"/>
      <point x="476" y="912" type="curve"/>
      <point x="434" y="912"/>
      <point x="406" y="888"/>
      <point x="406" y="846" type="curve"/>
      <point x="548" y="846"/>
      <point x="407" y="846"/>
      <point x="549" y="846" type="curve"/>
      <point x="549" y="801"/>
      <point x="518" y="781"/>
      <point x="476" y="781" type="curve"/>
      <point x="433" y="781"/>
      <point x="406" y="803"/>
      <point x="406" y="846" type="curve"/>
      <point x="548" y="846"/>
      <point x="407" y="846"/>
    </contour>
  </outline>
</glyph>
<glyph name="AE" format="1">
  <advance width="919"/>
  <unicode hex="00C6"/>
  <outline>
    <contour>
      <point x="110" y="100" type="curve"/>
      <point x="-2" y="100"/>
      <point x="111" y="100"/>
      <point x="-1" y="100" type="curve"/>
      <point x="-1" y="0"/>
      <point x="-1" y="100"/>
      <point x="-1" y="0" type="curve"/>
      <point x="37" y="0"/>
      <point x="72" y="0"/>
      <point x="110" y="0" type="curve"/>
      <point x="110" y="100"/>
      <point x="110" y="0"/>
    </contour>
    <contour>
      <point x="110" y="0" type="curve"/>
      <point x="168" y="0"/>
      <point x="109" y="0"/>
      <point x="286" y="0" type="curve"/>
      <point x="286" y="100"/>
      <point x="286" y="0"/>
      <point x="286" y="100" type="curve"/>
      <point x="109" y="100"/>
      <point x="287" y="100"/>
      <point x="110" y="100" type="curve"/>
      <point x="110" y="0"/>
      <point x="110" y="100"/>
    </contour>
    <contour>
      <point x="475" y="280" type="curve"/>
      <point x="384" y="280"/>
      <point x="321" y="280"/>
      <point x="230" y="280" type="curve"/>
      <point x="177" y="174"/>
      <point x="230" y="280"/>
      <point x="177" y="174" type="curve"/>
      <point x="300" y="174"/>
      <point x="394" y="174"/>
      <point x="517" y="174" type="curve"/>
      <point x="475" y="280"/>
      <point x="517" y="174"/>
    </contour>
    <contour>
      <point x="171" y="0" type="curve"/>
      <point x="577" y="722" type="line"/>
      <point x="458" y="722"/>
      <point x="577" y="722"/>
      <point x="458" y="722" type="curve"/>
      <point x="27" y="0" type="line"/>
      <point x="171" y="0"/>
      <point x="28" y="0"/>
    </contour>
    <contour>
      <point x="880" y="50" type="curve"/>
      <point x="880" y="170"/>
      <point x="880" y="49"/>
      <point x="880" y="169" type="curve"/>
      <point x="777" y="169"/>
      <point x="880" y="169"/>
      <point x="777" y="169" type="curve"/>
      <point x="777" y="49"/>
      <point x="777" y="170"/>
      <point x="777" y="50" type="curve"/>
      <point x="880" y="50"/>
      <point x="777" y="50"/>
    </contour>
    <contour>
      <point x="747" y="672" type="curve"/>
      <point x="747" y="552"/>
      <point x="747" y="673"/>
      <point x="747" y="553" type="curve"/>
      <point x="850" y="553"/>
      <point x="747" y="553"/>
      <point x="850" y="553" type="curve"/>
      <point x="850" y="673"/>
      <point x="850" y="552"/>
      <point x="850" y="672" type="curve"/>
      <point x="747" y="672"/>
      <point x="850" y="672"/>
    </contour>
    <contour>
      <point x="497" y="100" type="curve"/>
      <point x="354" y="100"/>
      <point x="499" y="100"/>
      <point x="356" y="100" type="curve"/>
      <point x="356" y="0"/>
      <point x="356" y="100"/>
      <point x="356" y="0" type="curve"/>
      <point x="403" y="0"/>
      <point x="450" y="0"/>
      <point x="497" y="0" type="curve"/>
      <point x="497" y="100"/>
      <point x="497" y="0"/>
    </contour>
    <contour>
      <point x="497" y="722" type="curve"/>
      <point x="450" y="722"/>
      <point x="403" y="722"/>
      <point x="356" y="722" type="curve"/>
      <point x="356" y="622"/>
      <point x="356" y="722"/>
      <point x="356" y="622" type="curve"/>
      <point x="499" y="622"/>
      <point x="354" y="622"/>
      <point x="497" y="622" type="curve"/>
      <point x="497" y="722"/>
      <point x="497" y="622"/>
    </contour>
    <contour>
      <point x="501" y="322" type="curve"/>
      <point x="598" y="322"/>
      <point x="695" y="322"/>
      <point x="793" y="322" type="curve"/>
      <point x="793" y="423"/>
      <point x="793" y="322"/>
      <point x="793" y="423" type="curve"/>
      <point x="695" y="423"/>
      <point x="598" y="423"/>
      <point x="501" y="423" type="curve"/>
      <point x="501" y="322"/>
      <point x="501" y="423"/>
    </contour>
    <contour>
      <point x="486" y="622" type="curve"/>
      <point x="608" y="622"/>
      <point x="728" y="622"/>
      <point x="850" y="622" type="curve"/>
      <point x="850" y="722"/>
      <point x="850" y="622"/>
      <point x="850" y="722" type="curve"/>
      <point x="728" y="722"/>
      <point x="608" y="722"/>
      <point x="486" y="722" type="curve"/>
      <point x="486" y="622"/>
      <point x="486" y="722"/>
    </contour>
    <contour>
      <point x="562" y="0" type="curve"/>
      <point x="562" y="722" type="line"/>
      <point x="431" y="722"/>
      <point x="562" y="722"/>
      <point x="431" y="722" type="curve"/>
      <point x="431" y="481"/>
      <point x="431" y="241"/>
      <point x="431" y="0" type="curve"/>
      <point x="562" y="0"/>
      <point x="431" y="0"/>
    </contour>
    <contour>
      <point x="486" y="0" type="curve"/>
      <point x="618" y="0"/>
      <point x="748" y="0"/>
      <point x="880" y="0" type="curve"/>
      <point x="880" y="100"/>
      <point x="880" y="0"/>
      <point x="880" y="100" type="curve"/>
      <point x="748" y="100"/>
      <point x="618" y="100"/>
      <point x="486" y="100" type="curve"/>
      <point x="486" y="0"/>
      <point x="486" y="100"/>
    </contour>
  </outline>
</glyph>
<glyph name="Ccedilla" format="1">
  <advance width="683"/>
  <unicode hex="00C7"/>
  <outline>
    <contour>
      <point x="523" y="654" type="curve"/>
      <point x="523" y="534"/>
      <point x="523" y="643"/>
      <point x="523" y="523" type="curve"/>
      <point x="626" y="523"/>
      <point x="523" y="523"/>
      <point x="626" y="523" type="curve"/>
      <point x="626" y="643"/>
      <point x="626" y="534"/>
      <point x="626" y="654" type="curve"/>
      <point x="523" y="654"/>
      <point x="626" y="654"/>
    </contour>
    <contour>
      <point x="626" y="654" type="curve"/>
      <point x="559" y="697"/>
      <point x="481" y="727"/>
      <point x="393" y="727" type="curve"/>
      <point x="171" y="727"/>
      <point x="52" y="579"/>
      <point x="52" y="345" type="curve"/>
      <point x="52" y="129"/>
      <point x="166" y="-5"/>
      <point x="374" y="-5" type="curve"/>
      <point x="488" y="-5"/>
      <point x="563" y="28"/>
      <point x="636" y="96" type="curve"/>
      <point x="567" y="174"/>
      <point x="636" y="96"/>
      <point x="567" y="174" type="curve"/>
      <point x="506" y="126"/>
      <point x="456" y="100"/>
      <point x="379" y="100" type="curve"/>
      <point x="241" y="100"/>
      <point x="184" y="202"/>
      <point x="184" y="349" type="curve"/>
      <point x="184" y="509"/>
      <point x="242" y="622"/>
      <point x="387" y="622" type="curve"/>
      <point x="451" y="622"/>
      <point x="506" y="605"/>
      <point x="554" y="575" type="curve"/>
      <point x="626" y="654"/>
      <point x="554" y="575"/>
    </contour>
    <contour>
      <point x="320" y="74" type="curve"/>
      <point x="309" y="52"/>
      <point x="262" y="-37"/>
      <point x="250" y="-59" type="curve"/>
      <point x="340" y="-140"/>
      <point x="250" y="-59"/>
      <point x="340" y="-140" type="curve"/>
      <point x="354" y="-113"/>
      <point x="407" y="-22"/>
      <point x="421" y="4" type="curve"/>
      <point x="320" y="74"/>
      <point x="421" y="4"/>
    </contour>
    <contour>
      <point x="340" y="-140" type="curve"/>
      <point x="346" y="-135"/>
      <point x="350" y="-132"/>
      <point x="358" y="-132" type="curve"/>
      <point x="368" y="-132"/>
      <point x="374" y="-137"/>
      <point x="374" y="-149" type="curve"/>
      <point x="374" y="-165"/>
      <point x="360" y="-170"/>
      <point x="343" y="-170" type="curve"/>
      <point x="322" y="-170"/>
      <point x="305" y="-165"/>
      <point x="283" y="-154" type="curve"/>
      <point x="238" y="-228"/>
      <point x="283" y="-154"/>
      <point x="238" y="-228" type="curve"/>
      <point x="270" y="-247"/>
      <point x="299" y="-255"/>
      <point x="337" y="-255" type="curve"/>
      <point x="412" y="-255"/>
      <point x="467" y="-220"/>
      <point x="467" y="-146" type="curve"/>
      <point x="467" y="-77"/>
      <point x="420" y="-36"/>
      <point x="350" y="-36" type="curve"/>
      <point x="312" y="-36"/>
      <point x="284" y="-42"/>
      <point x="250" y="-59" type="curve"/>
      <point x="340" y="-140"/>
      <point x="250" y="-59"/>
    </contour>
  </outline>
</glyph>
<glyph name="Edieresis" format="1">
  <advance width="628"/>
  <unicode hex="00CB"/>
  <outline>
    <contour>
      <point x="588" y="50" type="curve"/>
      <point x="588" y="170"/>
      <point x="588" y="49"/>
      <point x="588" y="169" type="curve"/>
      <point x="485" y="169"/>
      <point x="588" y="169"/>
      <point x="485" y="169" type="curve"/>
      <point x="485" y="49"/>
      <point x="485" y="170"/>
      <point x="485" y="50" type="curve"/>
      <point x="588" y="50"/>
      <point x="485" y="50"/>
    </contour>
    <contour>
      <point x="455" y="672" type="curve"/>
      <point x="455" y="552"/>
      <point x="455" y="673"/>
      <point x="455" y="553" type="curve"/>
      <point x="558" y="553"/>
      <point x="455" y="553"/>
      <point x="558" y="553" type="curve"/>
      <point x="558" y="673"/>
      <point x="558" y="552"/>
      <point x="558" y="672" type="curve"/>
      <point x="455" y="672"/>
      <point x="558" y="672"/>
    </contour>
    <contour>
      <point x="205" y="100" type="curve"/>
      <point x="62" y="100"/>
      <point x="207" y="100"/>
      <point x="64" y="100" type="curve"/>
      <point x="64" y="0"/>
      <point x="64" y="100"/>
      <point x="64" y="0" type="curve"/>
      <point x="111" y="0"/>
      <point x="158" y="0"/>
      <point x="205" y="0" type="curve"/>
      <point x="205" y="100"/>
      <point x="205" y="0"/>
    </contour>
    <contour>
      <point x="205" y="722" type="curve"/>
      <point x="158" y="722"/>
      <point x="111" y="722"/>
      <point x="64" y="722" type="curve"/>
      <point x="64" y="622"/>
      <point x="64" y="722"/>
      <point x="64" y="622" type="curve"/>
      <point x="207" y="622"/>
      <point x="62" y="622"/>
      <point x="205" y="622" type="curve"/>
      <point x="205" y="722"/>
      <point x="205" y="622"/>
    </contour>
    <contour>
      <point x="209" y="322" type="curve"/>
      <point x="306" y="322"/>
      <point x="404" y="322"/>
      <point x="501" y="322" type="curve"/>
      <point x="501" y="423"/>
      <point x="501" y="322"/>
      <point x="501" y="423" type="curve"/>
      <point x="404" y="423"/>
      <point x="306" y="423"/>
      <point x="209" y="423" type="curve"/>
      <point x="209" y="322"/>
      <point x="209" y="423"/>
    </contour>
    <contour>
      <point x="195" y="622" type="curve"/>
      <point x="316" y="622"/>
      <point x="436" y="622"/>
      <point x="558" y="622" type="curve"/>
      <point x="558" y="722"/>
      <point x="558" y="622"/>
      <point x="558" y="722" type="curve"/>
      <point x="436" y="722"/>
      <point x="316" y="722"/>
      <point x="195" y="722" type="curve"/>
      <point x="195" y="622"/>
      <point x="195" y="722"/>
    </contour>
    <contour>
      <point x="271" y="0" type="curve"/>
      <point x="271" y="722" type="line"/>
      <point x="139" y="722"/>
      <point x="271" y="722"/>
      <point x="139" y="722" type="curve"/>
      <point x="139" y="481"/>
      <point x="139" y="241"/>
      <point x="139" y="0" type="curve"/>
      <point x="271" y="0"/>
      <point x="139" y="0"/>
    </contour>
    <contour>
      <point x="195" y="0" type="curve"/>
      <point x="326" y="0"/>
      <point x="456" y="0"/>
      <point x="588" y="0" type="curve"/>
      <point x="588" y="100"/>
      <point x="588" y="0"/>
      <point x="588" y="100" type="curve"/>
      <point x="456" y="100"/>
      <point x="326" y="100"/>
      <point x="195" y="100" type="curve"/>
      <point x="195" y="0"/>
      <point x="195" y="100"/>
    </contour>
    <contour>
      <point x="303" y="846" type="curve"/>
      <point x="303" y="890"/>
      <point x="272" y="912"/>
      <point x="231" y="912" type="curve"/>
      <point x="189" y="912"/>
      <point x="161" y="888"/>
      <point x="161" y="846" type="curve"/>
      <point x="303" y="846"/>
      <point x="162" y="846"/>
      <point x="303" y="846" type="curve"/>
      <point x="303" y="801"/>
      <point x="273" y="781"/>
      <point x="231" y="781" type="curve"/>
      <point x="188" y="781"/>
      <point x="161" y="803"/>
      <point x="161" y="846" type="curve"/>
      <point x="303" y="846"/>
      <point x="162" y="846"/>
    </contour>
    <contour>
      <point x="500" y="846" type="curve"/>
      <point x="500" y="890"/>
      <point x="469" y="912"/>
      <point x="428" y="912" type="curve"/>
      <point x="385" y="912"/>
      <point x="358" y="888"/>
      <point x="358" y="846" type="curve"/>
      <point x="500" y="846"/>
      <point x="359" y="846"/>
      <point x="500" y="846" type="curve"/>
      <point x="500" y="801"/>
      <point x="470" y="781"/>
      <point x="428" y="781" type="curve"/>
      <point x="385" y="781"/>
      <point x="358" y="803"/>
      <point x="358" y="846" type="curve"/>
      <point x="500" y="846"/>
      <point x="359" y="846"/>
    </contour>
  </outline>
</glyph>
<glyph name="Igrave" format="1">
  <advance width="367"/>
  <unicode hex="00CC"/>
  <outline>
    <contour>
      <point x="184" y="722" type="curve"/>
      <point x="134" y="722"/>
      <point x="92" y="722"/>
      <point x="42" y="722" type="curve"/>
      <point x="42" y="622"/>
      <point x="42" y="722"/>
      <point x="42" y="622" type="curve"/>
      <point x="193" y="622"/>
      <point x="33" y="622"/>
      <point x="184" y="622" type="curve"/>
      <point x="184" y="722"/>
      <point x="184" y="622"/>
    </contour>
    <contour>
      <point x="184" y="622" type="curve"/>
      <point x="335" y="622"/>
      <point x="175" y="622"/>
      <point x="326" y="622" type="curve"/>
      <point x="326" y="722"/>
      <point x="326" y="622"/>
      <point x="326" y="722" type="curve"/>
      <point x="276" y="722"/>
      <point x="234" y="722"/>
      <point x="184" y="722" type="curve"/>
      <point x="184" y="622"/>
      <point x="184" y="722"/>
    </contour>
    <contour>
      <point x="184" y="0" type="curve"/>
      <point x="234" y="0"/>
      <point x="276" y="0"/>
      <point x="326" y="0" type="curve"/>
      <point x="326" y="100"/>
      <point x="326" y="0"/>
      <point x="326" y="100" type="curve"/>
      <point x="175" y="100"/>
      <point x="335" y="100"/>
      <point x="184" y="100" type="curve"/>
      <point x="184" y="0"/>
      <point x="184" y="100"/>
    </contour>
    <contour>
      <point x="184" y="100" type="curve"/>
      <point x="33" y="100"/>
      <point x="193" y="100"/>
      <point x="42" y="100" type="curve"/>
      <point x="42" y="0"/>
      <point x="42" y="100"/>
      <point x="42" y="0" type="curve"/>
      <point x="92" y="0"/>
      <point x="134" y="0"/>
      <point x="184" y="0" type="curve"/>
      <point x="184" y="100"/>
      <point x="184" y="0"/>
    </contour>
    <contour>
      <point x="248" y="0" type="curve"/>
      <point x="248" y="241"/>
      <point x="248" y="481"/>
      <point x="248" y="722" type="curve"/>
      <point x="118" y="722"/>
      <point x="248" y="722"/>
      <point x="118" y="722" type="curve"/>
      <point x="118" y="481"/>
      <point x="118" y="241"/>
      <point x="118" y="0" type="curve"/>
      <point x="248" y="0"/>
      <point x="118" y="0"/>
    </contour>
    <contour>
      <point x="251" y="786" type="line"/>
      <point x="151" y="952" type="line"/>
      <point x="-13" y="952" type="line"/>
      <point x="125" y="786" type="line"/>
    </contour>
  </outline>
</glyph>
